%TF.GenerationSoftware,KiCad,Pcbnew,10.0.3*%
%TF.CreationDate,2026-05-31T14:52:19-04:00*%
%TF.ProjectId,tesla-dual-lin-rev-a,7465736c-612d-4647-9561-6c2d6c696e2d,A*%
%TF.SameCoordinates,Original*%
%TF.FileFunction,Drillmap*%
%TF.FilePolarity,Positive*%
%FSLAX45Y45*%
G04 Gerber Fmt 4.5, Leading zero omitted, Abs format (unit mm)*
G04 Created by KiCad (PCBNEW 10.0.3) date 2026-05-31 14:52:19*
%MOMM*%
%LPD*%
G01*
G04 APERTURE LIST*
%ADD10C,0.100000*%
%ADD11C,0.200000*%
%ADD12C,0.102000*%
%ADD13C,0.127000*%
G04 APERTURE END LIST*
D10*
X0Y0D02*
X10000000Y0D01*
X0Y-5600000D02*
X0Y0D01*
X10000000Y0D02*
X10000000Y-5600000D01*
X10000000Y-5600000D02*
X0Y-5600000D01*
D11*
D10*
X205000Y-805000D02*
X235000Y-835000D01*
X235000Y-805000D02*
X205000Y-835000D01*
X205000Y-3805000D02*
X235000Y-3835000D01*
X235000Y-3805000D02*
X205000Y-3835000D01*
X205000Y-4405000D02*
X235000Y-4435000D01*
X235000Y-4405000D02*
X205000Y-4435000D01*
X805000Y-205000D02*
X835000Y-235000D01*
X835000Y-205000D02*
X805000Y-235000D01*
X805000Y-805000D02*
X835000Y-835000D01*
X835000Y-805000D02*
X805000Y-835000D01*
X900030Y-4209330D02*
X930030Y-4239330D01*
X930030Y-4209330D02*
X900030Y-4239330D01*
X1006490Y-1306040D02*
X1036490Y-1336040D01*
X1036490Y-1306040D02*
X1006490Y-1336040D01*
X1028150Y-4528620D02*
X1058150Y-4558620D01*
X1058150Y-4528620D02*
X1028150Y-4558620D01*
X1405000Y-205000D02*
X1435000Y-235000D01*
X1435000Y-205000D02*
X1405000Y-235000D01*
X1491590Y-4072030D02*
X1521590Y-4102030D01*
X1521590Y-4072030D02*
X1491590Y-4102030D01*
X1522350Y-3880970D02*
X1552350Y-3910970D01*
X1552350Y-3880970D02*
X1522350Y-3910970D01*
X1595910Y-2455600D02*
X1625910Y-2485600D01*
X1625910Y-2455600D02*
X1595910Y-2485600D01*
X1595910Y-3376570D02*
X1625910Y-3406570D01*
X1625910Y-3376570D02*
X1595910Y-3406570D01*
X1612394Y-3894890D02*
X1642394Y-3924890D01*
X1642394Y-3894890D02*
X1612394Y-3924890D01*
X1832250Y-913400D02*
X1862250Y-943400D01*
X1862250Y-913400D02*
X1832250Y-943400D01*
X1984020Y-1354600D02*
X2014020Y-1384600D01*
X2014020Y-1354600D02*
X1984020Y-1384600D01*
X2005000Y-205000D02*
X2035000Y-235000D01*
X2035000Y-205000D02*
X2005000Y-235000D01*
X2005000Y-805000D02*
X2035000Y-835000D01*
X2035000Y-805000D02*
X2005000Y-835000D01*
X2005000Y-2005000D02*
X2035000Y-2035000D01*
X2035000Y-2005000D02*
X2005000Y-2035000D01*
X2005000Y-2605000D02*
X2035000Y-2635000D01*
X2035000Y-2605000D02*
X2005000Y-2635000D01*
X2005000Y-3205000D02*
X2035000Y-3235000D01*
X2035000Y-3205000D02*
X2005000Y-3235000D01*
X2005000Y-4405000D02*
X2035000Y-4435000D01*
X2035000Y-4405000D02*
X2005000Y-4435000D01*
X2121930Y-3376570D02*
X2151930Y-3406570D01*
X2151930Y-3376570D02*
X2121930Y-3406570D01*
X2185330Y-1207360D02*
X2215330Y-1237360D01*
X2215330Y-1207360D02*
X2185330Y-1237360D01*
X2278090Y-1418810D02*
X2308090Y-1448810D01*
X2308090Y-1418810D02*
X2278090Y-1448810D01*
X2472910Y-3880970D02*
X2502910Y-3910970D01*
X2502910Y-3880970D02*
X2472910Y-3910970D01*
X2601200Y-1266570D02*
X2631200Y-1296570D01*
X2631200Y-1266570D02*
X2601200Y-1296570D01*
X2605000Y-205000D02*
X2635000Y-235000D01*
X2635000Y-205000D02*
X2605000Y-235000D01*
X2605000Y-1405000D02*
X2635000Y-1435000D01*
X2635000Y-1405000D02*
X2605000Y-1435000D01*
X2605000Y-2005000D02*
X2635000Y-2035000D01*
X2635000Y-2005000D02*
X2605000Y-2035000D01*
X2605000Y-2605000D02*
X2635000Y-2635000D01*
X2635000Y-2605000D02*
X2605000Y-2635000D01*
X2605000Y-3205000D02*
X2635000Y-3235000D01*
X2635000Y-3205000D02*
X2605000Y-3235000D01*
X2605000Y-4405000D02*
X2635000Y-4435000D01*
X2635000Y-4405000D02*
X2605000Y-4435000D01*
X2681150Y-3879200D02*
X2711150Y-3909200D01*
X2711150Y-3879200D02*
X2681150Y-3909200D01*
X2707450Y-1216620D02*
X2737450Y-1246620D01*
X2737450Y-1216620D02*
X2707450Y-1246620D01*
X2744910Y-3968310D02*
X2774910Y-3998310D01*
X2774910Y-3968310D02*
X2744910Y-3998310D01*
X3113410Y-4978670D02*
X3143410Y-5008670D01*
X3143410Y-4978670D02*
X3113410Y-5008670D01*
X3205000Y-205000D02*
X3235000Y-235000D01*
X3235000Y-205000D02*
X3205000Y-235000D01*
X3205000Y-805000D02*
X3235000Y-835000D01*
X3235000Y-805000D02*
X3205000Y-835000D01*
X3205000Y-2005000D02*
X3235000Y-2035000D01*
X3235000Y-2005000D02*
X3205000Y-2035000D01*
X3205000Y-3205000D02*
X3235000Y-3235000D01*
X3235000Y-3205000D02*
X3205000Y-3235000D01*
X3205000Y-3805000D02*
X3235000Y-3835000D01*
X3235000Y-3805000D02*
X3205000Y-3835000D01*
X3205000Y-4405000D02*
X3235000Y-4435000D01*
X3235000Y-4405000D02*
X3205000Y-4435000D01*
X3364170Y-2419880D02*
X3394170Y-2449880D01*
X3394170Y-2419880D02*
X3364170Y-2449880D01*
X3805000Y-205000D02*
X3835000Y-235000D01*
X3835000Y-205000D02*
X3805000Y-235000D01*
X3805000Y-805000D02*
X3835000Y-835000D01*
X3835000Y-805000D02*
X3805000Y-835000D01*
X3805000Y-1405000D02*
X3835000Y-1435000D01*
X3835000Y-1405000D02*
X3805000Y-1435000D01*
X3805000Y-2005000D02*
X3835000Y-2035000D01*
X3835000Y-2005000D02*
X3805000Y-2035000D01*
X3805000Y-2605000D02*
X3835000Y-2635000D01*
X3835000Y-2605000D02*
X3805000Y-2635000D01*
X3805000Y-3205000D02*
X3835000Y-3235000D01*
X3835000Y-3205000D02*
X3805000Y-3235000D01*
X3805000Y-3805000D02*
X3835000Y-3835000D01*
X3835000Y-3805000D02*
X3805000Y-3835000D01*
X3805000Y-4405000D02*
X3835000Y-4435000D01*
X3835000Y-4405000D02*
X3805000Y-4435000D01*
X4248300Y-3148190D02*
X4278300Y-3178190D01*
X4278300Y-3148190D02*
X4248300Y-3178190D01*
X4248300Y-4055520D02*
X4278300Y-4085520D01*
X4278300Y-4055520D02*
X4248300Y-4085520D01*
X4291880Y-713180D02*
X4321880Y-743180D01*
X4321880Y-713180D02*
X4291880Y-743180D01*
X4405000Y-205000D02*
X4435000Y-235000D01*
X4435000Y-205000D02*
X4405000Y-235000D01*
X4405000Y-1405000D02*
X4435000Y-1435000D01*
X4435000Y-1405000D02*
X4405000Y-1435000D01*
X4405000Y-2005000D02*
X4435000Y-2035000D01*
X4435000Y-2005000D02*
X4405000Y-2035000D01*
X4405000Y-2605000D02*
X4435000Y-2635000D01*
X4435000Y-2605000D02*
X4405000Y-2635000D01*
X4405000Y-3805000D02*
X4435000Y-3835000D01*
X4435000Y-3805000D02*
X4405000Y-3835000D01*
X4405000Y-4405000D02*
X4435000Y-4435000D01*
X4435000Y-4405000D02*
X4405000Y-4435000D01*
X4428410Y-1868950D02*
X4458410Y-1898950D01*
X4458410Y-1868950D02*
X4428410Y-1898950D01*
X4734418Y-3392370D02*
X4764418Y-3422370D01*
X4764418Y-3392370D02*
X4734418Y-3422370D01*
X4758470Y-4808810D02*
X4788470Y-4838810D01*
X4788470Y-4808810D02*
X4758470Y-4838810D01*
X4782400Y-2577770D02*
X4812400Y-2607770D01*
X4812400Y-2577770D02*
X4782400Y-2607770D01*
X4812490Y-670660D02*
X4842490Y-700660D01*
X4842490Y-670660D02*
X4812490Y-700660D01*
X4836580Y-3148340D02*
X4866580Y-3178340D01*
X4866580Y-3148340D02*
X4836580Y-3178340D01*
X4837720Y-5152260D02*
X4867720Y-5182260D01*
X4867720Y-5152260D02*
X4837720Y-5182260D01*
X5005000Y-205000D02*
X5035000Y-235000D01*
X5035000Y-205000D02*
X5005000Y-235000D01*
X5005000Y-1405000D02*
X5035000Y-1435000D01*
X5035000Y-1405000D02*
X5005000Y-1435000D01*
X5005000Y-2005000D02*
X5035000Y-2035000D01*
X5035000Y-2005000D02*
X5005000Y-2035000D01*
X5005000Y-2605000D02*
X5035000Y-2635000D01*
X5035000Y-2605000D02*
X5005000Y-2635000D01*
X5005000Y-3805000D02*
X5035000Y-3835000D01*
X5035000Y-3805000D02*
X5005000Y-3835000D01*
X5005000Y-4405000D02*
X5035000Y-4435000D01*
X5035000Y-4405000D02*
X5005000Y-4435000D01*
X5053160Y-1081850D02*
X5083160Y-1111850D01*
X5083160Y-1081850D02*
X5053160Y-1111850D01*
X5419890Y-4855520D02*
X5449890Y-4885520D01*
X5449890Y-4855520D02*
X5419890Y-4885520D01*
X5427140Y-796930D02*
X5457140Y-826930D01*
X5457140Y-796930D02*
X5427140Y-826930D01*
X5427140Y-1962930D02*
X5457140Y-1992930D01*
X5457140Y-1962930D02*
X5427140Y-1992930D01*
X5605000Y-205000D02*
X5635000Y-235000D01*
X5635000Y-205000D02*
X5605000Y-235000D01*
X5605000Y-2005000D02*
X5635000Y-2035000D01*
X5635000Y-2005000D02*
X5605000Y-2035000D01*
X5605000Y-2605000D02*
X5635000Y-2635000D01*
X5635000Y-2605000D02*
X5605000Y-2635000D01*
X5605000Y-4405000D02*
X5635000Y-4435000D01*
X5635000Y-4405000D02*
X5605000Y-4435000D01*
X5672320Y-3066090D02*
X5702320Y-3096090D01*
X5702320Y-3066090D02*
X5672320Y-3096090D01*
X5697500Y-3890050D02*
X5727500Y-3920050D01*
X5727500Y-3890050D02*
X5697500Y-3920050D01*
X5819608Y-784880D02*
X5849608Y-814880D01*
X5849608Y-784880D02*
X5819608Y-814880D01*
X5939600Y-4921110D02*
X5969600Y-4951110D01*
X5969600Y-4921110D02*
X5939600Y-4951110D01*
X5989290Y-3722130D02*
X6019290Y-3752130D01*
X6019290Y-3722130D02*
X5989290Y-3752130D01*
X6016560Y-2309450D02*
X6046560Y-2339450D01*
X6046560Y-2309450D02*
X6016560Y-2339450D01*
X6035750Y-1306040D02*
X6065750Y-1336040D01*
X6065750Y-1306040D02*
X6035750Y-1336040D01*
X6095240Y-2995670D02*
X6125240Y-3025670D01*
X6125240Y-2995670D02*
X6095240Y-3025670D01*
X6095240Y-3376570D02*
X6125240Y-3406570D01*
X6125240Y-3376570D02*
X6095240Y-3406570D01*
X6205000Y-205000D02*
X6235000Y-235000D01*
X6235000Y-205000D02*
X6205000Y-235000D01*
X6205000Y-1405000D02*
X6235000Y-1435000D01*
X6235000Y-1405000D02*
X6205000Y-1435000D01*
X6205000Y-2605000D02*
X6235000Y-2635000D01*
X6235000Y-2605000D02*
X6205000Y-2635000D01*
X6205000Y-3205000D02*
X6235000Y-3235000D01*
X6235000Y-3205000D02*
X6205000Y-3235000D01*
X6249840Y-4328780D02*
X6279840Y-4358780D01*
X6279840Y-4328780D02*
X6249840Y-4358780D01*
X6311390Y-5265760D02*
X6341390Y-5295760D01*
X6341390Y-5265760D02*
X6311390Y-5295760D01*
X6371650Y-4330940D02*
X6401650Y-4360940D01*
X6401650Y-4330940D02*
X6371650Y-4360940D01*
X6383100Y-3556800D02*
X6413100Y-3586800D01*
X6413100Y-3556800D02*
X6383100Y-3586800D01*
X6390010Y-4163600D02*
X6420010Y-4193600D01*
X6420010Y-4163600D02*
X6390010Y-4193600D01*
X6407370Y-4937260D02*
X6437370Y-4967260D01*
X6437370Y-4937260D02*
X6407370Y-4967260D01*
X6425860Y-1650400D02*
X6455860Y-1680400D01*
X6455860Y-1650400D02*
X6425860Y-1680400D01*
X6457541Y-4346470D02*
X6487541Y-4376470D01*
X6487541Y-4346470D02*
X6457541Y-4376470D01*
X6525160Y-1387400D02*
X6555160Y-1417400D01*
X6555160Y-1387400D02*
X6525160Y-1417400D01*
X6560520Y-3150640D02*
X6590520Y-3180640D01*
X6590520Y-3150640D02*
X6560520Y-3180640D01*
X6568980Y-3264300D02*
X6598980Y-3294300D01*
X6598980Y-3264300D02*
X6568980Y-3294300D01*
X6605980Y-2829320D02*
X6635980Y-2859320D01*
X6635980Y-2829320D02*
X6605980Y-2859320D01*
X6605980Y-3968150D02*
X6635980Y-3998150D01*
X6635980Y-3968150D02*
X6605980Y-3998150D01*
X6805000Y-205000D02*
X6835000Y-235000D01*
X6835000Y-205000D02*
X6805000Y-235000D01*
X6805000Y-1405000D02*
X6835000Y-1435000D01*
X6835000Y-1405000D02*
X6805000Y-1435000D01*
X6805000Y-2605000D02*
X6835000Y-2635000D01*
X6835000Y-2605000D02*
X6805000Y-2635000D01*
X6805000Y-3805000D02*
X6835000Y-3835000D01*
X6835000Y-3805000D02*
X6805000Y-3835000D01*
X7225170Y-714460D02*
X7255170Y-744460D01*
X7255170Y-714460D02*
X7225170Y-744460D01*
X7402750Y-4808810D02*
X7432750Y-4838810D01*
X7432750Y-4808810D02*
X7402750Y-4838810D01*
X7405000Y-1405000D02*
X7435000Y-1435000D01*
X7435000Y-1405000D02*
X7405000Y-1435000D01*
X7405000Y-2605000D02*
X7435000Y-2635000D01*
X7435000Y-2605000D02*
X7405000Y-2635000D01*
X7405000Y-3805000D02*
X7435000Y-3835000D01*
X7435000Y-3805000D02*
X7405000Y-3835000D01*
X7405260Y-4519300D02*
X7435260Y-4549300D01*
X7435260Y-4519300D02*
X7405260Y-4549300D01*
X7459900Y-4591260D02*
X7489900Y-4621260D01*
X7489900Y-4591260D02*
X7459900Y-4621260D01*
X7601665Y-4705060D02*
X7631665Y-4735060D01*
X7631665Y-4705060D02*
X7601665Y-4735060D01*
X7735000Y-1035000D02*
X7765000Y-1065000D01*
X7765000Y-1035000D02*
X7735000Y-1065000D01*
X7775270Y-4830820D02*
X7805270Y-4860820D01*
X7805270Y-4830820D02*
X7775270Y-4860820D01*
X7801665Y-2329320D02*
X7831665Y-2359320D01*
X7831665Y-2329320D02*
X7801665Y-2359320D01*
X7803200Y-156840D02*
X7833200Y-186840D01*
X7833200Y-156840D02*
X7803200Y-186840D01*
X7822340Y-3672360D02*
X7852340Y-3702360D01*
X7852340Y-3672360D02*
X7822340Y-3702360D01*
X8005000Y-2005000D02*
X8035000Y-2035000D01*
X8035000Y-2005000D02*
X8005000Y-2035000D01*
X8074540Y-417370D02*
X8104540Y-447370D01*
X8104540Y-417370D02*
X8074540Y-447370D01*
X8096520Y-4166590D02*
X8126520Y-4196590D01*
X8126520Y-4166590D02*
X8096520Y-4196590D01*
X8105940Y-5473550D02*
X8135940Y-5503550D01*
X8135940Y-5473550D02*
X8105940Y-5503550D01*
X8156820Y-1601830D02*
X8186820Y-1631830D01*
X8186820Y-1601830D02*
X8156820Y-1631830D01*
X8159120Y-335660D02*
X8189120Y-365660D01*
X8189120Y-335660D02*
X8159120Y-365660D01*
X8185000Y-1035000D02*
X8215000Y-1065000D01*
X8215000Y-1035000D02*
X8185000Y-1065000D01*
X8232710Y-386660D02*
X8262710Y-416660D01*
X8262710Y-386660D02*
X8232710Y-416660D01*
X8234170Y-544510D02*
X8264170Y-574510D01*
X8264170Y-544510D02*
X8234170Y-574510D01*
X8280510Y-3672360D02*
X8310510Y-3702360D01*
X8310510Y-3672360D02*
X8280510Y-3702360D01*
X8290120Y-3932860D02*
X8320120Y-3962860D01*
X8320120Y-3932860D02*
X8290120Y-3962860D01*
X8319220Y-1363250D02*
X8349220Y-1393250D01*
X8349220Y-1363250D02*
X8319220Y-1393250D01*
X8344130Y-2784990D02*
X8374130Y-2814990D01*
X8374130Y-2784990D02*
X8344130Y-2814990D01*
X8344530Y-4590670D02*
X8374530Y-4620670D01*
X8374530Y-4590670D02*
X8344530Y-4620670D01*
X8374240Y-5412100D02*
X8404240Y-5442100D01*
X8404240Y-5412100D02*
X8374240Y-5442100D01*
X8423330Y-4665250D02*
X8453330Y-4695250D01*
X8453330Y-4665250D02*
X8423330Y-4695250D01*
X8477520Y-3932630D02*
X8507520Y-3962630D01*
X8507520Y-3932630D02*
X8477520Y-3962630D01*
X8587830Y-4952960D02*
X8617830Y-4982960D01*
X8617830Y-4952960D02*
X8587830Y-4982960D01*
X8635000Y-1035000D02*
X8665000Y-1065000D01*
X8665000Y-1035000D02*
X8635000Y-1065000D01*
X8678180Y-106000D02*
X8708180Y-136000D01*
X8708180Y-106000D02*
X8678180Y-136000D01*
X8714590Y-1109950D02*
X8744590Y-1139950D01*
X8744590Y-1109950D02*
X8714590Y-1139950D01*
X9205000Y-805000D02*
X9235000Y-835000D01*
X9235000Y-805000D02*
X9205000Y-835000D01*
X9205000Y-1405000D02*
X9235000Y-1435000D01*
X9235000Y-1405000D02*
X9205000Y-1435000D01*
X9258370Y-3080780D02*
X9288370Y-3110780D01*
X9288370Y-3080780D02*
X9258370Y-3110780D01*
X9266260Y-5187500D02*
X9296260Y-5217500D01*
X9296260Y-5187500D02*
X9266260Y-5217500D01*
X9805000Y-805000D02*
X9835000Y-835000D01*
X9835000Y-805000D02*
X9805000Y-835000D01*
X9805000Y-1405000D02*
X9835000Y-1435000D01*
X9835000Y-1405000D02*
X9805000Y-1435000D01*
X9805000Y-2005000D02*
X9835000Y-2035000D01*
X9835000Y-2005000D02*
X9805000Y-2035000D01*
X9805000Y-4405000D02*
X9835000Y-4435000D01*
X9835000Y-4405000D02*
X9805000Y-4435000D01*
X1519500Y-1070000D02*
G75*
G02*
X1489500Y-1070000I-15000J0D01*
G01*
X1489500Y-1070000D02*
G75*
G02*
X1519500Y-1070000I15000J0D01*
G01*
X1519500Y-1200000D02*
G75*
G02*
X1489500Y-1200000I-15000J0D01*
G01*
X1489500Y-1200000D02*
G75*
G02*
X1519500Y-1200000I15000J0D01*
G01*
X1519500Y-1330000D02*
G75*
G02*
X1489500Y-1330000I-15000J0D01*
G01*
X1489500Y-1330000D02*
G75*
G02*
X1519500Y-1330000I15000J0D01*
G01*
X1710500Y-1070000D02*
G75*
G02*
X1680500Y-1070000I-15000J0D01*
G01*
X1680500Y-1070000D02*
G75*
G02*
X1710500Y-1070000I15000J0D01*
G01*
X1710500Y-1200000D02*
G75*
G02*
X1680500Y-1200000I-15000J0D01*
G01*
X1680500Y-1200000D02*
G75*
G02*
X1710500Y-1200000I15000J0D01*
G01*
X1710500Y-1330000D02*
G75*
G02*
X1680500Y-1330000I-15000J0D01*
G01*
X1680500Y-1330000D02*
G75*
G02*
X1710500Y-1330000I15000J0D01*
G01*
X8725000Y-3061000D02*
G75*
G02*
X8695000Y-3061000I-15000J0D01*
G01*
X8695000Y-3061000D02*
G75*
G02*
X8725000Y-3061000I15000J0D01*
G01*
X8725000Y-3201000D02*
G75*
G02*
X8695000Y-3201000I-15000J0D01*
G01*
X8695000Y-3201000D02*
G75*
G02*
X8725000Y-3201000I15000J0D01*
G01*
X8795000Y-2991000D02*
G75*
G02*
X8765000Y-2991000I-15000J0D01*
G01*
X8765000Y-2991000D02*
G75*
G02*
X8795000Y-2991000I15000J0D01*
G01*
X8795000Y-3131000D02*
G75*
G02*
X8765000Y-3131000I-15000J0D01*
G01*
X8765000Y-3131000D02*
G75*
G02*
X8795000Y-3131000I15000J0D01*
G01*
X8795000Y-3271000D02*
G75*
G02*
X8765000Y-3271000I-15000J0D01*
G01*
X8765000Y-3271000D02*
G75*
G02*
X8795000Y-3271000I15000J0D01*
G01*
X8865000Y-3061000D02*
G75*
G02*
X8835000Y-3061000I-15000J0D01*
G01*
X8835000Y-3061000D02*
G75*
G02*
X8865000Y-3061000I15000J0D01*
G01*
X8865000Y-3201000D02*
G75*
G02*
X8835000Y-3201000I-15000J0D01*
G01*
X8835000Y-3201000D02*
G75*
G02*
X8865000Y-3201000I15000J0D01*
G01*
X8935000Y-2991000D02*
G75*
G02*
X8905000Y-2991000I-15000J0D01*
G01*
X8905000Y-2991000D02*
G75*
G02*
X8935000Y-2991000I15000J0D01*
G01*
X8935000Y-3131000D02*
G75*
G02*
X8905000Y-3131000I-15000J0D01*
G01*
X8905000Y-3131000D02*
G75*
G02*
X8935000Y-3131000I15000J0D01*
G01*
X8935000Y-3271000D02*
G75*
G02*
X8905000Y-3271000I-15000J0D01*
G01*
X8905000Y-3271000D02*
G75*
G02*
X8935000Y-3271000I15000J0D01*
G01*
X9005000Y-3061000D02*
G75*
G02*
X8975000Y-3061000I-15000J0D01*
G01*
X8975000Y-3061000D02*
G75*
G02*
X9005000Y-3061000I15000J0D01*
G01*
X9005000Y-3201000D02*
G75*
G02*
X8975000Y-3201000I-15000J0D01*
G01*
X8975000Y-3201000D02*
G75*
G02*
X9005000Y-3201000I15000J0D01*
G01*
X7768000Y-257000D02*
X7768000Y-317000D01*
X7738000Y-287000D02*
X7798000Y-287000D01*
X7738000Y-232000D02*
X7738000Y-342000D01*
X7798000Y-342000D02*
G75*
G02*
X7738000Y-342000I-30000J0D01*
G01*
X7798000Y-342000D02*
X7798000Y-232000D01*
X7798000Y-232000D02*
G75*
G03*
X7738000Y-232000I-30000J0D01*
G01*
X7768000Y-675000D02*
X7768000Y-735000D01*
X7738000Y-705000D02*
X7798000Y-705000D01*
X7738000Y-675000D02*
X7738000Y-735000D01*
X7798000Y-735000D02*
G75*
G02*
X7738000Y-735000I-30000J0D01*
G01*
X7798000Y-735000D02*
X7798000Y-675000D01*
X7798000Y-675000D02*
G75*
G03*
X7738000Y-675000I-30000J0D01*
G01*
X8632000Y-257000D02*
X8632000Y-317000D01*
X8602000Y-287000D02*
X8662000Y-287000D01*
X8602000Y-232000D02*
X8602000Y-342000D01*
X8662000Y-342000D02*
G75*
G02*
X8602000Y-342000I-30000J0D01*
G01*
X8662000Y-342000D02*
X8662000Y-232000D01*
X8662000Y-232000D02*
G75*
G03*
X8602000Y-232000I-30000J0D01*
G01*
X8632000Y-675000D02*
X8632000Y-735000D01*
X8602000Y-705000D02*
X8662000Y-705000D01*
X8602000Y-675000D02*
X8602000Y-735000D01*
X8662000Y-735000D02*
G75*
G02*
X8602000Y-735000I-30000J0D01*
G01*
X8662000Y-735000D02*
X8662000Y-675000D01*
X8662000Y-675000D02*
G75*
G03*
X8602000Y-675000I-30000J0D01*
G01*
D12*
X636063Y-1836063D02*
X636063Y-1763937D01*
X563937Y-1763937D01*
X563937Y-1836063D01*
X636063Y-1836063D01*
X636063Y-3036063D02*
X636063Y-2963937D01*
X563937Y-2963937D01*
X563937Y-3036063D01*
X636063Y-3036063D01*
X936063Y-1836063D02*
X936063Y-1763937D01*
X863937Y-1763937D01*
X863937Y-1836063D01*
X936063Y-1836063D01*
X936063Y-3036063D02*
X936063Y-2963937D01*
X863937Y-2963937D01*
X863937Y-3036063D01*
X936063Y-3036063D01*
X1236063Y-1836063D02*
X1236063Y-1763937D01*
X1163937Y-1763937D01*
X1163937Y-1836063D01*
X1236063Y-1836063D01*
X1236063Y-3036063D02*
X1236063Y-2963937D01*
X1163937Y-2963937D01*
X1163937Y-3036063D01*
X1236063Y-3036063D01*
X1536063Y-1836063D02*
X1536063Y-1763937D01*
X1463937Y-1763937D01*
X1463937Y-1836063D01*
X1536063Y-1836063D01*
X1536063Y-3036063D02*
X1536063Y-2963937D01*
X1463937Y-2963937D01*
X1463937Y-3036063D01*
X1536063Y-3036063D01*
D10*
X7911000Y-372500D02*
X7943500Y-340000D01*
X7911000Y-307500D01*
X7878500Y-340000D01*
X7911000Y-372500D01*
X8489000Y-372500D02*
X8521500Y-340000D01*
X8489000Y-307500D01*
X8456500Y-340000D01*
X8489000Y-372500D01*
D13*
X236500Y-1540500D02*
X363500Y-1667500D01*
X363500Y-1540500D02*
X236500Y-1667500D01*
X363500Y-1604000D02*
G75*
G02*
X236500Y-1604000I-63500J0D01*
G01*
X236500Y-1604000D02*
G75*
G02*
X363500Y-1604000I63500J0D01*
G01*
X236500Y-2740500D02*
X363500Y-2867500D01*
X363500Y-2740500D02*
X236500Y-2867500D01*
X363500Y-2804000D02*
G75*
G02*
X236500Y-2804000I-63500J0D01*
G01*
X236500Y-2804000D02*
G75*
G02*
X363500Y-2804000I63500J0D01*
G01*
X1736500Y-1540500D02*
X1863500Y-1667500D01*
X1863500Y-1540500D02*
X1736500Y-1667500D01*
X1863500Y-1604000D02*
G75*
G02*
X1736500Y-1604000I-63500J0D01*
G01*
X1736500Y-1604000D02*
G75*
G02*
X1863500Y-1604000I63500J0D01*
G01*
X1736500Y-2740500D02*
X1863500Y-2867500D01*
X1863500Y-2740500D02*
X1736500Y-2867500D01*
X1863500Y-2804000D02*
G75*
G02*
X1736500Y-2804000I-63500J0D01*
G01*
X1736500Y-2804000D02*
G75*
G02*
X1863500Y-2804000I63500J0D01*
G01*
D11*
X255777Y-5916484D02*
X255777Y-5716484D01*
X255777Y-5716484D02*
X303396Y-5716484D01*
X303396Y-5716484D02*
X331967Y-5726008D01*
X331967Y-5726008D02*
X351015Y-5745055D01*
X351015Y-5745055D02*
X360539Y-5764103D01*
X360539Y-5764103D02*
X370062Y-5802198D01*
X370062Y-5802198D02*
X370062Y-5830769D01*
X370062Y-5830769D02*
X360539Y-5868865D01*
X360539Y-5868865D02*
X351015Y-5887912D01*
X351015Y-5887912D02*
X331967Y-5906960D01*
X331967Y-5906960D02*
X303396Y-5916484D01*
X303396Y-5916484D02*
X255777Y-5916484D01*
X455777Y-5916484D02*
X455777Y-5783150D01*
X455777Y-5821246D02*
X465301Y-5802198D01*
X465301Y-5802198D02*
X474824Y-5792674D01*
X474824Y-5792674D02*
X493872Y-5783150D01*
X493872Y-5783150D02*
X512920Y-5783150D01*
X579586Y-5916484D02*
X579586Y-5783150D01*
X579586Y-5716484D02*
X570063Y-5726008D01*
X570063Y-5726008D02*
X579586Y-5735531D01*
X579586Y-5735531D02*
X589110Y-5726008D01*
X589110Y-5726008D02*
X579586Y-5716484D01*
X579586Y-5716484D02*
X579586Y-5735531D01*
X703396Y-5916484D02*
X684348Y-5906960D01*
X684348Y-5906960D02*
X674824Y-5887912D01*
X674824Y-5887912D02*
X674824Y-5716484D01*
X808158Y-5916484D02*
X789110Y-5906960D01*
X789110Y-5906960D02*
X779586Y-5887912D01*
X779586Y-5887912D02*
X779586Y-5716484D01*
X1036729Y-5916484D02*
X1036729Y-5716484D01*
X1036729Y-5716484D02*
X1103396Y-5859341D01*
X1103396Y-5859341D02*
X1170063Y-5716484D01*
X1170063Y-5716484D02*
X1170063Y-5916484D01*
X1351015Y-5916484D02*
X1351015Y-5811722D01*
X1351015Y-5811722D02*
X1341491Y-5792674D01*
X1341491Y-5792674D02*
X1322444Y-5783150D01*
X1322444Y-5783150D02*
X1284348Y-5783150D01*
X1284348Y-5783150D02*
X1265301Y-5792674D01*
X1351015Y-5906960D02*
X1331967Y-5916484D01*
X1331967Y-5916484D02*
X1284348Y-5916484D01*
X1284348Y-5916484D02*
X1265301Y-5906960D01*
X1265301Y-5906960D02*
X1255777Y-5887912D01*
X1255777Y-5887912D02*
X1255777Y-5868865D01*
X1255777Y-5868865D02*
X1265301Y-5849817D01*
X1265301Y-5849817D02*
X1284348Y-5840293D01*
X1284348Y-5840293D02*
X1331967Y-5840293D01*
X1331967Y-5840293D02*
X1351015Y-5830769D01*
X1446253Y-5783150D02*
X1446253Y-5983150D01*
X1446253Y-5792674D02*
X1465301Y-5783150D01*
X1465301Y-5783150D02*
X1503396Y-5783150D01*
X1503396Y-5783150D02*
X1522443Y-5792674D01*
X1522443Y-5792674D02*
X1531967Y-5802198D01*
X1531967Y-5802198D02*
X1541491Y-5821246D01*
X1541491Y-5821246D02*
X1541491Y-5878388D01*
X1541491Y-5878388D02*
X1531967Y-5897436D01*
X1531967Y-5897436D02*
X1522443Y-5906960D01*
X1522443Y-5906960D02*
X1503396Y-5916484D01*
X1503396Y-5916484D02*
X1465301Y-5916484D01*
X1465301Y-5916484D02*
X1446253Y-5906960D01*
X1627205Y-5897436D02*
X1636729Y-5906960D01*
X1636729Y-5906960D02*
X1627205Y-5916484D01*
X1627205Y-5916484D02*
X1617682Y-5906960D01*
X1617682Y-5906960D02*
X1627205Y-5897436D01*
X1627205Y-5897436D02*
X1627205Y-5916484D01*
X1627205Y-5792674D02*
X1636729Y-5802198D01*
X1636729Y-5802198D02*
X1627205Y-5811722D01*
X1627205Y-5811722D02*
X1617682Y-5802198D01*
X1617682Y-5802198D02*
X1627205Y-5792674D01*
X1627205Y-5792674D02*
X1627205Y-5811722D01*
D10*
X-35000Y-6230000D02*
X-5000Y-6260000D01*
X-5000Y-6230000D02*
X-35000Y-6260000D01*
D11*
X293872Y-6136484D02*
X312920Y-6136484D01*
X312920Y-6136484D02*
X331967Y-6146008D01*
X331967Y-6146008D02*
X341491Y-6155531D01*
X341491Y-6155531D02*
X351015Y-6174579D01*
X351015Y-6174579D02*
X360539Y-6212674D01*
X360539Y-6212674D02*
X360539Y-6260293D01*
X360539Y-6260293D02*
X351015Y-6298388D01*
X351015Y-6298388D02*
X341491Y-6317436D01*
X341491Y-6317436D02*
X331967Y-6326960D01*
X331967Y-6326960D02*
X312920Y-6336484D01*
X312920Y-6336484D02*
X293872Y-6336484D01*
X293872Y-6336484D02*
X274824Y-6326960D01*
X274824Y-6326960D02*
X265301Y-6317436D01*
X265301Y-6317436D02*
X255777Y-6298388D01*
X255777Y-6298388D02*
X246253Y-6260293D01*
X246253Y-6260293D02*
X246253Y-6212674D01*
X246253Y-6212674D02*
X255777Y-6174579D01*
X255777Y-6174579D02*
X265301Y-6155531D01*
X265301Y-6155531D02*
X274824Y-6146008D01*
X274824Y-6146008D02*
X293872Y-6136484D01*
X446253Y-6317436D02*
X455777Y-6326960D01*
X455777Y-6326960D02*
X446253Y-6336484D01*
X446253Y-6336484D02*
X436729Y-6326960D01*
X436729Y-6326960D02*
X446253Y-6317436D01*
X446253Y-6317436D02*
X446253Y-6336484D01*
X522443Y-6136484D02*
X646253Y-6136484D01*
X646253Y-6136484D02*
X579586Y-6212674D01*
X579586Y-6212674D02*
X608158Y-6212674D01*
X608158Y-6212674D02*
X627205Y-6222198D01*
X627205Y-6222198D02*
X636729Y-6231722D01*
X636729Y-6231722D02*
X646253Y-6250769D01*
X646253Y-6250769D02*
X646253Y-6298388D01*
X646253Y-6298388D02*
X636729Y-6317436D01*
X636729Y-6317436D02*
X627205Y-6326960D01*
X627205Y-6326960D02*
X608158Y-6336484D01*
X608158Y-6336484D02*
X551015Y-6336484D01*
X551015Y-6336484D02*
X531967Y-6326960D01*
X531967Y-6326960D02*
X522443Y-6317436D01*
X770062Y-6136484D02*
X789110Y-6136484D01*
X789110Y-6136484D02*
X808158Y-6146008D01*
X808158Y-6146008D02*
X817682Y-6155531D01*
X817682Y-6155531D02*
X827205Y-6174579D01*
X827205Y-6174579D02*
X836729Y-6212674D01*
X836729Y-6212674D02*
X836729Y-6260293D01*
X836729Y-6260293D02*
X827205Y-6298388D01*
X827205Y-6298388D02*
X817682Y-6317436D01*
X817682Y-6317436D02*
X808158Y-6326960D01*
X808158Y-6326960D02*
X789110Y-6336484D01*
X789110Y-6336484D02*
X770062Y-6336484D01*
X770062Y-6336484D02*
X751015Y-6326960D01*
X751015Y-6326960D02*
X741491Y-6317436D01*
X741491Y-6317436D02*
X731967Y-6298388D01*
X731967Y-6298388D02*
X722443Y-6260293D01*
X722443Y-6260293D02*
X722443Y-6212674D01*
X722443Y-6212674D02*
X731967Y-6174579D01*
X731967Y-6174579D02*
X741491Y-6155531D01*
X741491Y-6155531D02*
X751015Y-6146008D01*
X751015Y-6146008D02*
X770062Y-6136484D01*
X960539Y-6136484D02*
X979586Y-6136484D01*
X979586Y-6136484D02*
X998634Y-6146008D01*
X998634Y-6146008D02*
X1008158Y-6155531D01*
X1008158Y-6155531D02*
X1017682Y-6174579D01*
X1017682Y-6174579D02*
X1027205Y-6212674D01*
X1027205Y-6212674D02*
X1027205Y-6260293D01*
X1027205Y-6260293D02*
X1017682Y-6298388D01*
X1017682Y-6298388D02*
X1008158Y-6317436D01*
X1008158Y-6317436D02*
X998634Y-6326960D01*
X998634Y-6326960D02*
X979586Y-6336484D01*
X979586Y-6336484D02*
X960539Y-6336484D01*
X960539Y-6336484D02*
X941491Y-6326960D01*
X941491Y-6326960D02*
X931967Y-6317436D01*
X931967Y-6317436D02*
X922443Y-6298388D01*
X922443Y-6298388D02*
X912920Y-6260293D01*
X912920Y-6260293D02*
X912920Y-6212674D01*
X912920Y-6212674D02*
X922443Y-6174579D01*
X922443Y-6174579D02*
X931967Y-6155531D01*
X931967Y-6155531D02*
X941491Y-6146008D01*
X941491Y-6146008D02*
X960539Y-6136484D01*
X1112920Y-6336484D02*
X1112920Y-6203150D01*
X1112920Y-6222198D02*
X1122444Y-6212674D01*
X1122444Y-6212674D02*
X1141491Y-6203150D01*
X1141491Y-6203150D02*
X1170063Y-6203150D01*
X1170063Y-6203150D02*
X1189110Y-6212674D01*
X1189110Y-6212674D02*
X1198634Y-6231722D01*
X1198634Y-6231722D02*
X1198634Y-6336484D01*
X1198634Y-6231722D02*
X1208158Y-6212674D01*
X1208158Y-6212674D02*
X1227205Y-6203150D01*
X1227205Y-6203150D02*
X1255777Y-6203150D01*
X1255777Y-6203150D02*
X1274825Y-6212674D01*
X1274825Y-6212674D02*
X1284348Y-6231722D01*
X1284348Y-6231722D02*
X1284348Y-6336484D01*
X1379586Y-6336484D02*
X1379586Y-6203150D01*
X1379586Y-6222198D02*
X1389110Y-6212674D01*
X1389110Y-6212674D02*
X1408158Y-6203150D01*
X1408158Y-6203150D02*
X1436729Y-6203150D01*
X1436729Y-6203150D02*
X1455777Y-6212674D01*
X1455777Y-6212674D02*
X1465301Y-6231722D01*
X1465301Y-6231722D02*
X1465301Y-6336484D01*
X1465301Y-6231722D02*
X1474824Y-6212674D01*
X1474824Y-6212674D02*
X1493872Y-6203150D01*
X1493872Y-6203150D02*
X1522443Y-6203150D01*
X1522443Y-6203150D02*
X1541491Y-6212674D01*
X1541491Y-6212674D02*
X1551015Y-6231722D01*
X1551015Y-6231722D02*
X1551015Y-6336484D01*
X1941491Y-6126960D02*
X1770063Y-6384103D01*
X2198634Y-6136484D02*
X2217682Y-6136484D01*
X2217682Y-6136484D02*
X2236729Y-6146008D01*
X2236729Y-6146008D02*
X2246253Y-6155531D01*
X2246253Y-6155531D02*
X2255777Y-6174579D01*
X2255777Y-6174579D02*
X2265301Y-6212674D01*
X2265301Y-6212674D02*
X2265301Y-6260293D01*
X2265301Y-6260293D02*
X2255777Y-6298388D01*
X2255777Y-6298388D02*
X2246253Y-6317436D01*
X2246253Y-6317436D02*
X2236729Y-6326960D01*
X2236729Y-6326960D02*
X2217682Y-6336484D01*
X2217682Y-6336484D02*
X2198634Y-6336484D01*
X2198634Y-6336484D02*
X2179587Y-6326960D01*
X2179587Y-6326960D02*
X2170063Y-6317436D01*
X2170063Y-6317436D02*
X2160539Y-6298388D01*
X2160539Y-6298388D02*
X2151015Y-6260293D01*
X2151015Y-6260293D02*
X2151015Y-6212674D01*
X2151015Y-6212674D02*
X2160539Y-6174579D01*
X2160539Y-6174579D02*
X2170063Y-6155531D01*
X2170063Y-6155531D02*
X2179587Y-6146008D01*
X2179587Y-6146008D02*
X2198634Y-6136484D01*
X2351015Y-6317436D02*
X2360539Y-6326960D01*
X2360539Y-6326960D02*
X2351015Y-6336484D01*
X2351015Y-6336484D02*
X2341491Y-6326960D01*
X2341491Y-6326960D02*
X2351015Y-6317436D01*
X2351015Y-6317436D02*
X2351015Y-6336484D01*
X2484348Y-6136484D02*
X2503396Y-6136484D01*
X2503396Y-6136484D02*
X2522444Y-6146008D01*
X2522444Y-6146008D02*
X2531968Y-6155531D01*
X2531968Y-6155531D02*
X2541491Y-6174579D01*
X2541491Y-6174579D02*
X2551015Y-6212674D01*
X2551015Y-6212674D02*
X2551015Y-6260293D01*
X2551015Y-6260293D02*
X2541491Y-6298388D01*
X2541491Y-6298388D02*
X2531968Y-6317436D01*
X2531968Y-6317436D02*
X2522444Y-6326960D01*
X2522444Y-6326960D02*
X2503396Y-6336484D01*
X2503396Y-6336484D02*
X2484348Y-6336484D01*
X2484348Y-6336484D02*
X2465301Y-6326960D01*
X2465301Y-6326960D02*
X2455777Y-6317436D01*
X2455777Y-6317436D02*
X2446253Y-6298388D01*
X2446253Y-6298388D02*
X2436729Y-6260293D01*
X2436729Y-6260293D02*
X2436729Y-6212674D01*
X2436729Y-6212674D02*
X2446253Y-6174579D01*
X2446253Y-6174579D02*
X2455777Y-6155531D01*
X2455777Y-6155531D02*
X2465301Y-6146008D01*
X2465301Y-6146008D02*
X2484348Y-6136484D01*
X2741491Y-6336484D02*
X2627206Y-6336484D01*
X2684348Y-6336484D02*
X2684348Y-6136484D01*
X2684348Y-6136484D02*
X2665301Y-6165055D01*
X2665301Y-6165055D02*
X2646253Y-6184103D01*
X2646253Y-6184103D02*
X2627206Y-6193627D01*
X2931967Y-6336484D02*
X2817682Y-6336484D01*
X2874825Y-6336484D02*
X2874825Y-6136484D01*
X2874825Y-6136484D02*
X2855777Y-6165055D01*
X2855777Y-6165055D02*
X2836729Y-6184103D01*
X2836729Y-6184103D02*
X2817682Y-6193627D01*
X3046253Y-6222198D02*
X3027206Y-6212674D01*
X3027206Y-6212674D02*
X3017682Y-6203150D01*
X3017682Y-6203150D02*
X3008158Y-6184103D01*
X3008158Y-6184103D02*
X3008158Y-6174579D01*
X3008158Y-6174579D02*
X3017682Y-6155531D01*
X3017682Y-6155531D02*
X3027206Y-6146008D01*
X3027206Y-6146008D02*
X3046253Y-6136484D01*
X3046253Y-6136484D02*
X3084348Y-6136484D01*
X3084348Y-6136484D02*
X3103396Y-6146008D01*
X3103396Y-6146008D02*
X3112920Y-6155531D01*
X3112920Y-6155531D02*
X3122444Y-6174579D01*
X3122444Y-6174579D02*
X3122444Y-6184103D01*
X3122444Y-6184103D02*
X3112920Y-6203150D01*
X3112920Y-6203150D02*
X3103396Y-6212674D01*
X3103396Y-6212674D02*
X3084348Y-6222198D01*
X3084348Y-6222198D02*
X3046253Y-6222198D01*
X3046253Y-6222198D02*
X3027206Y-6231722D01*
X3027206Y-6231722D02*
X3017682Y-6241246D01*
X3017682Y-6241246D02*
X3008158Y-6260293D01*
X3008158Y-6260293D02*
X3008158Y-6298388D01*
X3008158Y-6298388D02*
X3017682Y-6317436D01*
X3017682Y-6317436D02*
X3027206Y-6326960D01*
X3027206Y-6326960D02*
X3046253Y-6336484D01*
X3046253Y-6336484D02*
X3084348Y-6336484D01*
X3084348Y-6336484D02*
X3103396Y-6326960D01*
X3103396Y-6326960D02*
X3112920Y-6317436D01*
X3112920Y-6317436D02*
X3122444Y-6298388D01*
X3122444Y-6298388D02*
X3122444Y-6260293D01*
X3122444Y-6260293D02*
X3112920Y-6241246D01*
X3112920Y-6241246D02*
X3103396Y-6231722D01*
X3103396Y-6231722D02*
X3084348Y-6222198D01*
X3198634Y-6136484D02*
X3198634Y-6174579D01*
X3274825Y-6136484D02*
X3274825Y-6174579D01*
X3570063Y-6412674D02*
X3560539Y-6403150D01*
X3560539Y-6403150D02*
X3541491Y-6374579D01*
X3541491Y-6374579D02*
X3531968Y-6355531D01*
X3531968Y-6355531D02*
X3522444Y-6326960D01*
X3522444Y-6326960D02*
X3512920Y-6279341D01*
X3512920Y-6279341D02*
X3512920Y-6241246D01*
X3512920Y-6241246D02*
X3522444Y-6193627D01*
X3522444Y-6193627D02*
X3531968Y-6165055D01*
X3531968Y-6165055D02*
X3541491Y-6146008D01*
X3541491Y-6146008D02*
X3560539Y-6117436D01*
X3560539Y-6117436D02*
X3570063Y-6107912D01*
X3751015Y-6336484D02*
X3636729Y-6336484D01*
X3693872Y-6336484D02*
X3693872Y-6136484D01*
X3693872Y-6136484D02*
X3674825Y-6165055D01*
X3674825Y-6165055D02*
X3655777Y-6184103D01*
X3655777Y-6184103D02*
X3636729Y-6193627D01*
X3931968Y-6136484D02*
X3836729Y-6136484D01*
X3836729Y-6136484D02*
X3827206Y-6231722D01*
X3827206Y-6231722D02*
X3836729Y-6222198D01*
X3836729Y-6222198D02*
X3855777Y-6212674D01*
X3855777Y-6212674D02*
X3903396Y-6212674D01*
X3903396Y-6212674D02*
X3922444Y-6222198D01*
X3922444Y-6222198D02*
X3931968Y-6231722D01*
X3931968Y-6231722D02*
X3941491Y-6250769D01*
X3941491Y-6250769D02*
X3941491Y-6298388D01*
X3941491Y-6298388D02*
X3931968Y-6317436D01*
X3931968Y-6317436D02*
X3922444Y-6326960D01*
X3922444Y-6326960D02*
X3903396Y-6336484D01*
X3903396Y-6336484D02*
X3855777Y-6336484D01*
X3855777Y-6336484D02*
X3836729Y-6326960D01*
X3836729Y-6326960D02*
X3827206Y-6317436D01*
X4112920Y-6203150D02*
X4112920Y-6336484D01*
X4065301Y-6126960D02*
X4017682Y-6269817D01*
X4017682Y-6269817D02*
X4141491Y-6269817D01*
X4370063Y-6336484D02*
X4370063Y-6136484D01*
X4455777Y-6336484D02*
X4455777Y-6231722D01*
X4455777Y-6231722D02*
X4446253Y-6212674D01*
X4446253Y-6212674D02*
X4427206Y-6203150D01*
X4427206Y-6203150D02*
X4398634Y-6203150D01*
X4398634Y-6203150D02*
X4379587Y-6212674D01*
X4379587Y-6212674D02*
X4370063Y-6222198D01*
X4579587Y-6336484D02*
X4560539Y-6326960D01*
X4560539Y-6326960D02*
X4551015Y-6317436D01*
X4551015Y-6317436D02*
X4541492Y-6298388D01*
X4541492Y-6298388D02*
X4541492Y-6241246D01*
X4541492Y-6241246D02*
X4551015Y-6222198D01*
X4551015Y-6222198D02*
X4560539Y-6212674D01*
X4560539Y-6212674D02*
X4579587Y-6203150D01*
X4579587Y-6203150D02*
X4608158Y-6203150D01*
X4608158Y-6203150D02*
X4627206Y-6212674D01*
X4627206Y-6212674D02*
X4636730Y-6222198D01*
X4636730Y-6222198D02*
X4646253Y-6241246D01*
X4646253Y-6241246D02*
X4646253Y-6298388D01*
X4646253Y-6298388D02*
X4636730Y-6317436D01*
X4636730Y-6317436D02*
X4627206Y-6326960D01*
X4627206Y-6326960D02*
X4608158Y-6336484D01*
X4608158Y-6336484D02*
X4579587Y-6336484D01*
X4760539Y-6336484D02*
X4741492Y-6326960D01*
X4741492Y-6326960D02*
X4731968Y-6307912D01*
X4731968Y-6307912D02*
X4731968Y-6136484D01*
X4912920Y-6326960D02*
X4893873Y-6336484D01*
X4893873Y-6336484D02*
X4855777Y-6336484D01*
X4855777Y-6336484D02*
X4836730Y-6326960D01*
X4836730Y-6326960D02*
X4827206Y-6307912D01*
X4827206Y-6307912D02*
X4827206Y-6231722D01*
X4827206Y-6231722D02*
X4836730Y-6212674D01*
X4836730Y-6212674D02*
X4855777Y-6203150D01*
X4855777Y-6203150D02*
X4893873Y-6203150D01*
X4893873Y-6203150D02*
X4912920Y-6212674D01*
X4912920Y-6212674D02*
X4922444Y-6231722D01*
X4922444Y-6231722D02*
X4922444Y-6250769D01*
X4922444Y-6250769D02*
X4827206Y-6269817D01*
X4998634Y-6326960D02*
X5017682Y-6336484D01*
X5017682Y-6336484D02*
X5055777Y-6336484D01*
X5055777Y-6336484D02*
X5074825Y-6326960D01*
X5074825Y-6326960D02*
X5084349Y-6307912D01*
X5084349Y-6307912D02*
X5084349Y-6298388D01*
X5084349Y-6298388D02*
X5074825Y-6279341D01*
X5074825Y-6279341D02*
X5055777Y-6269817D01*
X5055777Y-6269817D02*
X5027206Y-6269817D01*
X5027206Y-6269817D02*
X5008158Y-6260293D01*
X5008158Y-6260293D02*
X4998634Y-6241246D01*
X4998634Y-6241246D02*
X4998634Y-6231722D01*
X4998634Y-6231722D02*
X5008158Y-6212674D01*
X5008158Y-6212674D02*
X5027206Y-6203150D01*
X5027206Y-6203150D02*
X5055777Y-6203150D01*
X5055777Y-6203150D02*
X5074825Y-6212674D01*
X5151015Y-6412674D02*
X5160539Y-6403150D01*
X5160539Y-6403150D02*
X5179587Y-6374579D01*
X5179587Y-6374579D02*
X5189111Y-6355531D01*
X5189111Y-6355531D02*
X5198634Y-6326960D01*
X5198634Y-6326960D02*
X5208158Y-6279341D01*
X5208158Y-6279341D02*
X5208158Y-6241246D01*
X5208158Y-6241246D02*
X5198634Y-6193627D01*
X5198634Y-6193627D02*
X5189111Y-6165055D01*
X5189111Y-6165055D02*
X5179587Y-6146008D01*
X5179587Y-6146008D02*
X5160539Y-6117436D01*
X5160539Y-6117436D02*
X5151015Y-6107912D01*
D10*
X-5000Y-6509000D02*
G75*
G02*
X-35000Y-6509000I-15000J0D01*
G01*
X-35000Y-6509000D02*
G75*
G02*
X-5000Y-6509000I15000J0D01*
G01*
D11*
X293872Y-6400484D02*
X312920Y-6400484D01*
X312920Y-6400484D02*
X331967Y-6410008D01*
X331967Y-6410008D02*
X341491Y-6419531D01*
X341491Y-6419531D02*
X351015Y-6438579D01*
X351015Y-6438579D02*
X360539Y-6476674D01*
X360539Y-6476674D02*
X360539Y-6524293D01*
X360539Y-6524293D02*
X351015Y-6562388D01*
X351015Y-6562388D02*
X341491Y-6581436D01*
X341491Y-6581436D02*
X331967Y-6590960D01*
X331967Y-6590960D02*
X312920Y-6600484D01*
X312920Y-6600484D02*
X293872Y-6600484D01*
X293872Y-6600484D02*
X274824Y-6590960D01*
X274824Y-6590960D02*
X265301Y-6581436D01*
X265301Y-6581436D02*
X255777Y-6562388D01*
X255777Y-6562388D02*
X246253Y-6524293D01*
X246253Y-6524293D02*
X246253Y-6476674D01*
X246253Y-6476674D02*
X255777Y-6438579D01*
X255777Y-6438579D02*
X265301Y-6419531D01*
X265301Y-6419531D02*
X274824Y-6410008D01*
X274824Y-6410008D02*
X293872Y-6400484D01*
X446253Y-6581436D02*
X455777Y-6590960D01*
X455777Y-6590960D02*
X446253Y-6600484D01*
X446253Y-6600484D02*
X436729Y-6590960D01*
X436729Y-6590960D02*
X446253Y-6581436D01*
X446253Y-6581436D02*
X446253Y-6600484D01*
X522443Y-6400484D02*
X646253Y-6400484D01*
X646253Y-6400484D02*
X579586Y-6476674D01*
X579586Y-6476674D02*
X608158Y-6476674D01*
X608158Y-6476674D02*
X627205Y-6486198D01*
X627205Y-6486198D02*
X636729Y-6495722D01*
X636729Y-6495722D02*
X646253Y-6514769D01*
X646253Y-6514769D02*
X646253Y-6562388D01*
X646253Y-6562388D02*
X636729Y-6581436D01*
X636729Y-6581436D02*
X627205Y-6590960D01*
X627205Y-6590960D02*
X608158Y-6600484D01*
X608158Y-6600484D02*
X551015Y-6600484D01*
X551015Y-6600484D02*
X531967Y-6590960D01*
X531967Y-6590960D02*
X522443Y-6581436D01*
X770062Y-6400484D02*
X789110Y-6400484D01*
X789110Y-6400484D02*
X808158Y-6410008D01*
X808158Y-6410008D02*
X817682Y-6419531D01*
X817682Y-6419531D02*
X827205Y-6438579D01*
X827205Y-6438579D02*
X836729Y-6476674D01*
X836729Y-6476674D02*
X836729Y-6524293D01*
X836729Y-6524293D02*
X827205Y-6562388D01*
X827205Y-6562388D02*
X817682Y-6581436D01*
X817682Y-6581436D02*
X808158Y-6590960D01*
X808158Y-6590960D02*
X789110Y-6600484D01*
X789110Y-6600484D02*
X770062Y-6600484D01*
X770062Y-6600484D02*
X751015Y-6590960D01*
X751015Y-6590960D02*
X741491Y-6581436D01*
X741491Y-6581436D02*
X731967Y-6562388D01*
X731967Y-6562388D02*
X722443Y-6524293D01*
X722443Y-6524293D02*
X722443Y-6476674D01*
X722443Y-6476674D02*
X731967Y-6438579D01*
X731967Y-6438579D02*
X741491Y-6419531D01*
X741491Y-6419531D02*
X751015Y-6410008D01*
X751015Y-6410008D02*
X770062Y-6400484D01*
X960539Y-6400484D02*
X979586Y-6400484D01*
X979586Y-6400484D02*
X998634Y-6410008D01*
X998634Y-6410008D02*
X1008158Y-6419531D01*
X1008158Y-6419531D02*
X1017682Y-6438579D01*
X1017682Y-6438579D02*
X1027205Y-6476674D01*
X1027205Y-6476674D02*
X1027205Y-6524293D01*
X1027205Y-6524293D02*
X1017682Y-6562388D01*
X1017682Y-6562388D02*
X1008158Y-6581436D01*
X1008158Y-6581436D02*
X998634Y-6590960D01*
X998634Y-6590960D02*
X979586Y-6600484D01*
X979586Y-6600484D02*
X960539Y-6600484D01*
X960539Y-6600484D02*
X941491Y-6590960D01*
X941491Y-6590960D02*
X931967Y-6581436D01*
X931967Y-6581436D02*
X922443Y-6562388D01*
X922443Y-6562388D02*
X912920Y-6524293D01*
X912920Y-6524293D02*
X912920Y-6476674D01*
X912920Y-6476674D02*
X922443Y-6438579D01*
X922443Y-6438579D02*
X931967Y-6419531D01*
X931967Y-6419531D02*
X941491Y-6410008D01*
X941491Y-6410008D02*
X960539Y-6400484D01*
X1112920Y-6600484D02*
X1112920Y-6467150D01*
X1112920Y-6486198D02*
X1122444Y-6476674D01*
X1122444Y-6476674D02*
X1141491Y-6467150D01*
X1141491Y-6467150D02*
X1170063Y-6467150D01*
X1170063Y-6467150D02*
X1189110Y-6476674D01*
X1189110Y-6476674D02*
X1198634Y-6495722D01*
X1198634Y-6495722D02*
X1198634Y-6600484D01*
X1198634Y-6495722D02*
X1208158Y-6476674D01*
X1208158Y-6476674D02*
X1227205Y-6467150D01*
X1227205Y-6467150D02*
X1255777Y-6467150D01*
X1255777Y-6467150D02*
X1274825Y-6476674D01*
X1274825Y-6476674D02*
X1284348Y-6495722D01*
X1284348Y-6495722D02*
X1284348Y-6600484D01*
X1379586Y-6600484D02*
X1379586Y-6467150D01*
X1379586Y-6486198D02*
X1389110Y-6476674D01*
X1389110Y-6476674D02*
X1408158Y-6467150D01*
X1408158Y-6467150D02*
X1436729Y-6467150D01*
X1436729Y-6467150D02*
X1455777Y-6476674D01*
X1455777Y-6476674D02*
X1465301Y-6495722D01*
X1465301Y-6495722D02*
X1465301Y-6600484D01*
X1465301Y-6495722D02*
X1474824Y-6476674D01*
X1474824Y-6476674D02*
X1493872Y-6467150D01*
X1493872Y-6467150D02*
X1522443Y-6467150D01*
X1522443Y-6467150D02*
X1541491Y-6476674D01*
X1541491Y-6476674D02*
X1551015Y-6495722D01*
X1551015Y-6495722D02*
X1551015Y-6600484D01*
X1941491Y-6390960D02*
X1770063Y-6648103D01*
X2198634Y-6400484D02*
X2217682Y-6400484D01*
X2217682Y-6400484D02*
X2236729Y-6410008D01*
X2236729Y-6410008D02*
X2246253Y-6419531D01*
X2246253Y-6419531D02*
X2255777Y-6438579D01*
X2255777Y-6438579D02*
X2265301Y-6476674D01*
X2265301Y-6476674D02*
X2265301Y-6524293D01*
X2265301Y-6524293D02*
X2255777Y-6562388D01*
X2255777Y-6562388D02*
X2246253Y-6581436D01*
X2246253Y-6581436D02*
X2236729Y-6590960D01*
X2236729Y-6590960D02*
X2217682Y-6600484D01*
X2217682Y-6600484D02*
X2198634Y-6600484D01*
X2198634Y-6600484D02*
X2179587Y-6590960D01*
X2179587Y-6590960D02*
X2170063Y-6581436D01*
X2170063Y-6581436D02*
X2160539Y-6562388D01*
X2160539Y-6562388D02*
X2151015Y-6524293D01*
X2151015Y-6524293D02*
X2151015Y-6476674D01*
X2151015Y-6476674D02*
X2160539Y-6438579D01*
X2160539Y-6438579D02*
X2170063Y-6419531D01*
X2170063Y-6419531D02*
X2179587Y-6410008D01*
X2179587Y-6410008D02*
X2198634Y-6400484D01*
X2351015Y-6581436D02*
X2360539Y-6590960D01*
X2360539Y-6590960D02*
X2351015Y-6600484D01*
X2351015Y-6600484D02*
X2341491Y-6590960D01*
X2341491Y-6590960D02*
X2351015Y-6581436D01*
X2351015Y-6581436D02*
X2351015Y-6600484D01*
X2484348Y-6400484D02*
X2503396Y-6400484D01*
X2503396Y-6400484D02*
X2522444Y-6410008D01*
X2522444Y-6410008D02*
X2531968Y-6419531D01*
X2531968Y-6419531D02*
X2541491Y-6438579D01*
X2541491Y-6438579D02*
X2551015Y-6476674D01*
X2551015Y-6476674D02*
X2551015Y-6524293D01*
X2551015Y-6524293D02*
X2541491Y-6562388D01*
X2541491Y-6562388D02*
X2531968Y-6581436D01*
X2531968Y-6581436D02*
X2522444Y-6590960D01*
X2522444Y-6590960D02*
X2503396Y-6600484D01*
X2503396Y-6600484D02*
X2484348Y-6600484D01*
X2484348Y-6600484D02*
X2465301Y-6590960D01*
X2465301Y-6590960D02*
X2455777Y-6581436D01*
X2455777Y-6581436D02*
X2446253Y-6562388D01*
X2446253Y-6562388D02*
X2436729Y-6524293D01*
X2436729Y-6524293D02*
X2436729Y-6476674D01*
X2436729Y-6476674D02*
X2446253Y-6438579D01*
X2446253Y-6438579D02*
X2455777Y-6419531D01*
X2455777Y-6419531D02*
X2465301Y-6410008D01*
X2465301Y-6410008D02*
X2484348Y-6400484D01*
X2741491Y-6600484D02*
X2627206Y-6600484D01*
X2684348Y-6600484D02*
X2684348Y-6400484D01*
X2684348Y-6400484D02*
X2665301Y-6429055D01*
X2665301Y-6429055D02*
X2646253Y-6448103D01*
X2646253Y-6448103D02*
X2627206Y-6457627D01*
X2931967Y-6600484D02*
X2817682Y-6600484D01*
X2874825Y-6600484D02*
X2874825Y-6400484D01*
X2874825Y-6400484D02*
X2855777Y-6429055D01*
X2855777Y-6429055D02*
X2836729Y-6448103D01*
X2836729Y-6448103D02*
X2817682Y-6457627D01*
X3046253Y-6486198D02*
X3027206Y-6476674D01*
X3027206Y-6476674D02*
X3017682Y-6467150D01*
X3017682Y-6467150D02*
X3008158Y-6448103D01*
X3008158Y-6448103D02*
X3008158Y-6438579D01*
X3008158Y-6438579D02*
X3017682Y-6419531D01*
X3017682Y-6419531D02*
X3027206Y-6410008D01*
X3027206Y-6410008D02*
X3046253Y-6400484D01*
X3046253Y-6400484D02*
X3084348Y-6400484D01*
X3084348Y-6400484D02*
X3103396Y-6410008D01*
X3103396Y-6410008D02*
X3112920Y-6419531D01*
X3112920Y-6419531D02*
X3122444Y-6438579D01*
X3122444Y-6438579D02*
X3122444Y-6448103D01*
X3122444Y-6448103D02*
X3112920Y-6467150D01*
X3112920Y-6467150D02*
X3103396Y-6476674D01*
X3103396Y-6476674D02*
X3084348Y-6486198D01*
X3084348Y-6486198D02*
X3046253Y-6486198D01*
X3046253Y-6486198D02*
X3027206Y-6495722D01*
X3027206Y-6495722D02*
X3017682Y-6505246D01*
X3017682Y-6505246D02*
X3008158Y-6524293D01*
X3008158Y-6524293D02*
X3008158Y-6562388D01*
X3008158Y-6562388D02*
X3017682Y-6581436D01*
X3017682Y-6581436D02*
X3027206Y-6590960D01*
X3027206Y-6590960D02*
X3046253Y-6600484D01*
X3046253Y-6600484D02*
X3084348Y-6600484D01*
X3084348Y-6600484D02*
X3103396Y-6590960D01*
X3103396Y-6590960D02*
X3112920Y-6581436D01*
X3112920Y-6581436D02*
X3122444Y-6562388D01*
X3122444Y-6562388D02*
X3122444Y-6524293D01*
X3122444Y-6524293D02*
X3112920Y-6505246D01*
X3112920Y-6505246D02*
X3103396Y-6495722D01*
X3103396Y-6495722D02*
X3084348Y-6486198D01*
X3198634Y-6400484D02*
X3198634Y-6438579D01*
X3274825Y-6400484D02*
X3274825Y-6438579D01*
X3570063Y-6676674D02*
X3560539Y-6667150D01*
X3560539Y-6667150D02*
X3541491Y-6638579D01*
X3541491Y-6638579D02*
X3531968Y-6619531D01*
X3531968Y-6619531D02*
X3522444Y-6590960D01*
X3522444Y-6590960D02*
X3512920Y-6543341D01*
X3512920Y-6543341D02*
X3512920Y-6505246D01*
X3512920Y-6505246D02*
X3522444Y-6457627D01*
X3522444Y-6457627D02*
X3531968Y-6429055D01*
X3531968Y-6429055D02*
X3541491Y-6410008D01*
X3541491Y-6410008D02*
X3560539Y-6381436D01*
X3560539Y-6381436D02*
X3570063Y-6371912D01*
X3751015Y-6600484D02*
X3636729Y-6600484D01*
X3693872Y-6600484D02*
X3693872Y-6400484D01*
X3693872Y-6400484D02*
X3674825Y-6429055D01*
X3674825Y-6429055D02*
X3655777Y-6448103D01*
X3655777Y-6448103D02*
X3636729Y-6457627D01*
X3865301Y-6486198D02*
X3846253Y-6476674D01*
X3846253Y-6476674D02*
X3836729Y-6467150D01*
X3836729Y-6467150D02*
X3827206Y-6448103D01*
X3827206Y-6448103D02*
X3827206Y-6438579D01*
X3827206Y-6438579D02*
X3836729Y-6419531D01*
X3836729Y-6419531D02*
X3846253Y-6410008D01*
X3846253Y-6410008D02*
X3865301Y-6400484D01*
X3865301Y-6400484D02*
X3903396Y-6400484D01*
X3903396Y-6400484D02*
X3922444Y-6410008D01*
X3922444Y-6410008D02*
X3931968Y-6419531D01*
X3931968Y-6419531D02*
X3941491Y-6438579D01*
X3941491Y-6438579D02*
X3941491Y-6448103D01*
X3941491Y-6448103D02*
X3931968Y-6467150D01*
X3931968Y-6467150D02*
X3922444Y-6476674D01*
X3922444Y-6476674D02*
X3903396Y-6486198D01*
X3903396Y-6486198D02*
X3865301Y-6486198D01*
X3865301Y-6486198D02*
X3846253Y-6495722D01*
X3846253Y-6495722D02*
X3836729Y-6505246D01*
X3836729Y-6505246D02*
X3827206Y-6524293D01*
X3827206Y-6524293D02*
X3827206Y-6562388D01*
X3827206Y-6562388D02*
X3836729Y-6581436D01*
X3836729Y-6581436D02*
X3846253Y-6590960D01*
X3846253Y-6590960D02*
X3865301Y-6600484D01*
X3865301Y-6600484D02*
X3903396Y-6600484D01*
X3903396Y-6600484D02*
X3922444Y-6590960D01*
X3922444Y-6590960D02*
X3931968Y-6581436D01*
X3931968Y-6581436D02*
X3941491Y-6562388D01*
X3941491Y-6562388D02*
X3941491Y-6524293D01*
X3941491Y-6524293D02*
X3931968Y-6505246D01*
X3931968Y-6505246D02*
X3922444Y-6495722D01*
X3922444Y-6495722D02*
X3903396Y-6486198D01*
X4179587Y-6600484D02*
X4179587Y-6400484D01*
X4265301Y-6600484D02*
X4265301Y-6495722D01*
X4265301Y-6495722D02*
X4255777Y-6476674D01*
X4255777Y-6476674D02*
X4236730Y-6467150D01*
X4236730Y-6467150D02*
X4208158Y-6467150D01*
X4208158Y-6467150D02*
X4189110Y-6476674D01*
X4189110Y-6476674D02*
X4179587Y-6486198D01*
X4389111Y-6600484D02*
X4370063Y-6590960D01*
X4370063Y-6590960D02*
X4360539Y-6581436D01*
X4360539Y-6581436D02*
X4351015Y-6562388D01*
X4351015Y-6562388D02*
X4351015Y-6505246D01*
X4351015Y-6505246D02*
X4360539Y-6486198D01*
X4360539Y-6486198D02*
X4370063Y-6476674D01*
X4370063Y-6476674D02*
X4389111Y-6467150D01*
X4389111Y-6467150D02*
X4417682Y-6467150D01*
X4417682Y-6467150D02*
X4436730Y-6476674D01*
X4436730Y-6476674D02*
X4446253Y-6486198D01*
X4446253Y-6486198D02*
X4455777Y-6505246D01*
X4455777Y-6505246D02*
X4455777Y-6562388D01*
X4455777Y-6562388D02*
X4446253Y-6581436D01*
X4446253Y-6581436D02*
X4436730Y-6590960D01*
X4436730Y-6590960D02*
X4417682Y-6600484D01*
X4417682Y-6600484D02*
X4389111Y-6600484D01*
X4570063Y-6600484D02*
X4551015Y-6590960D01*
X4551015Y-6590960D02*
X4541492Y-6571912D01*
X4541492Y-6571912D02*
X4541492Y-6400484D01*
X4722444Y-6590960D02*
X4703396Y-6600484D01*
X4703396Y-6600484D02*
X4665301Y-6600484D01*
X4665301Y-6600484D02*
X4646253Y-6590960D01*
X4646253Y-6590960D02*
X4636730Y-6571912D01*
X4636730Y-6571912D02*
X4636730Y-6495722D01*
X4636730Y-6495722D02*
X4646253Y-6476674D01*
X4646253Y-6476674D02*
X4665301Y-6467150D01*
X4665301Y-6467150D02*
X4703396Y-6467150D01*
X4703396Y-6467150D02*
X4722444Y-6476674D01*
X4722444Y-6476674D02*
X4731968Y-6495722D01*
X4731968Y-6495722D02*
X4731968Y-6514769D01*
X4731968Y-6514769D02*
X4636730Y-6533817D01*
X4808158Y-6590960D02*
X4827206Y-6600484D01*
X4827206Y-6600484D02*
X4865301Y-6600484D01*
X4865301Y-6600484D02*
X4884349Y-6590960D01*
X4884349Y-6590960D02*
X4893873Y-6571912D01*
X4893873Y-6571912D02*
X4893873Y-6562388D01*
X4893873Y-6562388D02*
X4884349Y-6543341D01*
X4884349Y-6543341D02*
X4865301Y-6533817D01*
X4865301Y-6533817D02*
X4836730Y-6533817D01*
X4836730Y-6533817D02*
X4817682Y-6524293D01*
X4817682Y-6524293D02*
X4808158Y-6505246D01*
X4808158Y-6505246D02*
X4808158Y-6495722D01*
X4808158Y-6495722D02*
X4817682Y-6476674D01*
X4817682Y-6476674D02*
X4836730Y-6467150D01*
X4836730Y-6467150D02*
X4865301Y-6467150D01*
X4865301Y-6467150D02*
X4884349Y-6476674D01*
X4960539Y-6676674D02*
X4970063Y-6667150D01*
X4970063Y-6667150D02*
X4989111Y-6638579D01*
X4989111Y-6638579D02*
X4998634Y-6619531D01*
X4998634Y-6619531D02*
X5008158Y-6590960D01*
X5008158Y-6590960D02*
X5017682Y-6543341D01*
X5017682Y-6543341D02*
X5017682Y-6505246D01*
X5017682Y-6505246D02*
X5008158Y-6457627D01*
X5008158Y-6457627D02*
X4998634Y-6429055D01*
X4998634Y-6429055D02*
X4989111Y-6410008D01*
X4989111Y-6410008D02*
X4970063Y-6381436D01*
X4970063Y-6381436D02*
X4960539Y-6371912D01*
D10*
X-35000Y-6743000D02*
X-35000Y-6803000D01*
X-65000Y-6773000D02*
X-5000Y-6773000D01*
D11*
X293872Y-6664484D02*
X312920Y-6664484D01*
X312920Y-6664484D02*
X331967Y-6674008D01*
X331967Y-6674008D02*
X341491Y-6683531D01*
X341491Y-6683531D02*
X351015Y-6702579D01*
X351015Y-6702579D02*
X360539Y-6740674D01*
X360539Y-6740674D02*
X360539Y-6788293D01*
X360539Y-6788293D02*
X351015Y-6826388D01*
X351015Y-6826388D02*
X341491Y-6845436D01*
X341491Y-6845436D02*
X331967Y-6854960D01*
X331967Y-6854960D02*
X312920Y-6864484D01*
X312920Y-6864484D02*
X293872Y-6864484D01*
X293872Y-6864484D02*
X274824Y-6854960D01*
X274824Y-6854960D02*
X265301Y-6845436D01*
X265301Y-6845436D02*
X255777Y-6826388D01*
X255777Y-6826388D02*
X246253Y-6788293D01*
X246253Y-6788293D02*
X246253Y-6740674D01*
X246253Y-6740674D02*
X255777Y-6702579D01*
X255777Y-6702579D02*
X265301Y-6683531D01*
X265301Y-6683531D02*
X274824Y-6674008D01*
X274824Y-6674008D02*
X293872Y-6664484D01*
X446253Y-6845436D02*
X455777Y-6854960D01*
X455777Y-6854960D02*
X446253Y-6864484D01*
X446253Y-6864484D02*
X436729Y-6854960D01*
X436729Y-6854960D02*
X446253Y-6845436D01*
X446253Y-6845436D02*
X446253Y-6864484D01*
X627205Y-6664484D02*
X589110Y-6664484D01*
X589110Y-6664484D02*
X570063Y-6674008D01*
X570063Y-6674008D02*
X560539Y-6683531D01*
X560539Y-6683531D02*
X541491Y-6712103D01*
X541491Y-6712103D02*
X531967Y-6750198D01*
X531967Y-6750198D02*
X531967Y-6826388D01*
X531967Y-6826388D02*
X541491Y-6845436D01*
X541491Y-6845436D02*
X551015Y-6854960D01*
X551015Y-6854960D02*
X570063Y-6864484D01*
X570063Y-6864484D02*
X608158Y-6864484D01*
X608158Y-6864484D02*
X627205Y-6854960D01*
X627205Y-6854960D02*
X636729Y-6845436D01*
X636729Y-6845436D02*
X646253Y-6826388D01*
X646253Y-6826388D02*
X646253Y-6778769D01*
X646253Y-6778769D02*
X636729Y-6759722D01*
X636729Y-6759722D02*
X627205Y-6750198D01*
X627205Y-6750198D02*
X608158Y-6740674D01*
X608158Y-6740674D02*
X570063Y-6740674D01*
X570063Y-6740674D02*
X551015Y-6750198D01*
X551015Y-6750198D02*
X541491Y-6759722D01*
X541491Y-6759722D02*
X531967Y-6778769D01*
X770062Y-6664484D02*
X789110Y-6664484D01*
X789110Y-6664484D02*
X808158Y-6674008D01*
X808158Y-6674008D02*
X817682Y-6683531D01*
X817682Y-6683531D02*
X827205Y-6702579D01*
X827205Y-6702579D02*
X836729Y-6740674D01*
X836729Y-6740674D02*
X836729Y-6788293D01*
X836729Y-6788293D02*
X827205Y-6826388D01*
X827205Y-6826388D02*
X817682Y-6845436D01*
X817682Y-6845436D02*
X808158Y-6854960D01*
X808158Y-6854960D02*
X789110Y-6864484D01*
X789110Y-6864484D02*
X770062Y-6864484D01*
X770062Y-6864484D02*
X751015Y-6854960D01*
X751015Y-6854960D02*
X741491Y-6845436D01*
X741491Y-6845436D02*
X731967Y-6826388D01*
X731967Y-6826388D02*
X722443Y-6788293D01*
X722443Y-6788293D02*
X722443Y-6740674D01*
X722443Y-6740674D02*
X731967Y-6702579D01*
X731967Y-6702579D02*
X741491Y-6683531D01*
X741491Y-6683531D02*
X751015Y-6674008D01*
X751015Y-6674008D02*
X770062Y-6664484D01*
X960539Y-6664484D02*
X979586Y-6664484D01*
X979586Y-6664484D02*
X998634Y-6674008D01*
X998634Y-6674008D02*
X1008158Y-6683531D01*
X1008158Y-6683531D02*
X1017682Y-6702579D01*
X1017682Y-6702579D02*
X1027205Y-6740674D01*
X1027205Y-6740674D02*
X1027205Y-6788293D01*
X1027205Y-6788293D02*
X1017682Y-6826388D01*
X1017682Y-6826388D02*
X1008158Y-6845436D01*
X1008158Y-6845436D02*
X998634Y-6854960D01*
X998634Y-6854960D02*
X979586Y-6864484D01*
X979586Y-6864484D02*
X960539Y-6864484D01*
X960539Y-6864484D02*
X941491Y-6854960D01*
X941491Y-6854960D02*
X931967Y-6845436D01*
X931967Y-6845436D02*
X922443Y-6826388D01*
X922443Y-6826388D02*
X912920Y-6788293D01*
X912920Y-6788293D02*
X912920Y-6740674D01*
X912920Y-6740674D02*
X922443Y-6702579D01*
X922443Y-6702579D02*
X931967Y-6683531D01*
X931967Y-6683531D02*
X941491Y-6674008D01*
X941491Y-6674008D02*
X960539Y-6664484D01*
X1112920Y-6864484D02*
X1112920Y-6731150D01*
X1112920Y-6750198D02*
X1122444Y-6740674D01*
X1122444Y-6740674D02*
X1141491Y-6731150D01*
X1141491Y-6731150D02*
X1170063Y-6731150D01*
X1170063Y-6731150D02*
X1189110Y-6740674D01*
X1189110Y-6740674D02*
X1198634Y-6759722D01*
X1198634Y-6759722D02*
X1198634Y-6864484D01*
X1198634Y-6759722D02*
X1208158Y-6740674D01*
X1208158Y-6740674D02*
X1227205Y-6731150D01*
X1227205Y-6731150D02*
X1255777Y-6731150D01*
X1255777Y-6731150D02*
X1274825Y-6740674D01*
X1274825Y-6740674D02*
X1284348Y-6759722D01*
X1284348Y-6759722D02*
X1284348Y-6864484D01*
X1379586Y-6864484D02*
X1379586Y-6731150D01*
X1379586Y-6750198D02*
X1389110Y-6740674D01*
X1389110Y-6740674D02*
X1408158Y-6731150D01*
X1408158Y-6731150D02*
X1436729Y-6731150D01*
X1436729Y-6731150D02*
X1455777Y-6740674D01*
X1455777Y-6740674D02*
X1465301Y-6759722D01*
X1465301Y-6759722D02*
X1465301Y-6864484D01*
X1465301Y-6759722D02*
X1474824Y-6740674D01*
X1474824Y-6740674D02*
X1493872Y-6731150D01*
X1493872Y-6731150D02*
X1522443Y-6731150D01*
X1522443Y-6731150D02*
X1541491Y-6740674D01*
X1541491Y-6740674D02*
X1551015Y-6759722D01*
X1551015Y-6759722D02*
X1551015Y-6864484D01*
X1941491Y-6654960D02*
X1770063Y-6912103D01*
X2198634Y-6664484D02*
X2217682Y-6664484D01*
X2217682Y-6664484D02*
X2236729Y-6674008D01*
X2236729Y-6674008D02*
X2246253Y-6683531D01*
X2246253Y-6683531D02*
X2255777Y-6702579D01*
X2255777Y-6702579D02*
X2265301Y-6740674D01*
X2265301Y-6740674D02*
X2265301Y-6788293D01*
X2265301Y-6788293D02*
X2255777Y-6826388D01*
X2255777Y-6826388D02*
X2246253Y-6845436D01*
X2246253Y-6845436D02*
X2236729Y-6854960D01*
X2236729Y-6854960D02*
X2217682Y-6864484D01*
X2217682Y-6864484D02*
X2198634Y-6864484D01*
X2198634Y-6864484D02*
X2179587Y-6854960D01*
X2179587Y-6854960D02*
X2170063Y-6845436D01*
X2170063Y-6845436D02*
X2160539Y-6826388D01*
X2160539Y-6826388D02*
X2151015Y-6788293D01*
X2151015Y-6788293D02*
X2151015Y-6740674D01*
X2151015Y-6740674D02*
X2160539Y-6702579D01*
X2160539Y-6702579D02*
X2170063Y-6683531D01*
X2170063Y-6683531D02*
X2179587Y-6674008D01*
X2179587Y-6674008D02*
X2198634Y-6664484D01*
X2351015Y-6845436D02*
X2360539Y-6854960D01*
X2360539Y-6854960D02*
X2351015Y-6864484D01*
X2351015Y-6864484D02*
X2341491Y-6854960D01*
X2341491Y-6854960D02*
X2351015Y-6845436D01*
X2351015Y-6845436D02*
X2351015Y-6864484D01*
X2484348Y-6664484D02*
X2503396Y-6664484D01*
X2503396Y-6664484D02*
X2522444Y-6674008D01*
X2522444Y-6674008D02*
X2531968Y-6683531D01*
X2531968Y-6683531D02*
X2541491Y-6702579D01*
X2541491Y-6702579D02*
X2551015Y-6740674D01*
X2551015Y-6740674D02*
X2551015Y-6788293D01*
X2551015Y-6788293D02*
X2541491Y-6826388D01*
X2541491Y-6826388D02*
X2531968Y-6845436D01*
X2531968Y-6845436D02*
X2522444Y-6854960D01*
X2522444Y-6854960D02*
X2503396Y-6864484D01*
X2503396Y-6864484D02*
X2484348Y-6864484D01*
X2484348Y-6864484D02*
X2465301Y-6854960D01*
X2465301Y-6854960D02*
X2455777Y-6845436D01*
X2455777Y-6845436D02*
X2446253Y-6826388D01*
X2446253Y-6826388D02*
X2436729Y-6788293D01*
X2436729Y-6788293D02*
X2436729Y-6740674D01*
X2436729Y-6740674D02*
X2446253Y-6702579D01*
X2446253Y-6702579D02*
X2455777Y-6683531D01*
X2455777Y-6683531D02*
X2465301Y-6674008D01*
X2465301Y-6674008D02*
X2484348Y-6664484D01*
X2627206Y-6683531D02*
X2636729Y-6674008D01*
X2636729Y-6674008D02*
X2655777Y-6664484D01*
X2655777Y-6664484D02*
X2703396Y-6664484D01*
X2703396Y-6664484D02*
X2722444Y-6674008D01*
X2722444Y-6674008D02*
X2731968Y-6683531D01*
X2731968Y-6683531D02*
X2741491Y-6702579D01*
X2741491Y-6702579D02*
X2741491Y-6721627D01*
X2741491Y-6721627D02*
X2731968Y-6750198D01*
X2731968Y-6750198D02*
X2617682Y-6864484D01*
X2617682Y-6864484D02*
X2741491Y-6864484D01*
X2808158Y-6664484D02*
X2931967Y-6664484D01*
X2931967Y-6664484D02*
X2865301Y-6740674D01*
X2865301Y-6740674D02*
X2893872Y-6740674D01*
X2893872Y-6740674D02*
X2912920Y-6750198D01*
X2912920Y-6750198D02*
X2922444Y-6759722D01*
X2922444Y-6759722D02*
X2931967Y-6778769D01*
X2931967Y-6778769D02*
X2931967Y-6826388D01*
X2931967Y-6826388D02*
X2922444Y-6845436D01*
X2922444Y-6845436D02*
X2912920Y-6854960D01*
X2912920Y-6854960D02*
X2893872Y-6864484D01*
X2893872Y-6864484D02*
X2836729Y-6864484D01*
X2836729Y-6864484D02*
X2817682Y-6854960D01*
X2817682Y-6854960D02*
X2808158Y-6845436D01*
X3103396Y-6664484D02*
X3065301Y-6664484D01*
X3065301Y-6664484D02*
X3046253Y-6674008D01*
X3046253Y-6674008D02*
X3036729Y-6683531D01*
X3036729Y-6683531D02*
X3017682Y-6712103D01*
X3017682Y-6712103D02*
X3008158Y-6750198D01*
X3008158Y-6750198D02*
X3008158Y-6826388D01*
X3008158Y-6826388D02*
X3017682Y-6845436D01*
X3017682Y-6845436D02*
X3027206Y-6854960D01*
X3027206Y-6854960D02*
X3046253Y-6864484D01*
X3046253Y-6864484D02*
X3084348Y-6864484D01*
X3084348Y-6864484D02*
X3103396Y-6854960D01*
X3103396Y-6854960D02*
X3112920Y-6845436D01*
X3112920Y-6845436D02*
X3122444Y-6826388D01*
X3122444Y-6826388D02*
X3122444Y-6778769D01*
X3122444Y-6778769D02*
X3112920Y-6759722D01*
X3112920Y-6759722D02*
X3103396Y-6750198D01*
X3103396Y-6750198D02*
X3084348Y-6740674D01*
X3084348Y-6740674D02*
X3046253Y-6740674D01*
X3046253Y-6740674D02*
X3027206Y-6750198D01*
X3027206Y-6750198D02*
X3017682Y-6759722D01*
X3017682Y-6759722D02*
X3008158Y-6778769D01*
X3198634Y-6664484D02*
X3198634Y-6702579D01*
X3274825Y-6664484D02*
X3274825Y-6702579D01*
X3570063Y-6940674D02*
X3560539Y-6931150D01*
X3560539Y-6931150D02*
X3541491Y-6902579D01*
X3541491Y-6902579D02*
X3531968Y-6883531D01*
X3531968Y-6883531D02*
X3522444Y-6854960D01*
X3522444Y-6854960D02*
X3512920Y-6807341D01*
X3512920Y-6807341D02*
X3512920Y-6769246D01*
X3512920Y-6769246D02*
X3522444Y-6721627D01*
X3522444Y-6721627D02*
X3531968Y-6693055D01*
X3531968Y-6693055D02*
X3541491Y-6674008D01*
X3541491Y-6674008D02*
X3560539Y-6645436D01*
X3560539Y-6645436D02*
X3570063Y-6635912D01*
X3684348Y-6664484D02*
X3703396Y-6664484D01*
X3703396Y-6664484D02*
X3722444Y-6674008D01*
X3722444Y-6674008D02*
X3731968Y-6683531D01*
X3731968Y-6683531D02*
X3741491Y-6702579D01*
X3741491Y-6702579D02*
X3751015Y-6740674D01*
X3751015Y-6740674D02*
X3751015Y-6788293D01*
X3751015Y-6788293D02*
X3741491Y-6826388D01*
X3741491Y-6826388D02*
X3731968Y-6845436D01*
X3731968Y-6845436D02*
X3722444Y-6854960D01*
X3722444Y-6854960D02*
X3703396Y-6864484D01*
X3703396Y-6864484D02*
X3684348Y-6864484D01*
X3684348Y-6864484D02*
X3665301Y-6854960D01*
X3665301Y-6854960D02*
X3655777Y-6845436D01*
X3655777Y-6845436D02*
X3646253Y-6826388D01*
X3646253Y-6826388D02*
X3636729Y-6788293D01*
X3636729Y-6788293D02*
X3636729Y-6740674D01*
X3636729Y-6740674D02*
X3646253Y-6702579D01*
X3646253Y-6702579D02*
X3655777Y-6683531D01*
X3655777Y-6683531D02*
X3665301Y-6674008D01*
X3665301Y-6674008D02*
X3684348Y-6664484D01*
X3989110Y-6864484D02*
X3989110Y-6664484D01*
X4074825Y-6864484D02*
X4074825Y-6759722D01*
X4074825Y-6759722D02*
X4065301Y-6740674D01*
X4065301Y-6740674D02*
X4046253Y-6731150D01*
X4046253Y-6731150D02*
X4017682Y-6731150D01*
X4017682Y-6731150D02*
X3998634Y-6740674D01*
X3998634Y-6740674D02*
X3989110Y-6750198D01*
X4198634Y-6864484D02*
X4179587Y-6854960D01*
X4179587Y-6854960D02*
X4170063Y-6845436D01*
X4170063Y-6845436D02*
X4160539Y-6826388D01*
X4160539Y-6826388D02*
X4160539Y-6769246D01*
X4160539Y-6769246D02*
X4170063Y-6750198D01*
X4170063Y-6750198D02*
X4179587Y-6740674D01*
X4179587Y-6740674D02*
X4198634Y-6731150D01*
X4198634Y-6731150D02*
X4227206Y-6731150D01*
X4227206Y-6731150D02*
X4246253Y-6740674D01*
X4246253Y-6740674D02*
X4255777Y-6750198D01*
X4255777Y-6750198D02*
X4265301Y-6769246D01*
X4265301Y-6769246D02*
X4265301Y-6826388D01*
X4265301Y-6826388D02*
X4255777Y-6845436D01*
X4255777Y-6845436D02*
X4246253Y-6854960D01*
X4246253Y-6854960D02*
X4227206Y-6864484D01*
X4227206Y-6864484D02*
X4198634Y-6864484D01*
X4379587Y-6864484D02*
X4360539Y-6854960D01*
X4360539Y-6854960D02*
X4351015Y-6835912D01*
X4351015Y-6835912D02*
X4351015Y-6664484D01*
X4531968Y-6854960D02*
X4512920Y-6864484D01*
X4512920Y-6864484D02*
X4474825Y-6864484D01*
X4474825Y-6864484D02*
X4455777Y-6854960D01*
X4455777Y-6854960D02*
X4446253Y-6835912D01*
X4446253Y-6835912D02*
X4446253Y-6759722D01*
X4446253Y-6759722D02*
X4455777Y-6740674D01*
X4455777Y-6740674D02*
X4474825Y-6731150D01*
X4474825Y-6731150D02*
X4512920Y-6731150D01*
X4512920Y-6731150D02*
X4531968Y-6740674D01*
X4531968Y-6740674D02*
X4541492Y-6759722D01*
X4541492Y-6759722D02*
X4541492Y-6778769D01*
X4541492Y-6778769D02*
X4446253Y-6797817D01*
X4617682Y-6854960D02*
X4636730Y-6864484D01*
X4636730Y-6864484D02*
X4674825Y-6864484D01*
X4674825Y-6864484D02*
X4693873Y-6854960D01*
X4693873Y-6854960D02*
X4703396Y-6835912D01*
X4703396Y-6835912D02*
X4703396Y-6826388D01*
X4703396Y-6826388D02*
X4693873Y-6807341D01*
X4693873Y-6807341D02*
X4674825Y-6797817D01*
X4674825Y-6797817D02*
X4646253Y-6797817D01*
X4646253Y-6797817D02*
X4627206Y-6788293D01*
X4627206Y-6788293D02*
X4617682Y-6769246D01*
X4617682Y-6769246D02*
X4617682Y-6759722D01*
X4617682Y-6759722D02*
X4627206Y-6740674D01*
X4627206Y-6740674D02*
X4646253Y-6731150D01*
X4646253Y-6731150D02*
X4674825Y-6731150D01*
X4674825Y-6731150D02*
X4693873Y-6740674D01*
X4941492Y-6788293D02*
X5093873Y-6788293D01*
X5017682Y-6864484D02*
X5017682Y-6712103D01*
X5427206Y-6731150D02*
X5427206Y-6864484D01*
X5379587Y-6654960D02*
X5331968Y-6797817D01*
X5331968Y-6797817D02*
X5455777Y-6797817D01*
X5674825Y-6854960D02*
X5693873Y-6864484D01*
X5693873Y-6864484D02*
X5731968Y-6864484D01*
X5731968Y-6864484D02*
X5751015Y-6854960D01*
X5751015Y-6854960D02*
X5760539Y-6835912D01*
X5760539Y-6835912D02*
X5760539Y-6826388D01*
X5760539Y-6826388D02*
X5751015Y-6807341D01*
X5751015Y-6807341D02*
X5731968Y-6797817D01*
X5731968Y-6797817D02*
X5703396Y-6797817D01*
X5703396Y-6797817D02*
X5684349Y-6788293D01*
X5684349Y-6788293D02*
X5674825Y-6769246D01*
X5674825Y-6769246D02*
X5674825Y-6759722D01*
X5674825Y-6759722D02*
X5684349Y-6740674D01*
X5684349Y-6740674D02*
X5703396Y-6731150D01*
X5703396Y-6731150D02*
X5731968Y-6731150D01*
X5731968Y-6731150D02*
X5751015Y-6740674D01*
X5874825Y-6864484D02*
X5855777Y-6854960D01*
X5855777Y-6854960D02*
X5846254Y-6835912D01*
X5846254Y-6835912D02*
X5846254Y-6664484D01*
X5979587Y-6864484D02*
X5960539Y-6854960D01*
X5960539Y-6854960D02*
X5951015Y-6845436D01*
X5951015Y-6845436D02*
X5941492Y-6826388D01*
X5941492Y-6826388D02*
X5941492Y-6769246D01*
X5941492Y-6769246D02*
X5951015Y-6750198D01*
X5951015Y-6750198D02*
X5960539Y-6740674D01*
X5960539Y-6740674D02*
X5979587Y-6731150D01*
X5979587Y-6731150D02*
X6008158Y-6731150D01*
X6008158Y-6731150D02*
X6027206Y-6740674D01*
X6027206Y-6740674D02*
X6036730Y-6750198D01*
X6036730Y-6750198D02*
X6046254Y-6769246D01*
X6046254Y-6769246D02*
X6046254Y-6826388D01*
X6046254Y-6826388D02*
X6036730Y-6845436D01*
X6036730Y-6845436D02*
X6027206Y-6854960D01*
X6027206Y-6854960D02*
X6008158Y-6864484D01*
X6008158Y-6864484D02*
X5979587Y-6864484D01*
X6103396Y-6731150D02*
X6179587Y-6731150D01*
X6131968Y-6664484D02*
X6131968Y-6835912D01*
X6131968Y-6835912D02*
X6141492Y-6854960D01*
X6141492Y-6854960D02*
X6160539Y-6864484D01*
X6160539Y-6864484D02*
X6179587Y-6864484D01*
X6236730Y-6854960D02*
X6255777Y-6864484D01*
X6255777Y-6864484D02*
X6293873Y-6864484D01*
X6293873Y-6864484D02*
X6312920Y-6854960D01*
X6312920Y-6854960D02*
X6322444Y-6835912D01*
X6322444Y-6835912D02*
X6322444Y-6826388D01*
X6322444Y-6826388D02*
X6312920Y-6807341D01*
X6312920Y-6807341D02*
X6293873Y-6797817D01*
X6293873Y-6797817D02*
X6265301Y-6797817D01*
X6265301Y-6797817D02*
X6246254Y-6788293D01*
X6246254Y-6788293D02*
X6236730Y-6769246D01*
X6236730Y-6769246D02*
X6236730Y-6759722D01*
X6236730Y-6759722D02*
X6246254Y-6740674D01*
X6246254Y-6740674D02*
X6265301Y-6731150D01*
X6265301Y-6731150D02*
X6293873Y-6731150D01*
X6293873Y-6731150D02*
X6312920Y-6740674D01*
X6389111Y-6940674D02*
X6398635Y-6931150D01*
X6398635Y-6931150D02*
X6417682Y-6902579D01*
X6417682Y-6902579D02*
X6427206Y-6883531D01*
X6427206Y-6883531D02*
X6436730Y-6854960D01*
X6436730Y-6854960D02*
X6446254Y-6807341D01*
X6446254Y-6807341D02*
X6446254Y-6769246D01*
X6446254Y-6769246D02*
X6436730Y-6721627D01*
X6436730Y-6721627D02*
X6427206Y-6693055D01*
X6427206Y-6693055D02*
X6417682Y-6674008D01*
X6417682Y-6674008D02*
X6398635Y-6645436D01*
X6398635Y-6645436D02*
X6389111Y-6635912D01*
D12*
X-19937Y-7073063D02*
X-19937Y-7000937D01*
X-92063Y-7000937D01*
X-92063Y-7073063D01*
X-19937Y-7073063D01*
D11*
X360539Y-7128484D02*
X246253Y-7128484D01*
X303396Y-7128484D02*
X303396Y-6928484D01*
X303396Y-6928484D02*
X284348Y-6957055D01*
X284348Y-6957055D02*
X265301Y-6976103D01*
X265301Y-6976103D02*
X246253Y-6985627D01*
X446253Y-7109436D02*
X455777Y-7118960D01*
X455777Y-7118960D02*
X446253Y-7128484D01*
X446253Y-7128484D02*
X436729Y-7118960D01*
X436729Y-7118960D02*
X446253Y-7109436D01*
X446253Y-7109436D02*
X446253Y-7128484D01*
X579586Y-6928484D02*
X598634Y-6928484D01*
X598634Y-6928484D02*
X617682Y-6938008D01*
X617682Y-6938008D02*
X627205Y-6947531D01*
X627205Y-6947531D02*
X636729Y-6966579D01*
X636729Y-6966579D02*
X646253Y-7004674D01*
X646253Y-7004674D02*
X646253Y-7052293D01*
X646253Y-7052293D02*
X636729Y-7090388D01*
X636729Y-7090388D02*
X627205Y-7109436D01*
X627205Y-7109436D02*
X617682Y-7118960D01*
X617682Y-7118960D02*
X598634Y-7128484D01*
X598634Y-7128484D02*
X579586Y-7128484D01*
X579586Y-7128484D02*
X560539Y-7118960D01*
X560539Y-7118960D02*
X551015Y-7109436D01*
X551015Y-7109436D02*
X541491Y-7090388D01*
X541491Y-7090388D02*
X531967Y-7052293D01*
X531967Y-7052293D02*
X531967Y-7004674D01*
X531967Y-7004674D02*
X541491Y-6966579D01*
X541491Y-6966579D02*
X551015Y-6947531D01*
X551015Y-6947531D02*
X560539Y-6938008D01*
X560539Y-6938008D02*
X579586Y-6928484D01*
X722443Y-6947531D02*
X731967Y-6938008D01*
X731967Y-6938008D02*
X751015Y-6928484D01*
X751015Y-6928484D02*
X798634Y-6928484D01*
X798634Y-6928484D02*
X817682Y-6938008D01*
X817682Y-6938008D02*
X827205Y-6947531D01*
X827205Y-6947531D02*
X836729Y-6966579D01*
X836729Y-6966579D02*
X836729Y-6985627D01*
X836729Y-6985627D02*
X827205Y-7014198D01*
X827205Y-7014198D02*
X712920Y-7128484D01*
X712920Y-7128484D02*
X836729Y-7128484D01*
X960539Y-6928484D02*
X979586Y-6928484D01*
X979586Y-6928484D02*
X998634Y-6938008D01*
X998634Y-6938008D02*
X1008158Y-6947531D01*
X1008158Y-6947531D02*
X1017682Y-6966579D01*
X1017682Y-6966579D02*
X1027205Y-7004674D01*
X1027205Y-7004674D02*
X1027205Y-7052293D01*
X1027205Y-7052293D02*
X1017682Y-7090388D01*
X1017682Y-7090388D02*
X1008158Y-7109436D01*
X1008158Y-7109436D02*
X998634Y-7118960D01*
X998634Y-7118960D02*
X979586Y-7128484D01*
X979586Y-7128484D02*
X960539Y-7128484D01*
X960539Y-7128484D02*
X941491Y-7118960D01*
X941491Y-7118960D02*
X931967Y-7109436D01*
X931967Y-7109436D02*
X922443Y-7090388D01*
X922443Y-7090388D02*
X912920Y-7052293D01*
X912920Y-7052293D02*
X912920Y-7004674D01*
X912920Y-7004674D02*
X922443Y-6966579D01*
X922443Y-6966579D02*
X931967Y-6947531D01*
X931967Y-6947531D02*
X941491Y-6938008D01*
X941491Y-6938008D02*
X960539Y-6928484D01*
X1112920Y-7128484D02*
X1112920Y-6995150D01*
X1112920Y-7014198D02*
X1122444Y-7004674D01*
X1122444Y-7004674D02*
X1141491Y-6995150D01*
X1141491Y-6995150D02*
X1170063Y-6995150D01*
X1170063Y-6995150D02*
X1189110Y-7004674D01*
X1189110Y-7004674D02*
X1198634Y-7023722D01*
X1198634Y-7023722D02*
X1198634Y-7128484D01*
X1198634Y-7023722D02*
X1208158Y-7004674D01*
X1208158Y-7004674D02*
X1227205Y-6995150D01*
X1227205Y-6995150D02*
X1255777Y-6995150D01*
X1255777Y-6995150D02*
X1274825Y-7004674D01*
X1274825Y-7004674D02*
X1284348Y-7023722D01*
X1284348Y-7023722D02*
X1284348Y-7128484D01*
X1379586Y-7128484D02*
X1379586Y-6995150D01*
X1379586Y-7014198D02*
X1389110Y-7004674D01*
X1389110Y-7004674D02*
X1408158Y-6995150D01*
X1408158Y-6995150D02*
X1436729Y-6995150D01*
X1436729Y-6995150D02*
X1455777Y-7004674D01*
X1455777Y-7004674D02*
X1465301Y-7023722D01*
X1465301Y-7023722D02*
X1465301Y-7128484D01*
X1465301Y-7023722D02*
X1474824Y-7004674D01*
X1474824Y-7004674D02*
X1493872Y-6995150D01*
X1493872Y-6995150D02*
X1522443Y-6995150D01*
X1522443Y-6995150D02*
X1541491Y-7004674D01*
X1541491Y-7004674D02*
X1551015Y-7023722D01*
X1551015Y-7023722D02*
X1551015Y-7128484D01*
X1941491Y-6918960D02*
X1770063Y-7176103D01*
X2198634Y-6928484D02*
X2217682Y-6928484D01*
X2217682Y-6928484D02*
X2236729Y-6938008D01*
X2236729Y-6938008D02*
X2246253Y-6947531D01*
X2246253Y-6947531D02*
X2255777Y-6966579D01*
X2255777Y-6966579D02*
X2265301Y-7004674D01*
X2265301Y-7004674D02*
X2265301Y-7052293D01*
X2265301Y-7052293D02*
X2255777Y-7090388D01*
X2255777Y-7090388D02*
X2246253Y-7109436D01*
X2246253Y-7109436D02*
X2236729Y-7118960D01*
X2236729Y-7118960D02*
X2217682Y-7128484D01*
X2217682Y-7128484D02*
X2198634Y-7128484D01*
X2198634Y-7128484D02*
X2179587Y-7118960D01*
X2179587Y-7118960D02*
X2170063Y-7109436D01*
X2170063Y-7109436D02*
X2160539Y-7090388D01*
X2160539Y-7090388D02*
X2151015Y-7052293D01*
X2151015Y-7052293D02*
X2151015Y-7004674D01*
X2151015Y-7004674D02*
X2160539Y-6966579D01*
X2160539Y-6966579D02*
X2170063Y-6947531D01*
X2170063Y-6947531D02*
X2179587Y-6938008D01*
X2179587Y-6938008D02*
X2198634Y-6928484D01*
X2351015Y-7109436D02*
X2360539Y-7118960D01*
X2360539Y-7118960D02*
X2351015Y-7128484D01*
X2351015Y-7128484D02*
X2341491Y-7118960D01*
X2341491Y-7118960D02*
X2351015Y-7109436D01*
X2351015Y-7109436D02*
X2351015Y-7128484D01*
X2484348Y-6928484D02*
X2503396Y-6928484D01*
X2503396Y-6928484D02*
X2522444Y-6938008D01*
X2522444Y-6938008D02*
X2531968Y-6947531D01*
X2531968Y-6947531D02*
X2541491Y-6966579D01*
X2541491Y-6966579D02*
X2551015Y-7004674D01*
X2551015Y-7004674D02*
X2551015Y-7052293D01*
X2551015Y-7052293D02*
X2541491Y-7090388D01*
X2541491Y-7090388D02*
X2531968Y-7109436D01*
X2531968Y-7109436D02*
X2522444Y-7118960D01*
X2522444Y-7118960D02*
X2503396Y-7128484D01*
X2503396Y-7128484D02*
X2484348Y-7128484D01*
X2484348Y-7128484D02*
X2465301Y-7118960D01*
X2465301Y-7118960D02*
X2455777Y-7109436D01*
X2455777Y-7109436D02*
X2446253Y-7090388D01*
X2446253Y-7090388D02*
X2436729Y-7052293D01*
X2436729Y-7052293D02*
X2436729Y-7004674D01*
X2436729Y-7004674D02*
X2446253Y-6966579D01*
X2446253Y-6966579D02*
X2455777Y-6947531D01*
X2455777Y-6947531D02*
X2465301Y-6938008D01*
X2465301Y-6938008D02*
X2484348Y-6928484D01*
X2722444Y-6995150D02*
X2722444Y-7128484D01*
X2674825Y-6918960D02*
X2627206Y-7061817D01*
X2627206Y-7061817D02*
X2751015Y-7061817D01*
X2865301Y-6928484D02*
X2884348Y-6928484D01*
X2884348Y-6928484D02*
X2903396Y-6938008D01*
X2903396Y-6938008D02*
X2912920Y-6947531D01*
X2912920Y-6947531D02*
X2922444Y-6966579D01*
X2922444Y-6966579D02*
X2931967Y-7004674D01*
X2931967Y-7004674D02*
X2931967Y-7052293D01*
X2931967Y-7052293D02*
X2922444Y-7090388D01*
X2922444Y-7090388D02*
X2912920Y-7109436D01*
X2912920Y-7109436D02*
X2903396Y-7118960D01*
X2903396Y-7118960D02*
X2884348Y-7128484D01*
X2884348Y-7128484D02*
X2865301Y-7128484D01*
X2865301Y-7128484D02*
X2846253Y-7118960D01*
X2846253Y-7118960D02*
X2836729Y-7109436D01*
X2836729Y-7109436D02*
X2827206Y-7090388D01*
X2827206Y-7090388D02*
X2817682Y-7052293D01*
X2817682Y-7052293D02*
X2817682Y-7004674D01*
X2817682Y-7004674D02*
X2827206Y-6966579D01*
X2827206Y-6966579D02*
X2836729Y-6947531D01*
X2836729Y-6947531D02*
X2846253Y-6938008D01*
X2846253Y-6938008D02*
X2865301Y-6928484D01*
X3008158Y-6947531D02*
X3017682Y-6938008D01*
X3017682Y-6938008D02*
X3036729Y-6928484D01*
X3036729Y-6928484D02*
X3084348Y-6928484D01*
X3084348Y-6928484D02*
X3103396Y-6938008D01*
X3103396Y-6938008D02*
X3112920Y-6947531D01*
X3112920Y-6947531D02*
X3122444Y-6966579D01*
X3122444Y-6966579D02*
X3122444Y-6985627D01*
X3122444Y-6985627D02*
X3112920Y-7014198D01*
X3112920Y-7014198D02*
X2998634Y-7128484D01*
X2998634Y-7128484D02*
X3122444Y-7128484D01*
X3198634Y-6928484D02*
X3198634Y-6966579D01*
X3274825Y-6928484D02*
X3274825Y-6966579D01*
X3570063Y-7204674D02*
X3560539Y-7195150D01*
X3560539Y-7195150D02*
X3541491Y-7166579D01*
X3541491Y-7166579D02*
X3531968Y-7147531D01*
X3531968Y-7147531D02*
X3522444Y-7118960D01*
X3522444Y-7118960D02*
X3512920Y-7071341D01*
X3512920Y-7071341D02*
X3512920Y-7033246D01*
X3512920Y-7033246D02*
X3522444Y-6985627D01*
X3522444Y-6985627D02*
X3531968Y-6957055D01*
X3531968Y-6957055D02*
X3541491Y-6938008D01*
X3541491Y-6938008D02*
X3560539Y-6909436D01*
X3560539Y-6909436D02*
X3570063Y-6899912D01*
X3674825Y-7014198D02*
X3655777Y-7004674D01*
X3655777Y-7004674D02*
X3646253Y-6995150D01*
X3646253Y-6995150D02*
X3636729Y-6976103D01*
X3636729Y-6976103D02*
X3636729Y-6966579D01*
X3636729Y-6966579D02*
X3646253Y-6947531D01*
X3646253Y-6947531D02*
X3655777Y-6938008D01*
X3655777Y-6938008D02*
X3674825Y-6928484D01*
X3674825Y-6928484D02*
X3712920Y-6928484D01*
X3712920Y-6928484D02*
X3731968Y-6938008D01*
X3731968Y-6938008D02*
X3741491Y-6947531D01*
X3741491Y-6947531D02*
X3751015Y-6966579D01*
X3751015Y-6966579D02*
X3751015Y-6976103D01*
X3751015Y-6976103D02*
X3741491Y-6995150D01*
X3741491Y-6995150D02*
X3731968Y-7004674D01*
X3731968Y-7004674D02*
X3712920Y-7014198D01*
X3712920Y-7014198D02*
X3674825Y-7014198D01*
X3674825Y-7014198D02*
X3655777Y-7023722D01*
X3655777Y-7023722D02*
X3646253Y-7033246D01*
X3646253Y-7033246D02*
X3636729Y-7052293D01*
X3636729Y-7052293D02*
X3636729Y-7090388D01*
X3636729Y-7090388D02*
X3646253Y-7109436D01*
X3646253Y-7109436D02*
X3655777Y-7118960D01*
X3655777Y-7118960D02*
X3674825Y-7128484D01*
X3674825Y-7128484D02*
X3712920Y-7128484D01*
X3712920Y-7128484D02*
X3731968Y-7118960D01*
X3731968Y-7118960D02*
X3741491Y-7109436D01*
X3741491Y-7109436D02*
X3751015Y-7090388D01*
X3751015Y-7090388D02*
X3751015Y-7052293D01*
X3751015Y-7052293D02*
X3741491Y-7033246D01*
X3741491Y-7033246D02*
X3731968Y-7023722D01*
X3731968Y-7023722D02*
X3712920Y-7014198D01*
X3989110Y-7128484D02*
X3989110Y-6928484D01*
X4074825Y-7128484D02*
X4074825Y-7023722D01*
X4074825Y-7023722D02*
X4065301Y-7004674D01*
X4065301Y-7004674D02*
X4046253Y-6995150D01*
X4046253Y-6995150D02*
X4017682Y-6995150D01*
X4017682Y-6995150D02*
X3998634Y-7004674D01*
X3998634Y-7004674D02*
X3989110Y-7014198D01*
X4198634Y-7128484D02*
X4179587Y-7118960D01*
X4179587Y-7118960D02*
X4170063Y-7109436D01*
X4170063Y-7109436D02*
X4160539Y-7090388D01*
X4160539Y-7090388D02*
X4160539Y-7033246D01*
X4160539Y-7033246D02*
X4170063Y-7014198D01*
X4170063Y-7014198D02*
X4179587Y-7004674D01*
X4179587Y-7004674D02*
X4198634Y-6995150D01*
X4198634Y-6995150D02*
X4227206Y-6995150D01*
X4227206Y-6995150D02*
X4246253Y-7004674D01*
X4246253Y-7004674D02*
X4255777Y-7014198D01*
X4255777Y-7014198D02*
X4265301Y-7033246D01*
X4265301Y-7033246D02*
X4265301Y-7090388D01*
X4265301Y-7090388D02*
X4255777Y-7109436D01*
X4255777Y-7109436D02*
X4246253Y-7118960D01*
X4246253Y-7118960D02*
X4227206Y-7128484D01*
X4227206Y-7128484D02*
X4198634Y-7128484D01*
X4379587Y-7128484D02*
X4360539Y-7118960D01*
X4360539Y-7118960D02*
X4351015Y-7099912D01*
X4351015Y-7099912D02*
X4351015Y-6928484D01*
X4531968Y-7118960D02*
X4512920Y-7128484D01*
X4512920Y-7128484D02*
X4474825Y-7128484D01*
X4474825Y-7128484D02*
X4455777Y-7118960D01*
X4455777Y-7118960D02*
X4446253Y-7099912D01*
X4446253Y-7099912D02*
X4446253Y-7023722D01*
X4446253Y-7023722D02*
X4455777Y-7004674D01*
X4455777Y-7004674D02*
X4474825Y-6995150D01*
X4474825Y-6995150D02*
X4512920Y-6995150D01*
X4512920Y-6995150D02*
X4531968Y-7004674D01*
X4531968Y-7004674D02*
X4541492Y-7023722D01*
X4541492Y-7023722D02*
X4541492Y-7042769D01*
X4541492Y-7042769D02*
X4446253Y-7061817D01*
X4617682Y-7118960D02*
X4636730Y-7128484D01*
X4636730Y-7128484D02*
X4674825Y-7128484D01*
X4674825Y-7128484D02*
X4693873Y-7118960D01*
X4693873Y-7118960D02*
X4703396Y-7099912D01*
X4703396Y-7099912D02*
X4703396Y-7090388D01*
X4703396Y-7090388D02*
X4693873Y-7071341D01*
X4693873Y-7071341D02*
X4674825Y-7061817D01*
X4674825Y-7061817D02*
X4646253Y-7061817D01*
X4646253Y-7061817D02*
X4627206Y-7052293D01*
X4627206Y-7052293D02*
X4617682Y-7033246D01*
X4617682Y-7033246D02*
X4617682Y-7023722D01*
X4617682Y-7023722D02*
X4627206Y-7004674D01*
X4627206Y-7004674D02*
X4646253Y-6995150D01*
X4646253Y-6995150D02*
X4674825Y-6995150D01*
X4674825Y-6995150D02*
X4693873Y-7004674D01*
X4770063Y-7204674D02*
X4779587Y-7195150D01*
X4779587Y-7195150D02*
X4798634Y-7166579D01*
X4798634Y-7166579D02*
X4808158Y-7147531D01*
X4808158Y-7147531D02*
X4817682Y-7118960D01*
X4817682Y-7118960D02*
X4827206Y-7071341D01*
X4827206Y-7071341D02*
X4827206Y-7033246D01*
X4827206Y-7033246D02*
X4817682Y-6985627D01*
X4817682Y-6985627D02*
X4808158Y-6957055D01*
X4808158Y-6957055D02*
X4798634Y-6938008D01*
X4798634Y-6938008D02*
X4779587Y-6909436D01*
X4779587Y-6909436D02*
X4770063Y-6899912D01*
D10*
X-37500Y-7333500D02*
X-5000Y-7301000D01*
X-37500Y-7268500D01*
X-70000Y-7301000D01*
X-37500Y-7333500D01*
D11*
X293872Y-7192484D02*
X312920Y-7192484D01*
X312920Y-7192484D02*
X331967Y-7202008D01*
X331967Y-7202008D02*
X341491Y-7211531D01*
X341491Y-7211531D02*
X351015Y-7230579D01*
X351015Y-7230579D02*
X360539Y-7268674D01*
X360539Y-7268674D02*
X360539Y-7316293D01*
X360539Y-7316293D02*
X351015Y-7354388D01*
X351015Y-7354388D02*
X341491Y-7373436D01*
X341491Y-7373436D02*
X331967Y-7382960D01*
X331967Y-7382960D02*
X312920Y-7392484D01*
X312920Y-7392484D02*
X293872Y-7392484D01*
X293872Y-7392484D02*
X274824Y-7382960D01*
X274824Y-7382960D02*
X265301Y-7373436D01*
X265301Y-7373436D02*
X255777Y-7354388D01*
X255777Y-7354388D02*
X246253Y-7316293D01*
X246253Y-7316293D02*
X246253Y-7268674D01*
X246253Y-7268674D02*
X255777Y-7230579D01*
X255777Y-7230579D02*
X265301Y-7211531D01*
X265301Y-7211531D02*
X274824Y-7202008D01*
X274824Y-7202008D02*
X293872Y-7192484D01*
X446253Y-7373436D02*
X455777Y-7382960D01*
X455777Y-7382960D02*
X446253Y-7392484D01*
X446253Y-7392484D02*
X436729Y-7382960D01*
X436729Y-7382960D02*
X446253Y-7373436D01*
X446253Y-7373436D02*
X446253Y-7392484D01*
X627205Y-7192484D02*
X589110Y-7192484D01*
X589110Y-7192484D02*
X570063Y-7202008D01*
X570063Y-7202008D02*
X560539Y-7211531D01*
X560539Y-7211531D02*
X541491Y-7240103D01*
X541491Y-7240103D02*
X531967Y-7278198D01*
X531967Y-7278198D02*
X531967Y-7354388D01*
X531967Y-7354388D02*
X541491Y-7373436D01*
X541491Y-7373436D02*
X551015Y-7382960D01*
X551015Y-7382960D02*
X570063Y-7392484D01*
X570063Y-7392484D02*
X608158Y-7392484D01*
X608158Y-7392484D02*
X627205Y-7382960D01*
X627205Y-7382960D02*
X636729Y-7373436D01*
X636729Y-7373436D02*
X646253Y-7354388D01*
X646253Y-7354388D02*
X646253Y-7306769D01*
X646253Y-7306769D02*
X636729Y-7287722D01*
X636729Y-7287722D02*
X627205Y-7278198D01*
X627205Y-7278198D02*
X608158Y-7268674D01*
X608158Y-7268674D02*
X570063Y-7268674D01*
X570063Y-7268674D02*
X551015Y-7278198D01*
X551015Y-7278198D02*
X541491Y-7287722D01*
X541491Y-7287722D02*
X531967Y-7306769D01*
X827205Y-7192484D02*
X731967Y-7192484D01*
X731967Y-7192484D02*
X722443Y-7287722D01*
X722443Y-7287722D02*
X731967Y-7278198D01*
X731967Y-7278198D02*
X751015Y-7268674D01*
X751015Y-7268674D02*
X798634Y-7268674D01*
X798634Y-7268674D02*
X817682Y-7278198D01*
X817682Y-7278198D02*
X827205Y-7287722D01*
X827205Y-7287722D02*
X836729Y-7306769D01*
X836729Y-7306769D02*
X836729Y-7354388D01*
X836729Y-7354388D02*
X827205Y-7373436D01*
X827205Y-7373436D02*
X817682Y-7382960D01*
X817682Y-7382960D02*
X798634Y-7392484D01*
X798634Y-7392484D02*
X751015Y-7392484D01*
X751015Y-7392484D02*
X731967Y-7382960D01*
X731967Y-7382960D02*
X722443Y-7373436D01*
X960539Y-7192484D02*
X979586Y-7192484D01*
X979586Y-7192484D02*
X998634Y-7202008D01*
X998634Y-7202008D02*
X1008158Y-7211531D01*
X1008158Y-7211531D02*
X1017682Y-7230579D01*
X1017682Y-7230579D02*
X1027205Y-7268674D01*
X1027205Y-7268674D02*
X1027205Y-7316293D01*
X1027205Y-7316293D02*
X1017682Y-7354388D01*
X1017682Y-7354388D02*
X1008158Y-7373436D01*
X1008158Y-7373436D02*
X998634Y-7382960D01*
X998634Y-7382960D02*
X979586Y-7392484D01*
X979586Y-7392484D02*
X960539Y-7392484D01*
X960539Y-7392484D02*
X941491Y-7382960D01*
X941491Y-7382960D02*
X931967Y-7373436D01*
X931967Y-7373436D02*
X922443Y-7354388D01*
X922443Y-7354388D02*
X912920Y-7316293D01*
X912920Y-7316293D02*
X912920Y-7268674D01*
X912920Y-7268674D02*
X922443Y-7230579D01*
X922443Y-7230579D02*
X931967Y-7211531D01*
X931967Y-7211531D02*
X941491Y-7202008D01*
X941491Y-7202008D02*
X960539Y-7192484D01*
X1112920Y-7392484D02*
X1112920Y-7259150D01*
X1112920Y-7278198D02*
X1122444Y-7268674D01*
X1122444Y-7268674D02*
X1141491Y-7259150D01*
X1141491Y-7259150D02*
X1170063Y-7259150D01*
X1170063Y-7259150D02*
X1189110Y-7268674D01*
X1189110Y-7268674D02*
X1198634Y-7287722D01*
X1198634Y-7287722D02*
X1198634Y-7392484D01*
X1198634Y-7287722D02*
X1208158Y-7268674D01*
X1208158Y-7268674D02*
X1227205Y-7259150D01*
X1227205Y-7259150D02*
X1255777Y-7259150D01*
X1255777Y-7259150D02*
X1274825Y-7268674D01*
X1274825Y-7268674D02*
X1284348Y-7287722D01*
X1284348Y-7287722D02*
X1284348Y-7392484D01*
X1379586Y-7392484D02*
X1379586Y-7259150D01*
X1379586Y-7278198D02*
X1389110Y-7268674D01*
X1389110Y-7268674D02*
X1408158Y-7259150D01*
X1408158Y-7259150D02*
X1436729Y-7259150D01*
X1436729Y-7259150D02*
X1455777Y-7268674D01*
X1455777Y-7268674D02*
X1465301Y-7287722D01*
X1465301Y-7287722D02*
X1465301Y-7392484D01*
X1465301Y-7287722D02*
X1474824Y-7268674D01*
X1474824Y-7268674D02*
X1493872Y-7259150D01*
X1493872Y-7259150D02*
X1522443Y-7259150D01*
X1522443Y-7259150D02*
X1541491Y-7268674D01*
X1541491Y-7268674D02*
X1551015Y-7287722D01*
X1551015Y-7287722D02*
X1551015Y-7392484D01*
X1941491Y-7182960D02*
X1770063Y-7440103D01*
X2198634Y-7192484D02*
X2217682Y-7192484D01*
X2217682Y-7192484D02*
X2236729Y-7202008D01*
X2236729Y-7202008D02*
X2246253Y-7211531D01*
X2246253Y-7211531D02*
X2255777Y-7230579D01*
X2255777Y-7230579D02*
X2265301Y-7268674D01*
X2265301Y-7268674D02*
X2265301Y-7316293D01*
X2265301Y-7316293D02*
X2255777Y-7354388D01*
X2255777Y-7354388D02*
X2246253Y-7373436D01*
X2246253Y-7373436D02*
X2236729Y-7382960D01*
X2236729Y-7382960D02*
X2217682Y-7392484D01*
X2217682Y-7392484D02*
X2198634Y-7392484D01*
X2198634Y-7392484D02*
X2179587Y-7382960D01*
X2179587Y-7382960D02*
X2170063Y-7373436D01*
X2170063Y-7373436D02*
X2160539Y-7354388D01*
X2160539Y-7354388D02*
X2151015Y-7316293D01*
X2151015Y-7316293D02*
X2151015Y-7268674D01*
X2151015Y-7268674D02*
X2160539Y-7230579D01*
X2160539Y-7230579D02*
X2170063Y-7211531D01*
X2170063Y-7211531D02*
X2179587Y-7202008D01*
X2179587Y-7202008D02*
X2198634Y-7192484D01*
X2351015Y-7373436D02*
X2360539Y-7382960D01*
X2360539Y-7382960D02*
X2351015Y-7392484D01*
X2351015Y-7392484D02*
X2341491Y-7382960D01*
X2341491Y-7382960D02*
X2351015Y-7373436D01*
X2351015Y-7373436D02*
X2351015Y-7392484D01*
X2484348Y-7192484D02*
X2503396Y-7192484D01*
X2503396Y-7192484D02*
X2522444Y-7202008D01*
X2522444Y-7202008D02*
X2531968Y-7211531D01*
X2531968Y-7211531D02*
X2541491Y-7230579D01*
X2541491Y-7230579D02*
X2551015Y-7268674D01*
X2551015Y-7268674D02*
X2551015Y-7316293D01*
X2551015Y-7316293D02*
X2541491Y-7354388D01*
X2541491Y-7354388D02*
X2531968Y-7373436D01*
X2531968Y-7373436D02*
X2522444Y-7382960D01*
X2522444Y-7382960D02*
X2503396Y-7392484D01*
X2503396Y-7392484D02*
X2484348Y-7392484D01*
X2484348Y-7392484D02*
X2465301Y-7382960D01*
X2465301Y-7382960D02*
X2455777Y-7373436D01*
X2455777Y-7373436D02*
X2446253Y-7354388D01*
X2446253Y-7354388D02*
X2436729Y-7316293D01*
X2436729Y-7316293D02*
X2436729Y-7268674D01*
X2436729Y-7268674D02*
X2446253Y-7230579D01*
X2446253Y-7230579D02*
X2455777Y-7211531D01*
X2455777Y-7211531D02*
X2465301Y-7202008D01*
X2465301Y-7202008D02*
X2484348Y-7192484D01*
X2627206Y-7211531D02*
X2636729Y-7202008D01*
X2636729Y-7202008D02*
X2655777Y-7192484D01*
X2655777Y-7192484D02*
X2703396Y-7192484D01*
X2703396Y-7192484D02*
X2722444Y-7202008D01*
X2722444Y-7202008D02*
X2731968Y-7211531D01*
X2731968Y-7211531D02*
X2741491Y-7230579D01*
X2741491Y-7230579D02*
X2741491Y-7249627D01*
X2741491Y-7249627D02*
X2731968Y-7278198D01*
X2731968Y-7278198D02*
X2617682Y-7392484D01*
X2617682Y-7392484D02*
X2741491Y-7392484D01*
X2922444Y-7192484D02*
X2827206Y-7192484D01*
X2827206Y-7192484D02*
X2817682Y-7287722D01*
X2817682Y-7287722D02*
X2827206Y-7278198D01*
X2827206Y-7278198D02*
X2846253Y-7268674D01*
X2846253Y-7268674D02*
X2893872Y-7268674D01*
X2893872Y-7268674D02*
X2912920Y-7278198D01*
X2912920Y-7278198D02*
X2922444Y-7287722D01*
X2922444Y-7287722D02*
X2931967Y-7306769D01*
X2931967Y-7306769D02*
X2931967Y-7354388D01*
X2931967Y-7354388D02*
X2922444Y-7373436D01*
X2922444Y-7373436D02*
X2912920Y-7382960D01*
X2912920Y-7382960D02*
X2893872Y-7392484D01*
X2893872Y-7392484D02*
X2846253Y-7392484D01*
X2846253Y-7392484D02*
X2827206Y-7382960D01*
X2827206Y-7382960D02*
X2817682Y-7373436D01*
X3103396Y-7192484D02*
X3065301Y-7192484D01*
X3065301Y-7192484D02*
X3046253Y-7202008D01*
X3046253Y-7202008D02*
X3036729Y-7211531D01*
X3036729Y-7211531D02*
X3017682Y-7240103D01*
X3017682Y-7240103D02*
X3008158Y-7278198D01*
X3008158Y-7278198D02*
X3008158Y-7354388D01*
X3008158Y-7354388D02*
X3017682Y-7373436D01*
X3017682Y-7373436D02*
X3027206Y-7382960D01*
X3027206Y-7382960D02*
X3046253Y-7392484D01*
X3046253Y-7392484D02*
X3084348Y-7392484D01*
X3084348Y-7392484D02*
X3103396Y-7382960D01*
X3103396Y-7382960D02*
X3112920Y-7373436D01*
X3112920Y-7373436D02*
X3122444Y-7354388D01*
X3122444Y-7354388D02*
X3122444Y-7306769D01*
X3122444Y-7306769D02*
X3112920Y-7287722D01*
X3112920Y-7287722D02*
X3103396Y-7278198D01*
X3103396Y-7278198D02*
X3084348Y-7268674D01*
X3084348Y-7268674D02*
X3046253Y-7268674D01*
X3046253Y-7268674D02*
X3027206Y-7278198D01*
X3027206Y-7278198D02*
X3017682Y-7287722D01*
X3017682Y-7287722D02*
X3008158Y-7306769D01*
X3198634Y-7192484D02*
X3198634Y-7230579D01*
X3274825Y-7192484D02*
X3274825Y-7230579D01*
X3570063Y-7468674D02*
X3560539Y-7459150D01*
X3560539Y-7459150D02*
X3541491Y-7430579D01*
X3541491Y-7430579D02*
X3531968Y-7411531D01*
X3531968Y-7411531D02*
X3522444Y-7382960D01*
X3522444Y-7382960D02*
X3512920Y-7335341D01*
X3512920Y-7335341D02*
X3512920Y-7297246D01*
X3512920Y-7297246D02*
X3522444Y-7249627D01*
X3522444Y-7249627D02*
X3531968Y-7221055D01*
X3531968Y-7221055D02*
X3541491Y-7202008D01*
X3541491Y-7202008D02*
X3560539Y-7173436D01*
X3560539Y-7173436D02*
X3570063Y-7163912D01*
X3636729Y-7211531D02*
X3646253Y-7202008D01*
X3646253Y-7202008D02*
X3665301Y-7192484D01*
X3665301Y-7192484D02*
X3712920Y-7192484D01*
X3712920Y-7192484D02*
X3731968Y-7202008D01*
X3731968Y-7202008D02*
X3741491Y-7211531D01*
X3741491Y-7211531D02*
X3751015Y-7230579D01*
X3751015Y-7230579D02*
X3751015Y-7249627D01*
X3751015Y-7249627D02*
X3741491Y-7278198D01*
X3741491Y-7278198D02*
X3627206Y-7392484D01*
X3627206Y-7392484D02*
X3751015Y-7392484D01*
X3989110Y-7392484D02*
X3989110Y-7192484D01*
X4074825Y-7392484D02*
X4074825Y-7287722D01*
X4074825Y-7287722D02*
X4065301Y-7268674D01*
X4065301Y-7268674D02*
X4046253Y-7259150D01*
X4046253Y-7259150D02*
X4017682Y-7259150D01*
X4017682Y-7259150D02*
X3998634Y-7268674D01*
X3998634Y-7268674D02*
X3989110Y-7278198D01*
X4198634Y-7392484D02*
X4179587Y-7382960D01*
X4179587Y-7382960D02*
X4170063Y-7373436D01*
X4170063Y-7373436D02*
X4160539Y-7354388D01*
X4160539Y-7354388D02*
X4160539Y-7297246D01*
X4160539Y-7297246D02*
X4170063Y-7278198D01*
X4170063Y-7278198D02*
X4179587Y-7268674D01*
X4179587Y-7268674D02*
X4198634Y-7259150D01*
X4198634Y-7259150D02*
X4227206Y-7259150D01*
X4227206Y-7259150D02*
X4246253Y-7268674D01*
X4246253Y-7268674D02*
X4255777Y-7278198D01*
X4255777Y-7278198D02*
X4265301Y-7297246D01*
X4265301Y-7297246D02*
X4265301Y-7354388D01*
X4265301Y-7354388D02*
X4255777Y-7373436D01*
X4255777Y-7373436D02*
X4246253Y-7382960D01*
X4246253Y-7382960D02*
X4227206Y-7392484D01*
X4227206Y-7392484D02*
X4198634Y-7392484D01*
X4379587Y-7392484D02*
X4360539Y-7382960D01*
X4360539Y-7382960D02*
X4351015Y-7363912D01*
X4351015Y-7363912D02*
X4351015Y-7192484D01*
X4531968Y-7382960D02*
X4512920Y-7392484D01*
X4512920Y-7392484D02*
X4474825Y-7392484D01*
X4474825Y-7392484D02*
X4455777Y-7382960D01*
X4455777Y-7382960D02*
X4446253Y-7363912D01*
X4446253Y-7363912D02*
X4446253Y-7287722D01*
X4446253Y-7287722D02*
X4455777Y-7268674D01*
X4455777Y-7268674D02*
X4474825Y-7259150D01*
X4474825Y-7259150D02*
X4512920Y-7259150D01*
X4512920Y-7259150D02*
X4531968Y-7268674D01*
X4531968Y-7268674D02*
X4541492Y-7287722D01*
X4541492Y-7287722D02*
X4541492Y-7306769D01*
X4541492Y-7306769D02*
X4446253Y-7325817D01*
X4617682Y-7382960D02*
X4636730Y-7392484D01*
X4636730Y-7392484D02*
X4674825Y-7392484D01*
X4674825Y-7392484D02*
X4693873Y-7382960D01*
X4693873Y-7382960D02*
X4703396Y-7363912D01*
X4703396Y-7363912D02*
X4703396Y-7354388D01*
X4703396Y-7354388D02*
X4693873Y-7335341D01*
X4693873Y-7335341D02*
X4674825Y-7325817D01*
X4674825Y-7325817D02*
X4646253Y-7325817D01*
X4646253Y-7325817D02*
X4627206Y-7316293D01*
X4627206Y-7316293D02*
X4617682Y-7297246D01*
X4617682Y-7297246D02*
X4617682Y-7287722D01*
X4617682Y-7287722D02*
X4627206Y-7268674D01*
X4627206Y-7268674D02*
X4646253Y-7259150D01*
X4646253Y-7259150D02*
X4674825Y-7259150D01*
X4674825Y-7259150D02*
X4693873Y-7268674D01*
X4770063Y-7468674D02*
X4779587Y-7459150D01*
X4779587Y-7459150D02*
X4798634Y-7430579D01*
X4798634Y-7430579D02*
X4808158Y-7411531D01*
X4808158Y-7411531D02*
X4817682Y-7382960D01*
X4817682Y-7382960D02*
X4827206Y-7335341D01*
X4827206Y-7335341D02*
X4827206Y-7297246D01*
X4827206Y-7297246D02*
X4817682Y-7249627D01*
X4817682Y-7249627D02*
X4808158Y-7221055D01*
X4808158Y-7221055D02*
X4798634Y-7202008D01*
X4798634Y-7202008D02*
X4779587Y-7173436D01*
X4779587Y-7173436D02*
X4770063Y-7163912D01*
X5131968Y-7468674D02*
X5122444Y-7459150D01*
X5122444Y-7459150D02*
X5103396Y-7430579D01*
X5103396Y-7430579D02*
X5093873Y-7411531D01*
X5093873Y-7411531D02*
X5084349Y-7382960D01*
X5084349Y-7382960D02*
X5074825Y-7335341D01*
X5074825Y-7335341D02*
X5074825Y-7297246D01*
X5074825Y-7297246D02*
X5084349Y-7249627D01*
X5084349Y-7249627D02*
X5093873Y-7221055D01*
X5093873Y-7221055D02*
X5103396Y-7202008D01*
X5103396Y-7202008D02*
X5122444Y-7173436D01*
X5122444Y-7173436D02*
X5131968Y-7163912D01*
X5208158Y-7259150D02*
X5208158Y-7392484D01*
X5208158Y-7278198D02*
X5217682Y-7268674D01*
X5217682Y-7268674D02*
X5236730Y-7259150D01*
X5236730Y-7259150D02*
X5265301Y-7259150D01*
X5265301Y-7259150D02*
X5284349Y-7268674D01*
X5284349Y-7268674D02*
X5293873Y-7287722D01*
X5293873Y-7287722D02*
X5293873Y-7392484D01*
X5417682Y-7392484D02*
X5398634Y-7382960D01*
X5398634Y-7382960D02*
X5389111Y-7373436D01*
X5389111Y-7373436D02*
X5379587Y-7354388D01*
X5379587Y-7354388D02*
X5379587Y-7297246D01*
X5379587Y-7297246D02*
X5389111Y-7278198D01*
X5389111Y-7278198D02*
X5398634Y-7268674D01*
X5398634Y-7268674D02*
X5417682Y-7259150D01*
X5417682Y-7259150D02*
X5446254Y-7259150D01*
X5446254Y-7259150D02*
X5465301Y-7268674D01*
X5465301Y-7268674D02*
X5474825Y-7278198D01*
X5474825Y-7278198D02*
X5484349Y-7297246D01*
X5484349Y-7297246D02*
X5484349Y-7354388D01*
X5484349Y-7354388D02*
X5474825Y-7373436D01*
X5474825Y-7373436D02*
X5465301Y-7382960D01*
X5465301Y-7382960D02*
X5446254Y-7392484D01*
X5446254Y-7392484D02*
X5417682Y-7392484D01*
X5541492Y-7259150D02*
X5617682Y-7259150D01*
X5570063Y-7192484D02*
X5570063Y-7363912D01*
X5570063Y-7363912D02*
X5579587Y-7382960D01*
X5579587Y-7382960D02*
X5598634Y-7392484D01*
X5598634Y-7392484D02*
X5617682Y-7392484D01*
X5836730Y-7259150D02*
X5836730Y-7459150D01*
X5836730Y-7268674D02*
X5855777Y-7259150D01*
X5855777Y-7259150D02*
X5893873Y-7259150D01*
X5893873Y-7259150D02*
X5912920Y-7268674D01*
X5912920Y-7268674D02*
X5922444Y-7278198D01*
X5922444Y-7278198D02*
X5931968Y-7297246D01*
X5931968Y-7297246D02*
X5931968Y-7354388D01*
X5931968Y-7354388D02*
X5922444Y-7373436D01*
X5922444Y-7373436D02*
X5912920Y-7382960D01*
X5912920Y-7382960D02*
X5893873Y-7392484D01*
X5893873Y-7392484D02*
X5855777Y-7392484D01*
X5855777Y-7392484D02*
X5836730Y-7382960D01*
X6046253Y-7392484D02*
X6027206Y-7382960D01*
X6027206Y-7382960D02*
X6017682Y-7363912D01*
X6017682Y-7363912D02*
X6017682Y-7192484D01*
X6208158Y-7392484D02*
X6208158Y-7287722D01*
X6208158Y-7287722D02*
X6198634Y-7268674D01*
X6198634Y-7268674D02*
X6179587Y-7259150D01*
X6179587Y-7259150D02*
X6141492Y-7259150D01*
X6141492Y-7259150D02*
X6122444Y-7268674D01*
X6208158Y-7382960D02*
X6189111Y-7392484D01*
X6189111Y-7392484D02*
X6141492Y-7392484D01*
X6141492Y-7392484D02*
X6122444Y-7382960D01*
X6122444Y-7382960D02*
X6112920Y-7363912D01*
X6112920Y-7363912D02*
X6112920Y-7344865D01*
X6112920Y-7344865D02*
X6122444Y-7325817D01*
X6122444Y-7325817D02*
X6141492Y-7316293D01*
X6141492Y-7316293D02*
X6189111Y-7316293D01*
X6189111Y-7316293D02*
X6208158Y-7306769D01*
X6274825Y-7259150D02*
X6351015Y-7259150D01*
X6303396Y-7192484D02*
X6303396Y-7363912D01*
X6303396Y-7363912D02*
X6312920Y-7382960D01*
X6312920Y-7382960D02*
X6331968Y-7392484D01*
X6331968Y-7392484D02*
X6351015Y-7392484D01*
X6493873Y-7382960D02*
X6474825Y-7392484D01*
X6474825Y-7392484D02*
X6436730Y-7392484D01*
X6436730Y-7392484D02*
X6417682Y-7382960D01*
X6417682Y-7382960D02*
X6408158Y-7363912D01*
X6408158Y-7363912D02*
X6408158Y-7287722D01*
X6408158Y-7287722D02*
X6417682Y-7268674D01*
X6417682Y-7268674D02*
X6436730Y-7259150D01*
X6436730Y-7259150D02*
X6474825Y-7259150D01*
X6474825Y-7259150D02*
X6493873Y-7268674D01*
X6493873Y-7268674D02*
X6503396Y-7287722D01*
X6503396Y-7287722D02*
X6503396Y-7306769D01*
X6503396Y-7306769D02*
X6408158Y-7325817D01*
X6674825Y-7392484D02*
X6674825Y-7192484D01*
X6674825Y-7382960D02*
X6655777Y-7392484D01*
X6655777Y-7392484D02*
X6617682Y-7392484D01*
X6617682Y-7392484D02*
X6598634Y-7382960D01*
X6598634Y-7382960D02*
X6589111Y-7373436D01*
X6589111Y-7373436D02*
X6579587Y-7354388D01*
X6579587Y-7354388D02*
X6579587Y-7297246D01*
X6579587Y-7297246D02*
X6589111Y-7278198D01*
X6589111Y-7278198D02*
X6598634Y-7268674D01*
X6598634Y-7268674D02*
X6617682Y-7259150D01*
X6617682Y-7259150D02*
X6655777Y-7259150D01*
X6655777Y-7259150D02*
X6674825Y-7268674D01*
X6751015Y-7468674D02*
X6760539Y-7459150D01*
X6760539Y-7459150D02*
X6779587Y-7430579D01*
X6779587Y-7430579D02*
X6789111Y-7411531D01*
X6789111Y-7411531D02*
X6798634Y-7382960D01*
X6798634Y-7382960D02*
X6808158Y-7335341D01*
X6808158Y-7335341D02*
X6808158Y-7297246D01*
X6808158Y-7297246D02*
X6798634Y-7249627D01*
X6798634Y-7249627D02*
X6789111Y-7221055D01*
X6789111Y-7221055D02*
X6779587Y-7202008D01*
X6779587Y-7202008D02*
X6760539Y-7173436D01*
X6760539Y-7173436D02*
X6751015Y-7163912D01*
D13*
X-132000Y-7501500D02*
X-5000Y-7628500D01*
X-5000Y-7501500D02*
X-132000Y-7628500D01*
X-5000Y-7565000D02*
G75*
G02*
X-132000Y-7565000I-63500J0D01*
G01*
X-132000Y-7565000D02*
G75*
G02*
X-5000Y-7565000I63500J0D01*
G01*
D11*
X360539Y-7656484D02*
X246253Y-7656484D01*
X303396Y-7656484D02*
X303396Y-7456484D01*
X303396Y-7456484D02*
X284348Y-7485055D01*
X284348Y-7485055D02*
X265301Y-7504103D01*
X265301Y-7504103D02*
X246253Y-7513627D01*
X446253Y-7637436D02*
X455777Y-7646960D01*
X455777Y-7646960D02*
X446253Y-7656484D01*
X446253Y-7656484D02*
X436729Y-7646960D01*
X436729Y-7646960D02*
X446253Y-7637436D01*
X446253Y-7637436D02*
X446253Y-7656484D01*
X531967Y-7475531D02*
X541491Y-7466008D01*
X541491Y-7466008D02*
X560539Y-7456484D01*
X560539Y-7456484D02*
X608158Y-7456484D01*
X608158Y-7456484D02*
X627205Y-7466008D01*
X627205Y-7466008D02*
X636729Y-7475531D01*
X636729Y-7475531D02*
X646253Y-7494579D01*
X646253Y-7494579D02*
X646253Y-7513627D01*
X646253Y-7513627D02*
X636729Y-7542198D01*
X636729Y-7542198D02*
X522443Y-7656484D01*
X522443Y-7656484D02*
X646253Y-7656484D01*
X712920Y-7456484D02*
X846253Y-7456484D01*
X846253Y-7456484D02*
X760539Y-7656484D01*
X960539Y-7456484D02*
X979586Y-7456484D01*
X979586Y-7456484D02*
X998634Y-7466008D01*
X998634Y-7466008D02*
X1008158Y-7475531D01*
X1008158Y-7475531D02*
X1017682Y-7494579D01*
X1017682Y-7494579D02*
X1027205Y-7532674D01*
X1027205Y-7532674D02*
X1027205Y-7580293D01*
X1027205Y-7580293D02*
X1017682Y-7618388D01*
X1017682Y-7618388D02*
X1008158Y-7637436D01*
X1008158Y-7637436D02*
X998634Y-7646960D01*
X998634Y-7646960D02*
X979586Y-7656484D01*
X979586Y-7656484D02*
X960539Y-7656484D01*
X960539Y-7656484D02*
X941491Y-7646960D01*
X941491Y-7646960D02*
X931967Y-7637436D01*
X931967Y-7637436D02*
X922443Y-7618388D01*
X922443Y-7618388D02*
X912920Y-7580293D01*
X912920Y-7580293D02*
X912920Y-7532674D01*
X912920Y-7532674D02*
X922443Y-7494579D01*
X922443Y-7494579D02*
X931967Y-7475531D01*
X931967Y-7475531D02*
X941491Y-7466008D01*
X941491Y-7466008D02*
X960539Y-7456484D01*
X1112920Y-7656484D02*
X1112920Y-7523150D01*
X1112920Y-7542198D02*
X1122444Y-7532674D01*
X1122444Y-7532674D02*
X1141491Y-7523150D01*
X1141491Y-7523150D02*
X1170063Y-7523150D01*
X1170063Y-7523150D02*
X1189110Y-7532674D01*
X1189110Y-7532674D02*
X1198634Y-7551722D01*
X1198634Y-7551722D02*
X1198634Y-7656484D01*
X1198634Y-7551722D02*
X1208158Y-7532674D01*
X1208158Y-7532674D02*
X1227205Y-7523150D01*
X1227205Y-7523150D02*
X1255777Y-7523150D01*
X1255777Y-7523150D02*
X1274825Y-7532674D01*
X1274825Y-7532674D02*
X1284348Y-7551722D01*
X1284348Y-7551722D02*
X1284348Y-7656484D01*
X1379586Y-7656484D02*
X1379586Y-7523150D01*
X1379586Y-7542198D02*
X1389110Y-7532674D01*
X1389110Y-7532674D02*
X1408158Y-7523150D01*
X1408158Y-7523150D02*
X1436729Y-7523150D01*
X1436729Y-7523150D02*
X1455777Y-7532674D01*
X1455777Y-7532674D02*
X1465301Y-7551722D01*
X1465301Y-7551722D02*
X1465301Y-7656484D01*
X1465301Y-7551722D02*
X1474824Y-7532674D01*
X1474824Y-7532674D02*
X1493872Y-7523150D01*
X1493872Y-7523150D02*
X1522443Y-7523150D01*
X1522443Y-7523150D02*
X1541491Y-7532674D01*
X1541491Y-7532674D02*
X1551015Y-7551722D01*
X1551015Y-7551722D02*
X1551015Y-7656484D01*
X1941491Y-7446960D02*
X1770063Y-7704103D01*
X2198634Y-7456484D02*
X2217682Y-7456484D01*
X2217682Y-7456484D02*
X2236729Y-7466008D01*
X2236729Y-7466008D02*
X2246253Y-7475531D01*
X2246253Y-7475531D02*
X2255777Y-7494579D01*
X2255777Y-7494579D02*
X2265301Y-7532674D01*
X2265301Y-7532674D02*
X2265301Y-7580293D01*
X2265301Y-7580293D02*
X2255777Y-7618388D01*
X2255777Y-7618388D02*
X2246253Y-7637436D01*
X2246253Y-7637436D02*
X2236729Y-7646960D01*
X2236729Y-7646960D02*
X2217682Y-7656484D01*
X2217682Y-7656484D02*
X2198634Y-7656484D01*
X2198634Y-7656484D02*
X2179587Y-7646960D01*
X2179587Y-7646960D02*
X2170063Y-7637436D01*
X2170063Y-7637436D02*
X2160539Y-7618388D01*
X2160539Y-7618388D02*
X2151015Y-7580293D01*
X2151015Y-7580293D02*
X2151015Y-7532674D01*
X2151015Y-7532674D02*
X2160539Y-7494579D01*
X2160539Y-7494579D02*
X2170063Y-7475531D01*
X2170063Y-7475531D02*
X2179587Y-7466008D01*
X2179587Y-7466008D02*
X2198634Y-7456484D01*
X2351015Y-7637436D02*
X2360539Y-7646960D01*
X2360539Y-7646960D02*
X2351015Y-7656484D01*
X2351015Y-7656484D02*
X2341491Y-7646960D01*
X2341491Y-7646960D02*
X2351015Y-7637436D01*
X2351015Y-7637436D02*
X2351015Y-7656484D01*
X2484348Y-7456484D02*
X2503396Y-7456484D01*
X2503396Y-7456484D02*
X2522444Y-7466008D01*
X2522444Y-7466008D02*
X2531968Y-7475531D01*
X2531968Y-7475531D02*
X2541491Y-7494579D01*
X2541491Y-7494579D02*
X2551015Y-7532674D01*
X2551015Y-7532674D02*
X2551015Y-7580293D01*
X2551015Y-7580293D02*
X2541491Y-7618388D01*
X2541491Y-7618388D02*
X2531968Y-7637436D01*
X2531968Y-7637436D02*
X2522444Y-7646960D01*
X2522444Y-7646960D02*
X2503396Y-7656484D01*
X2503396Y-7656484D02*
X2484348Y-7656484D01*
X2484348Y-7656484D02*
X2465301Y-7646960D01*
X2465301Y-7646960D02*
X2455777Y-7637436D01*
X2455777Y-7637436D02*
X2446253Y-7618388D01*
X2446253Y-7618388D02*
X2436729Y-7580293D01*
X2436729Y-7580293D02*
X2436729Y-7532674D01*
X2436729Y-7532674D02*
X2446253Y-7494579D01*
X2446253Y-7494579D02*
X2455777Y-7475531D01*
X2455777Y-7475531D02*
X2465301Y-7466008D01*
X2465301Y-7466008D02*
X2484348Y-7456484D01*
X2731968Y-7456484D02*
X2636729Y-7456484D01*
X2636729Y-7456484D02*
X2627206Y-7551722D01*
X2627206Y-7551722D02*
X2636729Y-7542198D01*
X2636729Y-7542198D02*
X2655777Y-7532674D01*
X2655777Y-7532674D02*
X2703396Y-7532674D01*
X2703396Y-7532674D02*
X2722444Y-7542198D01*
X2722444Y-7542198D02*
X2731968Y-7551722D01*
X2731968Y-7551722D02*
X2741491Y-7570769D01*
X2741491Y-7570769D02*
X2741491Y-7618388D01*
X2741491Y-7618388D02*
X2731968Y-7637436D01*
X2731968Y-7637436D02*
X2722444Y-7646960D01*
X2722444Y-7646960D02*
X2703396Y-7656484D01*
X2703396Y-7656484D02*
X2655777Y-7656484D01*
X2655777Y-7656484D02*
X2636729Y-7646960D01*
X2636729Y-7646960D02*
X2627206Y-7637436D01*
X2865301Y-7456484D02*
X2884348Y-7456484D01*
X2884348Y-7456484D02*
X2903396Y-7466008D01*
X2903396Y-7466008D02*
X2912920Y-7475531D01*
X2912920Y-7475531D02*
X2922444Y-7494579D01*
X2922444Y-7494579D02*
X2931967Y-7532674D01*
X2931967Y-7532674D02*
X2931967Y-7580293D01*
X2931967Y-7580293D02*
X2922444Y-7618388D01*
X2922444Y-7618388D02*
X2912920Y-7637436D01*
X2912920Y-7637436D02*
X2903396Y-7646960D01*
X2903396Y-7646960D02*
X2884348Y-7656484D01*
X2884348Y-7656484D02*
X2865301Y-7656484D01*
X2865301Y-7656484D02*
X2846253Y-7646960D01*
X2846253Y-7646960D02*
X2836729Y-7637436D01*
X2836729Y-7637436D02*
X2827206Y-7618388D01*
X2827206Y-7618388D02*
X2817682Y-7580293D01*
X2817682Y-7580293D02*
X2817682Y-7532674D01*
X2817682Y-7532674D02*
X2827206Y-7494579D01*
X2827206Y-7494579D02*
X2836729Y-7475531D01*
X2836729Y-7475531D02*
X2846253Y-7466008D01*
X2846253Y-7466008D02*
X2865301Y-7456484D01*
X3055777Y-7456484D02*
X3074825Y-7456484D01*
X3074825Y-7456484D02*
X3093872Y-7466008D01*
X3093872Y-7466008D02*
X3103396Y-7475531D01*
X3103396Y-7475531D02*
X3112920Y-7494579D01*
X3112920Y-7494579D02*
X3122444Y-7532674D01*
X3122444Y-7532674D02*
X3122444Y-7580293D01*
X3122444Y-7580293D02*
X3112920Y-7618388D01*
X3112920Y-7618388D02*
X3103396Y-7637436D01*
X3103396Y-7637436D02*
X3093872Y-7646960D01*
X3093872Y-7646960D02*
X3074825Y-7656484D01*
X3074825Y-7656484D02*
X3055777Y-7656484D01*
X3055777Y-7656484D02*
X3036729Y-7646960D01*
X3036729Y-7646960D02*
X3027206Y-7637436D01*
X3027206Y-7637436D02*
X3017682Y-7618388D01*
X3017682Y-7618388D02*
X3008158Y-7580293D01*
X3008158Y-7580293D02*
X3008158Y-7532674D01*
X3008158Y-7532674D02*
X3017682Y-7494579D01*
X3017682Y-7494579D02*
X3027206Y-7475531D01*
X3027206Y-7475531D02*
X3036729Y-7466008D01*
X3036729Y-7466008D02*
X3055777Y-7456484D01*
X3198634Y-7456484D02*
X3198634Y-7494579D01*
X3274825Y-7456484D02*
X3274825Y-7494579D01*
X3570063Y-7732674D02*
X3560539Y-7723150D01*
X3560539Y-7723150D02*
X3541491Y-7694579D01*
X3541491Y-7694579D02*
X3531968Y-7675531D01*
X3531968Y-7675531D02*
X3522444Y-7646960D01*
X3522444Y-7646960D02*
X3512920Y-7599341D01*
X3512920Y-7599341D02*
X3512920Y-7561246D01*
X3512920Y-7561246D02*
X3522444Y-7513627D01*
X3522444Y-7513627D02*
X3531968Y-7485055D01*
X3531968Y-7485055D02*
X3541491Y-7466008D01*
X3541491Y-7466008D02*
X3560539Y-7437436D01*
X3560539Y-7437436D02*
X3570063Y-7427912D01*
X3731968Y-7523150D02*
X3731968Y-7656484D01*
X3684348Y-7446960D02*
X3636729Y-7589817D01*
X3636729Y-7589817D02*
X3760539Y-7589817D01*
X3989110Y-7656484D02*
X3989110Y-7456484D01*
X4074825Y-7656484D02*
X4074825Y-7551722D01*
X4074825Y-7551722D02*
X4065301Y-7532674D01*
X4065301Y-7532674D02*
X4046253Y-7523150D01*
X4046253Y-7523150D02*
X4017682Y-7523150D01*
X4017682Y-7523150D02*
X3998634Y-7532674D01*
X3998634Y-7532674D02*
X3989110Y-7542198D01*
X4198634Y-7656484D02*
X4179587Y-7646960D01*
X4179587Y-7646960D02*
X4170063Y-7637436D01*
X4170063Y-7637436D02*
X4160539Y-7618388D01*
X4160539Y-7618388D02*
X4160539Y-7561246D01*
X4160539Y-7561246D02*
X4170063Y-7542198D01*
X4170063Y-7542198D02*
X4179587Y-7532674D01*
X4179587Y-7532674D02*
X4198634Y-7523150D01*
X4198634Y-7523150D02*
X4227206Y-7523150D01*
X4227206Y-7523150D02*
X4246253Y-7532674D01*
X4246253Y-7532674D02*
X4255777Y-7542198D01*
X4255777Y-7542198D02*
X4265301Y-7561246D01*
X4265301Y-7561246D02*
X4265301Y-7618388D01*
X4265301Y-7618388D02*
X4255777Y-7637436D01*
X4255777Y-7637436D02*
X4246253Y-7646960D01*
X4246253Y-7646960D02*
X4227206Y-7656484D01*
X4227206Y-7656484D02*
X4198634Y-7656484D01*
X4379587Y-7656484D02*
X4360539Y-7646960D01*
X4360539Y-7646960D02*
X4351015Y-7627912D01*
X4351015Y-7627912D02*
X4351015Y-7456484D01*
X4531968Y-7646960D02*
X4512920Y-7656484D01*
X4512920Y-7656484D02*
X4474825Y-7656484D01*
X4474825Y-7656484D02*
X4455777Y-7646960D01*
X4455777Y-7646960D02*
X4446253Y-7627912D01*
X4446253Y-7627912D02*
X4446253Y-7551722D01*
X4446253Y-7551722D02*
X4455777Y-7532674D01*
X4455777Y-7532674D02*
X4474825Y-7523150D01*
X4474825Y-7523150D02*
X4512920Y-7523150D01*
X4512920Y-7523150D02*
X4531968Y-7532674D01*
X4531968Y-7532674D02*
X4541492Y-7551722D01*
X4541492Y-7551722D02*
X4541492Y-7570769D01*
X4541492Y-7570769D02*
X4446253Y-7589817D01*
X4617682Y-7646960D02*
X4636730Y-7656484D01*
X4636730Y-7656484D02*
X4674825Y-7656484D01*
X4674825Y-7656484D02*
X4693873Y-7646960D01*
X4693873Y-7646960D02*
X4703396Y-7627912D01*
X4703396Y-7627912D02*
X4703396Y-7618388D01*
X4703396Y-7618388D02*
X4693873Y-7599341D01*
X4693873Y-7599341D02*
X4674825Y-7589817D01*
X4674825Y-7589817D02*
X4646253Y-7589817D01*
X4646253Y-7589817D02*
X4627206Y-7580293D01*
X4627206Y-7580293D02*
X4617682Y-7561246D01*
X4617682Y-7561246D02*
X4617682Y-7551722D01*
X4617682Y-7551722D02*
X4627206Y-7532674D01*
X4627206Y-7532674D02*
X4646253Y-7523150D01*
X4646253Y-7523150D02*
X4674825Y-7523150D01*
X4674825Y-7523150D02*
X4693873Y-7532674D01*
X4770063Y-7732674D02*
X4779587Y-7723150D01*
X4779587Y-7723150D02*
X4798634Y-7694579D01*
X4798634Y-7694579D02*
X4808158Y-7675531D01*
X4808158Y-7675531D02*
X4817682Y-7646960D01*
X4817682Y-7646960D02*
X4827206Y-7599341D01*
X4827206Y-7599341D02*
X4827206Y-7561246D01*
X4827206Y-7561246D02*
X4817682Y-7513627D01*
X4817682Y-7513627D02*
X4808158Y-7485055D01*
X4808158Y-7485055D02*
X4798634Y-7466008D01*
X4798634Y-7466008D02*
X4779587Y-7437436D01*
X4779587Y-7437436D02*
X4770063Y-7427912D01*
X5131968Y-7732674D02*
X5122444Y-7723150D01*
X5122444Y-7723150D02*
X5103396Y-7694579D01*
X5103396Y-7694579D02*
X5093873Y-7675531D01*
X5093873Y-7675531D02*
X5084349Y-7646960D01*
X5084349Y-7646960D02*
X5074825Y-7599341D01*
X5074825Y-7599341D02*
X5074825Y-7561246D01*
X5074825Y-7561246D02*
X5084349Y-7513627D01*
X5084349Y-7513627D02*
X5093873Y-7485055D01*
X5093873Y-7485055D02*
X5103396Y-7466008D01*
X5103396Y-7466008D02*
X5122444Y-7437436D01*
X5122444Y-7437436D02*
X5131968Y-7427912D01*
X5208158Y-7523150D02*
X5208158Y-7656484D01*
X5208158Y-7542198D02*
X5217682Y-7532674D01*
X5217682Y-7532674D02*
X5236730Y-7523150D01*
X5236730Y-7523150D02*
X5265301Y-7523150D01*
X5265301Y-7523150D02*
X5284349Y-7532674D01*
X5284349Y-7532674D02*
X5293873Y-7551722D01*
X5293873Y-7551722D02*
X5293873Y-7656484D01*
X5417682Y-7656484D02*
X5398634Y-7646960D01*
X5398634Y-7646960D02*
X5389111Y-7637436D01*
X5389111Y-7637436D02*
X5379587Y-7618388D01*
X5379587Y-7618388D02*
X5379587Y-7561246D01*
X5379587Y-7561246D02*
X5389111Y-7542198D01*
X5389111Y-7542198D02*
X5398634Y-7532674D01*
X5398634Y-7532674D02*
X5417682Y-7523150D01*
X5417682Y-7523150D02*
X5446254Y-7523150D01*
X5446254Y-7523150D02*
X5465301Y-7532674D01*
X5465301Y-7532674D02*
X5474825Y-7542198D01*
X5474825Y-7542198D02*
X5484349Y-7561246D01*
X5484349Y-7561246D02*
X5484349Y-7618388D01*
X5484349Y-7618388D02*
X5474825Y-7637436D01*
X5474825Y-7637436D02*
X5465301Y-7646960D01*
X5465301Y-7646960D02*
X5446254Y-7656484D01*
X5446254Y-7656484D02*
X5417682Y-7656484D01*
X5541492Y-7523150D02*
X5617682Y-7523150D01*
X5570063Y-7456484D02*
X5570063Y-7627912D01*
X5570063Y-7627912D02*
X5579587Y-7646960D01*
X5579587Y-7646960D02*
X5598634Y-7656484D01*
X5598634Y-7656484D02*
X5617682Y-7656484D01*
X5836730Y-7523150D02*
X5836730Y-7723150D01*
X5836730Y-7532674D02*
X5855777Y-7523150D01*
X5855777Y-7523150D02*
X5893873Y-7523150D01*
X5893873Y-7523150D02*
X5912920Y-7532674D01*
X5912920Y-7532674D02*
X5922444Y-7542198D01*
X5922444Y-7542198D02*
X5931968Y-7561246D01*
X5931968Y-7561246D02*
X5931968Y-7618388D01*
X5931968Y-7618388D02*
X5922444Y-7637436D01*
X5922444Y-7637436D02*
X5912920Y-7646960D01*
X5912920Y-7646960D02*
X5893873Y-7656484D01*
X5893873Y-7656484D02*
X5855777Y-7656484D01*
X5855777Y-7656484D02*
X5836730Y-7646960D01*
X6046253Y-7656484D02*
X6027206Y-7646960D01*
X6027206Y-7646960D02*
X6017682Y-7627912D01*
X6017682Y-7627912D02*
X6017682Y-7456484D01*
X6208158Y-7656484D02*
X6208158Y-7551722D01*
X6208158Y-7551722D02*
X6198634Y-7532674D01*
X6198634Y-7532674D02*
X6179587Y-7523150D01*
X6179587Y-7523150D02*
X6141492Y-7523150D01*
X6141492Y-7523150D02*
X6122444Y-7532674D01*
X6208158Y-7646960D02*
X6189111Y-7656484D01*
X6189111Y-7656484D02*
X6141492Y-7656484D01*
X6141492Y-7656484D02*
X6122444Y-7646960D01*
X6122444Y-7646960D02*
X6112920Y-7627912D01*
X6112920Y-7627912D02*
X6112920Y-7608865D01*
X6112920Y-7608865D02*
X6122444Y-7589817D01*
X6122444Y-7589817D02*
X6141492Y-7580293D01*
X6141492Y-7580293D02*
X6189111Y-7580293D01*
X6189111Y-7580293D02*
X6208158Y-7570769D01*
X6274825Y-7523150D02*
X6351015Y-7523150D01*
X6303396Y-7456484D02*
X6303396Y-7627912D01*
X6303396Y-7627912D02*
X6312920Y-7646960D01*
X6312920Y-7646960D02*
X6331968Y-7656484D01*
X6331968Y-7656484D02*
X6351015Y-7656484D01*
X6493873Y-7646960D02*
X6474825Y-7656484D01*
X6474825Y-7656484D02*
X6436730Y-7656484D01*
X6436730Y-7656484D02*
X6417682Y-7646960D01*
X6417682Y-7646960D02*
X6408158Y-7627912D01*
X6408158Y-7627912D02*
X6408158Y-7551722D01*
X6408158Y-7551722D02*
X6417682Y-7532674D01*
X6417682Y-7532674D02*
X6436730Y-7523150D01*
X6436730Y-7523150D02*
X6474825Y-7523150D01*
X6474825Y-7523150D02*
X6493873Y-7532674D01*
X6493873Y-7532674D02*
X6503396Y-7551722D01*
X6503396Y-7551722D02*
X6503396Y-7570769D01*
X6503396Y-7570769D02*
X6408158Y-7589817D01*
X6674825Y-7656484D02*
X6674825Y-7456484D01*
X6674825Y-7646960D02*
X6655777Y-7656484D01*
X6655777Y-7656484D02*
X6617682Y-7656484D01*
X6617682Y-7656484D02*
X6598634Y-7646960D01*
X6598634Y-7646960D02*
X6589111Y-7637436D01*
X6589111Y-7637436D02*
X6579587Y-7618388D01*
X6579587Y-7618388D02*
X6579587Y-7561246D01*
X6579587Y-7561246D02*
X6589111Y-7542198D01*
X6589111Y-7542198D02*
X6598634Y-7532674D01*
X6598634Y-7532674D02*
X6617682Y-7523150D01*
X6617682Y-7523150D02*
X6655777Y-7523150D01*
X6655777Y-7523150D02*
X6674825Y-7532674D01*
X6751015Y-7732674D02*
X6760539Y-7723150D01*
X6760539Y-7723150D02*
X6779587Y-7694579D01*
X6779587Y-7694579D02*
X6789111Y-7675531D01*
X6789111Y-7675531D02*
X6798634Y-7646960D01*
X6798634Y-7646960D02*
X6808158Y-7599341D01*
X6808158Y-7599341D02*
X6808158Y-7561246D01*
X6808158Y-7561246D02*
X6798634Y-7513627D01*
X6798634Y-7513627D02*
X6789111Y-7485055D01*
X6789111Y-7485055D02*
X6779587Y-7466008D01*
X6779587Y-7466008D02*
X6760539Y-7437436D01*
X6760539Y-7437436D02*
X6751015Y-7427912D01*
M02*
