%TF.GenerationSoftware,KiCad,Pcbnew,10.0.3*%
%TF.CreationDate,2026-05-31T14:52:19-04:00*%
%TF.ProjectId,tesla-dual-lin-rev-a,7465736c-612d-4647-9561-6c2d6c696e2d,A*%
%TF.SameCoordinates,Original*%
%TF.FileFunction,Legend,Top*%
%TF.FilePolarity,Positive*%
%FSLAX46Y46*%
G04 Gerber Fmt 4.6, Leading zero omitted, Abs format (unit mm)*
G04 Created by KiCad (PCBNEW 10.0.3) date 2026-05-31 14:52:19*
%MOMM*%
%LPD*%
G01*
G04 APERTURE LIST*
%ADD10C,0.100000*%
G04 APERTURE END LIST*
D10*
X1484836Y-23164895D02*
X1484836Y-23736323D01*
X1484836Y-23736323D02*
X1446741Y-23850609D01*
X1446741Y-23850609D02*
X1370550Y-23926800D01*
X1370550Y-23926800D02*
X1256265Y-23964895D01*
X1256265Y-23964895D02*
X1180074Y-23964895D01*
X1827693Y-23241085D02*
X1865789Y-23202990D01*
X1865789Y-23202990D02*
X1941979Y-23164895D01*
X1941979Y-23164895D02*
X2132455Y-23164895D01*
X2132455Y-23164895D02*
X2208646Y-23202990D01*
X2208646Y-23202990D02*
X2246741Y-23241085D01*
X2246741Y-23241085D02*
X2284836Y-23317276D01*
X2284836Y-23317276D02*
X2284836Y-23393466D01*
X2284836Y-23393466D02*
X2246741Y-23507752D01*
X2246741Y-23507752D02*
X1789598Y-23964895D01*
X1789598Y-23964895D02*
X2284836Y-23964895D01*
X3656265Y-23964895D02*
X3199122Y-23964895D01*
X3427694Y-23964895D02*
X3427694Y-23164895D01*
X3427694Y-23164895D02*
X3351503Y-23279180D01*
X3351503Y-23279180D02*
X3275313Y-23355371D01*
X3275313Y-23355371D02*
X3199122Y-23393466D01*
X3884837Y-23164895D02*
X4151504Y-23964895D01*
X4151504Y-23964895D02*
X4418170Y-23164895D01*
X5256265Y-23241085D02*
X5294361Y-23202990D01*
X5294361Y-23202990D02*
X5370551Y-23164895D01*
X5370551Y-23164895D02*
X5561027Y-23164895D01*
X5561027Y-23164895D02*
X5637218Y-23202990D01*
X5637218Y-23202990D02*
X5675313Y-23241085D01*
X5675313Y-23241085D02*
X5713408Y-23317276D01*
X5713408Y-23317276D02*
X5713408Y-23393466D01*
X5713408Y-23393466D02*
X5675313Y-23507752D01*
X5675313Y-23507752D02*
X5218170Y-23964895D01*
X5218170Y-23964895D02*
X5713408Y-23964895D01*
X6475313Y-23202990D02*
X6399123Y-23164895D01*
X6399123Y-23164895D02*
X6284837Y-23164895D01*
X6284837Y-23164895D02*
X6170551Y-23202990D01*
X6170551Y-23202990D02*
X6094361Y-23279180D01*
X6094361Y-23279180D02*
X6056266Y-23355371D01*
X6056266Y-23355371D02*
X6018170Y-23507752D01*
X6018170Y-23507752D02*
X6018170Y-23622038D01*
X6018170Y-23622038D02*
X6056266Y-23774419D01*
X6056266Y-23774419D02*
X6094361Y-23850609D01*
X6094361Y-23850609D02*
X6170551Y-23926800D01*
X6170551Y-23926800D02*
X6284837Y-23964895D01*
X6284837Y-23964895D02*
X6361028Y-23964895D01*
X6361028Y-23964895D02*
X6475313Y-23926800D01*
X6475313Y-23926800D02*
X6513409Y-23888704D01*
X6513409Y-23888704D02*
X6513409Y-23622038D01*
X6513409Y-23622038D02*
X6361028Y-23622038D01*
X7389599Y-23164895D02*
X7884837Y-23164895D01*
X7884837Y-23164895D02*
X7618171Y-23469657D01*
X7618171Y-23469657D02*
X7732456Y-23469657D01*
X7732456Y-23469657D02*
X7808647Y-23507752D01*
X7808647Y-23507752D02*
X7846742Y-23545847D01*
X7846742Y-23545847D02*
X7884837Y-23622038D01*
X7884837Y-23622038D02*
X7884837Y-23812514D01*
X7884837Y-23812514D02*
X7846742Y-23888704D01*
X7846742Y-23888704D02*
X7808647Y-23926800D01*
X7808647Y-23926800D02*
X7732456Y-23964895D01*
X7732456Y-23964895D02*
X7503885Y-23964895D01*
X7503885Y-23964895D02*
X7427694Y-23926800D01*
X7427694Y-23926800D02*
X7389599Y-23888704D01*
X8227695Y-23964895D02*
X8227695Y-23164895D01*
X8227695Y-23164895D02*
X8684838Y-23964895D01*
X8684838Y-23964895D02*
X8684838Y-23164895D01*
X9522933Y-23888704D02*
X9484837Y-23926800D01*
X9484837Y-23926800D02*
X9370552Y-23964895D01*
X9370552Y-23964895D02*
X9294361Y-23964895D01*
X9294361Y-23964895D02*
X9180075Y-23926800D01*
X9180075Y-23926800D02*
X9103885Y-23850609D01*
X9103885Y-23850609D02*
X9065790Y-23774419D01*
X9065790Y-23774419D02*
X9027694Y-23622038D01*
X9027694Y-23622038D02*
X9027694Y-23507752D01*
X9027694Y-23507752D02*
X9065790Y-23355371D01*
X9065790Y-23355371D02*
X9103885Y-23279180D01*
X9103885Y-23279180D02*
X9180075Y-23202990D01*
X9180075Y-23202990D02*
X9294361Y-23164895D01*
X9294361Y-23164895D02*
X9370552Y-23164895D01*
X9370552Y-23164895D02*
X9484837Y-23202990D01*
X9484837Y-23202990D02*
X9522933Y-23241085D01*
X10818171Y-23431561D02*
X10818171Y-23964895D01*
X10627695Y-23126800D02*
X10437218Y-23698228D01*
X10437218Y-23698228D02*
X10932457Y-23698228D01*
X11618171Y-23964895D02*
X11237219Y-23964895D01*
X11237219Y-23964895D02*
X11237219Y-23164895D01*
X1484836Y-35164895D02*
X1484836Y-35736323D01*
X1484836Y-35736323D02*
X1446741Y-35850609D01*
X1446741Y-35850609D02*
X1370550Y-35926800D01*
X1370550Y-35926800D02*
X1256265Y-35964895D01*
X1256265Y-35964895D02*
X1180074Y-35964895D01*
X1789598Y-35164895D02*
X2284836Y-35164895D01*
X2284836Y-35164895D02*
X2018170Y-35469657D01*
X2018170Y-35469657D02*
X2132455Y-35469657D01*
X2132455Y-35469657D02*
X2208646Y-35507752D01*
X2208646Y-35507752D02*
X2246741Y-35545847D01*
X2246741Y-35545847D02*
X2284836Y-35622038D01*
X2284836Y-35622038D02*
X2284836Y-35812514D01*
X2284836Y-35812514D02*
X2246741Y-35888704D01*
X2246741Y-35888704D02*
X2208646Y-35926800D01*
X2208646Y-35926800D02*
X2132455Y-35964895D01*
X2132455Y-35964895D02*
X1903884Y-35964895D01*
X1903884Y-35964895D02*
X1827693Y-35926800D01*
X1827693Y-35926800D02*
X1789598Y-35888704D01*
X3656265Y-35964895D02*
X3199122Y-35964895D01*
X3427694Y-35964895D02*
X3427694Y-35164895D01*
X3427694Y-35164895D02*
X3351503Y-35279180D01*
X3351503Y-35279180D02*
X3275313Y-35355371D01*
X3275313Y-35355371D02*
X3199122Y-35393466D01*
X3884837Y-35164895D02*
X4151504Y-35964895D01*
X4151504Y-35964895D02*
X4418170Y-35164895D01*
X5256265Y-35241085D02*
X5294361Y-35202990D01*
X5294361Y-35202990D02*
X5370551Y-35164895D01*
X5370551Y-35164895D02*
X5561027Y-35164895D01*
X5561027Y-35164895D02*
X5637218Y-35202990D01*
X5637218Y-35202990D02*
X5675313Y-35241085D01*
X5675313Y-35241085D02*
X5713408Y-35317276D01*
X5713408Y-35317276D02*
X5713408Y-35393466D01*
X5713408Y-35393466D02*
X5675313Y-35507752D01*
X5675313Y-35507752D02*
X5218170Y-35964895D01*
X5218170Y-35964895D02*
X5713408Y-35964895D01*
X6475313Y-35202990D02*
X6399123Y-35164895D01*
X6399123Y-35164895D02*
X6284837Y-35164895D01*
X6284837Y-35164895D02*
X6170551Y-35202990D01*
X6170551Y-35202990D02*
X6094361Y-35279180D01*
X6094361Y-35279180D02*
X6056266Y-35355371D01*
X6056266Y-35355371D02*
X6018170Y-35507752D01*
X6018170Y-35507752D02*
X6018170Y-35622038D01*
X6018170Y-35622038D02*
X6056266Y-35774419D01*
X6056266Y-35774419D02*
X6094361Y-35850609D01*
X6094361Y-35850609D02*
X6170551Y-35926800D01*
X6170551Y-35926800D02*
X6284837Y-35964895D01*
X6284837Y-35964895D02*
X6361028Y-35964895D01*
X6361028Y-35964895D02*
X6475313Y-35926800D01*
X6475313Y-35926800D02*
X6513409Y-35888704D01*
X6513409Y-35888704D02*
X6513409Y-35622038D01*
X6513409Y-35622038D02*
X6361028Y-35622038D01*
X7389599Y-35164895D02*
X7884837Y-35164895D01*
X7884837Y-35164895D02*
X7618171Y-35469657D01*
X7618171Y-35469657D02*
X7732456Y-35469657D01*
X7732456Y-35469657D02*
X7808647Y-35507752D01*
X7808647Y-35507752D02*
X7846742Y-35545847D01*
X7846742Y-35545847D02*
X7884837Y-35622038D01*
X7884837Y-35622038D02*
X7884837Y-35812514D01*
X7884837Y-35812514D02*
X7846742Y-35888704D01*
X7846742Y-35888704D02*
X7808647Y-35926800D01*
X7808647Y-35926800D02*
X7732456Y-35964895D01*
X7732456Y-35964895D02*
X7503885Y-35964895D01*
X7503885Y-35964895D02*
X7427694Y-35926800D01*
X7427694Y-35926800D02*
X7389599Y-35888704D01*
X8227695Y-35964895D02*
X8227695Y-35164895D01*
X8227695Y-35164895D02*
X8684838Y-35964895D01*
X8684838Y-35964895D02*
X8684838Y-35164895D01*
X9522933Y-35888704D02*
X9484837Y-35926800D01*
X9484837Y-35926800D02*
X9370552Y-35964895D01*
X9370552Y-35964895D02*
X9294361Y-35964895D01*
X9294361Y-35964895D02*
X9180075Y-35926800D01*
X9180075Y-35926800D02*
X9103885Y-35850609D01*
X9103885Y-35850609D02*
X9065790Y-35774419D01*
X9065790Y-35774419D02*
X9027694Y-35622038D01*
X9027694Y-35622038D02*
X9027694Y-35507752D01*
X9027694Y-35507752D02*
X9065790Y-35355371D01*
X9065790Y-35355371D02*
X9103885Y-35279180D01*
X9103885Y-35279180D02*
X9180075Y-35202990D01*
X9180075Y-35202990D02*
X9294361Y-35164895D01*
X9294361Y-35164895D02*
X9370552Y-35164895D01*
X9370552Y-35164895D02*
X9484837Y-35202990D01*
X9484837Y-35202990D02*
X9522933Y-35241085D01*
X10818171Y-35431561D02*
X10818171Y-35964895D01*
X10627695Y-35126800D02*
X10437218Y-35698228D01*
X10437218Y-35698228D02*
X10932457Y-35698228D01*
X11618171Y-35964895D02*
X11237219Y-35964895D01*
X11237219Y-35964895D02*
X11237219Y-35164895D01*
M02*
