M48
; DRILL file KiCad 10.0.3 date 2026-05-31T14:52:19
; FORMAT={-:-/ absolute / metric / decimal}
; #@! TF.CreationDate,2026-05-31T14:52:19-04:00
; #@! TF.GenerationSoftware,Kicad,Pcbnew,10.0.3
; #@! TF.FileFunction,MixedPlating,1,4
FMAT,2
METRIC
; #@! TA.AperFunction,Plated,PTH,ViaDrill
T1C0.300
; #@! TA.AperFunction,Plated,PTH,ComponentDrill
T2C0.300
; #@! TA.AperFunction,Plated,PTH,ComponentDrill
T3C0.600
; #@! TA.AperFunction,Plated,PTH,ComponentDrill
T4C1.020
; #@! TA.AperFunction,NonPlated,NPTH,ComponentDrill
T5C0.650
; #@! TA.AperFunction,NonPlated,NPTH,ComponentDrill
T6C1.270
%
G90
G05
T1
X2.2Y-8.2
X2.2Y-38.2
X2.2Y-44.2
X8.2Y-2.2
X8.2Y-8.2
X9.15Y-42.243
X10.215Y-13.21
X10.431Y-45.436
X14.2Y-2.2
X15.066Y-40.87
X15.373Y-38.96
X16.109Y-24.706
X16.109Y-33.916
X16.274Y-39.099
X18.473Y-9.284
X19.99Y-13.696
X20.2Y-2.2
X20.2Y-8.2
X20.2Y-20.2
X20.2Y-26.2
X20.2Y-32.2
X20.2Y-44.2
X21.369Y-33.916
X22.003Y-12.224
X22.931Y-14.338
X24.879Y-38.96
X26.162Y-12.816
X26.2Y-2.2
X26.2Y-14.2
X26.2Y-20.2
X26.2Y-26.2
X26.2Y-32.2
X26.2Y-44.2
X26.961Y-38.942
X27.224Y-12.316
X27.599Y-39.833
X31.284Y-49.937
X32.2Y-2.2
X32.2Y-8.2
X32.2Y-20.2
X32.2Y-32.2
X32.2Y-38.2
X32.2Y-44.2
X33.792Y-24.349
X38.2Y-2.2
X38.2Y-8.2
X38.2Y-14.2
X38.2Y-20.2
X38.2Y-26.2
X38.2Y-32.2
X38.2Y-38.2
X38.2Y-44.2
X42.633Y-31.632
X42.633Y-40.705
X43.069Y-7.282
X44.2Y-2.2
X44.2Y-14.2
X44.2Y-20.2
X44.2Y-26.2
X44.2Y-38.2
X44.2Y-44.2
X44.434Y-18.839
X47.494Y-34.074
X47.735Y-48.238
X47.974Y-25.928
X48.275Y-6.857
X48.516Y-31.633
X48.527Y-51.673
X50.2Y-2.2
X50.2Y-14.2
X50.2Y-20.2
X50.2Y-26.2
X50.2Y-38.2
X50.2Y-44.2
X50.682Y-10.968
X54.349Y-48.705
X54.421Y-8.119
X54.421Y-19.779
X56.2Y-2.2
X56.2Y-20.2
X56.2Y-26.2
X56.2Y-44.2
X56.873Y-30.811
X57.125Y-39.05
X58.346Y-7.999
X59.546Y-49.361
X60.043Y-37.371
X60.316Y-23.244
X60.508Y-13.21
X61.102Y-30.107
X61.102Y-33.916
X62.2Y-2.2
X62.2Y-14.2
X62.2Y-26.2
X62.2Y-32.2
X62.648Y-43.438
X63.264Y-52.808
X63.866Y-43.459
X63.981Y-35.718
X64.05Y-41.786
X64.224Y-49.523
X64.409Y-16.654
X64.725Y-43.615
X65.402Y-14.024
X65.755Y-31.656
X65.84Y-32.793
X66.21Y-28.443
X66.21Y-39.831
X68.2Y-2.2
X68.2Y-14.2
X68.2Y-26.2
X68.2Y-38.2
X72.402Y-7.295
X74.177Y-48.238
X74.2Y-14.2
X74.2Y-26.2
X74.2Y-38.2
X74.203Y-45.343
X74.749Y-46.063
X76.167Y-47.201
X77.5Y-10.5
X77.903Y-48.458
X78.167Y-23.443
X78.182Y-1.718
X78.373Y-36.874
X80.2Y-20.2
X80.895Y-4.324
X81.115Y-41.816
X81.209Y-54.886
X81.718Y-16.168
X81.741Y-3.507
X82.0Y-10.5
X82.477Y-4.017
X82.492Y-5.595
X82.955Y-36.874
X83.051Y-39.479
X83.342Y-13.782
X83.591Y-28.0
X83.595Y-46.057
X83.892Y-54.271
X84.383Y-46.802
X84.925Y-39.476
X86.028Y-49.68
X86.5Y-10.5
X86.932Y-1.21
X87.296Y-11.249
X92.2Y-8.2
X92.2Y-14.2
X92.734Y-30.958
X92.813Y-52.025
X98.2Y-8.2
X98.2Y-14.2
X98.2Y-20.2
X98.2Y-44.2
T2
X15.045Y-10.7
X15.045Y-12.0
X15.045Y-13.3
X16.955Y-10.7
X16.955Y-12.0
X16.955Y-13.3
X87.1Y-30.61
X87.1Y-32.01
X87.8Y-29.91
X87.8Y-31.31
X87.8Y-32.71
X88.5Y-30.61
X88.5Y-32.01
X89.2Y-29.91
X89.2Y-31.31
X89.2Y-32.71
X89.9Y-30.61
X89.9Y-32.01
T4
X6.0Y-18.0
X6.0Y-30.0
X9.0Y-18.0
X9.0Y-30.0
X12.0Y-18.0
X12.0Y-30.0
X15.0Y-18.0
X15.0Y-30.0
T5
X79.11Y-3.4
X84.89Y-3.4
T6
X3.0Y-16.04
X3.0Y-28.04
X18.0Y-16.04
X18.0Y-28.04
T3
X77.68Y-2.32G85X77.68Y-3.42
G05
X77.68Y-6.75G85X77.68Y-7.35
G05
X86.32Y-2.32G85X86.32Y-3.42
G05
X86.32Y-6.75G85X86.32Y-7.35
G05
M30
