%TF.GenerationSoftware,KiCad,Pcbnew,10.0.3*%
%TF.CreationDate,2026-05-29T20:12:46-04:00*%
%TF.ProjectId,tesla-dual-lin-rev-a,7465736c-612d-4647-9561-6c2d6c696e2d,A*%
%TF.SameCoordinates,Original*%
%TF.FileFunction,Paste,Top*%
%TF.FilePolarity,Positive*%
%FSLAX46Y46*%
G04 Gerber Fmt 4.6, Leading zero omitted, Abs format (unit mm)*
G04 Created by KiCad (PCBNEW 10.0.3) date 2026-05-29 20:12:46*
%MOMM*%
%LPD*%
G01*
G04 APERTURE LIST*
G04 Aperture macros list*
%AMRoundRect*
0 Rectangle with rounded corners*
0 $1 Rounding radius*
0 $2 $3 $4 $5 $6 $7 $8 $9 X,Y pos of 4 corners*
0 Add a 4 corners polygon primitive as box body*
4,1,4,$2,$3,$4,$5,$6,$7,$8,$9,$2,$3,0*
0 Add four circle primitives for the rounded corners*
1,1,$1+$1,$2,$3*
1,1,$1+$1,$4,$5*
1,1,$1+$1,$6,$7*
1,1,$1+$1,$8,$9*
0 Add four rect primitives between the rounded corners*
20,1,$1+$1,$2,$3,$4,$5,0*
20,1,$1+$1,$4,$5,$6,$7,0*
20,1,$1+$1,$6,$7,$8,$9,0*
20,1,$1+$1,$8,$9,$2,$3,0*%
G04 Aperture macros list end*
%ADD10RoundRect,0.242500X-0.242500X-0.382500X0.242500X-0.382500X0.242500X0.382500X-0.242500X0.382500X0*%
%ADD11RoundRect,0.150000X-0.650000X-0.150000X0.650000X-0.150000X0.650000X0.150000X-0.650000X0.150000X0*%
%ADD12RoundRect,0.250000X-0.325000X-0.650000X0.325000X-0.650000X0.325000X0.650000X-0.325000X0.650000X0*%
%ADD13RoundRect,0.275000X-0.275000X-0.725000X0.275000X-0.725000X0.275000X0.725000X-0.275000X0.725000X0*%
%ADD14RoundRect,0.275000X-0.725000X0.275000X-0.725000X-0.275000X0.725000X-0.275000X0.725000X0.275000X0*%
%ADD15RoundRect,0.275000X0.725000X-0.275000X0.725000X0.275000X-0.725000X0.275000X-0.725000X-0.275000X0*%
%ADD16RoundRect,0.225000X-0.225000X-0.250000X0.225000X-0.250000X0.225000X0.250000X-0.225000X0.250000X0*%
%ADD17RoundRect,0.200000X-0.200000X-0.275000X0.200000X-0.275000X0.200000X0.275000X-0.200000X0.275000X0*%
%ADD18RoundRect,0.150000X-0.825000X-0.150000X0.825000X-0.150000X0.825000X0.150000X-0.825000X0.150000X0*%
%ADD19RoundRect,0.250000X-0.312500X-1.450000X0.312500X-1.450000X0.312500X1.450000X-0.312500X1.450000X0*%
%ADD20RoundRect,0.250000X-1.000000X-0.900000X1.000000X-0.900000X1.000000X0.900000X-1.000000X0.900000X0*%
%ADD21RoundRect,0.250000X-0.275000X-0.700000X0.275000X-0.700000X0.275000X0.700000X-0.275000X0.700000X0*%
%ADD22RoundRect,0.112500X-0.187500X-0.112500X0.187500X-0.112500X0.187500X0.112500X-0.187500X0.112500X0*%
%ADD23R,0.900000X0.900000*%
%ADD24R,1.500000X0.900000*%
%ADD25R,0.900000X1.500000*%
%ADD26R,1.000000X1.600000*%
%ADD27RoundRect,0.150000X-0.150000X-0.575000X0.150000X-0.575000X0.150000X0.575000X-0.150000X0.575000X0*%
%ADD28RoundRect,0.075000X-0.075000X-0.650000X0.075000X-0.650000X0.075000X0.650000X-0.075000X0.650000X0*%
%ADD29RoundRect,0.150000X-0.512500X-0.150000X0.512500X-0.150000X0.512500X0.150000X-0.512500X0.150000X0*%
G04 APERTURE END LIST*
D10*
%TO.C,U4*%
X15400000Y-11225000D03*
X15400000Y-12775000D03*
X16600000Y-11225000D03*
X16600000Y-12775000D03*
D11*
X13350000Y-10095000D03*
X13350000Y-11365000D03*
X13350000Y-12635000D03*
X13350000Y-13905000D03*
X18650000Y-13905000D03*
X18650000Y-12635000D03*
X18650000Y-11365000D03*
X18650000Y-10095000D03*
%TD*%
D12*
%TO.C,C_IN*%
X28525000Y-12000000D03*
X31475000Y-12000000D03*
%TD*%
D13*
%TO.C,L1*%
X13600000Y-24000000D03*
X18400000Y-24000000D03*
D14*
X16000000Y-21600000D03*
D15*
X16000000Y-26400000D03*
%TD*%
D12*
%TO.C,C_3V3*%
X28525000Y-24000000D03*
X31475000Y-24000000D03*
%TD*%
D16*
%TO.C,C_BST*%
X21225000Y-36000000D03*
X22775000Y-36000000D03*
%TD*%
D17*
%TO.C,R_FB_TOP*%
X9175000Y-40000000D03*
X10825000Y-40000000D03*
%TD*%
%TO.C,R_FB_BOT*%
X14175000Y-40000000D03*
X15825000Y-40000000D03*
%TD*%
%TO.C,R_BUCK_EN*%
X19175000Y-40000000D03*
X20825000Y-40000000D03*
%TD*%
%TO.C,R_BUCK_RON*%
X24175000Y-40000000D03*
X25825000Y-40000000D03*
%TD*%
%TO.C,R_PGOOD_PU*%
X29175000Y-40000000D03*
X30825000Y-40000000D03*
%TD*%
D18*
%TO.C,Q1*%
X7525000Y-42095000D03*
X7525000Y-43365000D03*
X7525000Y-44635000D03*
X7525000Y-45905000D03*
X12475000Y-45905000D03*
X12475000Y-44635000D03*
X12475000Y-43365000D03*
X12475000Y-42095000D03*
%TD*%
D19*
%TO.C,F1*%
X13862500Y-50000000D03*
X18137500Y-50000000D03*
%TD*%
D20*
%TO.C,D1*%
X27850000Y-48000000D03*
X32150000Y-48000000D03*
%TD*%
D21*
%TO.C,FB1*%
X42425000Y-48000000D03*
X45575000Y-48000000D03*
%TD*%
D18*
%TO.C,U2*%
X45525000Y-6095000D03*
X45525000Y-7365000D03*
X45525000Y-8635000D03*
X45525000Y-9905000D03*
X50475000Y-9905000D03*
X50475000Y-8635000D03*
X50475000Y-7365000D03*
X50475000Y-6095000D03*
%TD*%
%TO.C,U3*%
X45525000Y-30095000D03*
X45525000Y-31365000D03*
X45525000Y-32635000D03*
X45525000Y-33905000D03*
X50475000Y-33905000D03*
X50475000Y-32635000D03*
X50475000Y-31365000D03*
X50475000Y-30095000D03*
%TD*%
D17*
%TO.C,R_WAKE_A*%
X67175000Y-8000000D03*
X68825000Y-8000000D03*
%TD*%
%TO.C,R_WAKE_B*%
X72175000Y-8000000D03*
X73825000Y-8000000D03*
%TD*%
%TO.C,R_LINA_SER*%
X77175000Y-8000000D03*
X78825000Y-8000000D03*
%TD*%
%TO.C,R_LINB_SER*%
X67175000Y-32000000D03*
X68825000Y-32000000D03*
%TD*%
%TO.C,R_LINEN_PD*%
X72175000Y-32000000D03*
X73825000Y-32000000D03*
%TD*%
%TO.C,R_ARMSENSE_PD*%
X77175000Y-32000000D03*
X78825000Y-32000000D03*
%TD*%
D22*
%TO.C,D2*%
X66950000Y-20000000D03*
X69050000Y-20000000D03*
%TD*%
%TO.C,D3*%
X76950000Y-40000000D03*
X79050000Y-40000000D03*
%TD*%
D23*
%TO.C,U1*%
X87095606Y-32710000D03*
X87100000Y-29910000D03*
X87100000Y-31310000D03*
X88495606Y-32710000D03*
X88500000Y-29910000D03*
X88500000Y-31310000D03*
X89895606Y-32710000D03*
X89900000Y-29910000D03*
X89900000Y-31310000D03*
D24*
X81250000Y-23590000D03*
X81250000Y-24860000D03*
X81250000Y-26130000D03*
X81250000Y-27400000D03*
X81250000Y-28670000D03*
X81250000Y-29940000D03*
X81250000Y-31210000D03*
X81250000Y-32480000D03*
X81250000Y-33750000D03*
X81250000Y-35020000D03*
X81250000Y-36290000D03*
X81250000Y-37560000D03*
X81250000Y-38830000D03*
X81250000Y-40100000D03*
D25*
X83015000Y-41350000D03*
X84285000Y-41350000D03*
X85555000Y-41350000D03*
X86825000Y-41350000D03*
X88095000Y-41350000D03*
X89365000Y-41350000D03*
X90635000Y-41350000D03*
X91905000Y-41350000D03*
X93175000Y-41350000D03*
X94445000Y-41350000D03*
X95715000Y-41350000D03*
X96985000Y-41350000D03*
D24*
X98750000Y-40100000D03*
X98750000Y-38830000D03*
X98750000Y-37560000D03*
X98750000Y-36290000D03*
X98750000Y-35020000D03*
X98750000Y-33750000D03*
X98750000Y-32480000D03*
X98750000Y-31210000D03*
X98750000Y-29940000D03*
X98750000Y-28670000D03*
X98750000Y-27400000D03*
X98750000Y-26130000D03*
X98750000Y-24860000D03*
X98750000Y-23590000D03*
%TD*%
D26*
%TO.C,SW1*%
X63500000Y-44800000D03*
X66000000Y-44800000D03*
X68500000Y-44800000D03*
X63500000Y-47200000D03*
X66000000Y-47200000D03*
X68500000Y-47200000D03*
%TD*%
D27*
%TO.C,J1*%
X91955000Y-15250000D03*
X91955000Y-14450000D03*
D28*
X91955000Y-13250000D03*
X91955000Y-12250000D03*
X91955000Y-11750000D03*
X91955000Y-10750000D03*
D27*
X91955000Y-9550000D03*
X91955000Y-8750000D03*
X91955000Y-8750000D03*
X91955000Y-9550000D03*
D28*
X91955000Y-10250000D03*
X91955000Y-11250000D03*
X91955000Y-12750000D03*
X91955000Y-13750000D03*
D27*
X91955000Y-14450000D03*
X91955000Y-15250000D03*
%TD*%
D29*
%TO.C,D4*%
X82862500Y-9050000D03*
X82862500Y-10000000D03*
X82862500Y-10950000D03*
X85137500Y-10950000D03*
X85137500Y-10000000D03*
X85137500Y-9050000D03*
%TD*%
D17*
%TO.C,R_EN*%
X75175000Y-46000000D03*
X76825000Y-46000000D03*
%TD*%
%TO.C,R_BOOT*%
X80175000Y-46000000D03*
X81825000Y-46000000D03*
%TD*%
%TO.C,R_CC1*%
X75175000Y-52000000D03*
X76825000Y-52000000D03*
%TD*%
%TO.C,R_CC2*%
X80175000Y-52000000D03*
X81825000Y-52000000D03*
%TD*%
M02*
