%TF.GenerationSoftware,KiCad,Pcbnew,10.0.3*%
%TF.CreationDate,2026-05-29T20:12:46-04:00*%
%TF.ProjectId,tesla-dual-lin-rev-a,7465736c-612d-4647-9561-6c2d6c696e2d,A*%
%TF.SameCoordinates,Original*%
%TF.FileFunction,Copper,L1,Top*%
%TF.FilePolarity,Positive*%
%FSLAX46Y46*%
G04 Gerber Fmt 4.6, Leading zero omitted, Abs format (unit mm)*
G04 Created by KiCad (PCBNEW 10.0.3) date 2026-05-29 20:12:46*
%MOMM*%
%LPD*%
G01*
G04 APERTURE LIST*
G04 Aperture macros list*
%AMRoundRect*
0 Rectangle with rounded corners*
0 $1 Rounding radius*
0 $2 $3 $4 $5 $6 $7 $8 $9 X,Y pos of 4 corners*
0 Add a 4 corners polygon primitive as box body*
4,1,4,$2,$3,$4,$5,$6,$7,$8,$9,$2,$3,0*
0 Add four circle primitives for the rounded corners*
1,1,$1+$1,$2,$3*
1,1,$1+$1,$4,$5*
1,1,$1+$1,$6,$7*
1,1,$1+$1,$8,$9*
0 Add four rect primitives between the rounded corners*
20,1,$1+$1,$2,$3,$4,$5,0*
20,1,$1+$1,$4,$5,$6,$7,0*
20,1,$1+$1,$6,$7,$8,$9,0*
20,1,$1+$1,$8,$9,$2,$3,0*%
G04 Aperture macros list end*
%TA.AperFunction,SMDPad,CuDef*%
%ADD10RoundRect,0.150000X-0.650000X-0.150000X0.650000X-0.150000X0.650000X0.150000X-0.650000X0.150000X0*%
%TD*%
%TA.AperFunction,HeatsinkPad*%
%ADD11C,0.500000*%
%TD*%
%TA.AperFunction,HeatsinkPad*%
%ADD12R,2.410000X3.100000*%
%TD*%
%TA.AperFunction,SMDPad,CuDef*%
%ADD13RoundRect,0.250000X-0.325000X-0.650000X0.325000X-0.650000X0.325000X0.650000X-0.325000X0.650000X0*%
%TD*%
%TA.AperFunction,SMDPad,CuDef*%
%ADD14RoundRect,0.275000X-0.275000X-0.725000X0.275000X-0.725000X0.275000X0.725000X-0.275000X0.725000X0*%
%TD*%
%TA.AperFunction,SMDPad,CuDef*%
%ADD15RoundRect,0.275000X-0.725000X0.275000X-0.725000X-0.275000X0.725000X-0.275000X0.725000X0.275000X0*%
%TD*%
%TA.AperFunction,SMDPad,CuDef*%
%ADD16RoundRect,0.275000X0.725000X-0.275000X0.725000X0.275000X-0.725000X0.275000X-0.725000X-0.275000X0*%
%TD*%
%TA.AperFunction,SMDPad,CuDef*%
%ADD17RoundRect,0.225000X-0.225000X-0.250000X0.225000X-0.250000X0.225000X0.250000X-0.225000X0.250000X0*%
%TD*%
%TA.AperFunction,SMDPad,CuDef*%
%ADD18RoundRect,0.200000X-0.200000X-0.275000X0.200000X-0.275000X0.200000X0.275000X-0.200000X0.275000X0*%
%TD*%
%TA.AperFunction,SMDPad,CuDef*%
%ADD19RoundRect,0.150000X-0.825000X-0.150000X0.825000X-0.150000X0.825000X0.150000X-0.825000X0.150000X0*%
%TD*%
%TA.AperFunction,SMDPad,CuDef*%
%ADD20RoundRect,0.250000X-0.312500X-1.450000X0.312500X-1.450000X0.312500X1.450000X-0.312500X1.450000X0*%
%TD*%
%TA.AperFunction,SMDPad,CuDef*%
%ADD21RoundRect,0.250000X-1.000000X-0.900000X1.000000X-0.900000X1.000000X0.900000X-1.000000X0.900000X0*%
%TD*%
%TA.AperFunction,SMDPad,CuDef*%
%ADD22RoundRect,0.250000X-0.275000X-0.700000X0.275000X-0.700000X0.275000X0.700000X-0.275000X0.700000X0*%
%TD*%
%TA.AperFunction,SMDPad,CuDef*%
%ADD23RoundRect,0.112500X-0.187500X-0.112500X0.187500X-0.112500X0.187500X0.112500X-0.187500X0.112500X0*%
%TD*%
%TA.AperFunction,SMDPad,CuDef*%
%ADD24R,1.500000X0.900000*%
%TD*%
%TA.AperFunction,SMDPad,CuDef*%
%ADD25R,0.900000X1.500000*%
%TD*%
%TA.AperFunction,HeatsinkPad*%
%ADD26C,0.600000*%
%TD*%
%TA.AperFunction,HeatsinkPad*%
%ADD27R,3.900000X3.900000*%
%TD*%
%TA.AperFunction,SMDPad,CuDef*%
%ADD28R,1.000000X1.600000*%
%TD*%
%TA.AperFunction,SMDPad,CuDef*%
%ADD29RoundRect,0.150000X-0.150000X-0.575000X0.150000X-0.575000X0.150000X0.575000X-0.150000X0.575000X0*%
%TD*%
%TA.AperFunction,SMDPad,CuDef*%
%ADD30RoundRect,0.075000X-0.075000X-0.650000X0.075000X-0.650000X0.075000X0.650000X-0.075000X0.650000X0*%
%TD*%
%TA.AperFunction,ComponentPad*%
%ADD31O,1.000000X2.100000*%
%TD*%
%TA.AperFunction,ComponentPad*%
%ADD32O,1.000000X1.600000*%
%TD*%
%TA.AperFunction,SMDPad,CuDef*%
%ADD33RoundRect,0.150000X-0.512500X-0.150000X0.512500X-0.150000X0.512500X0.150000X-0.512500X0.150000X0*%
%TD*%
%TA.AperFunction,SMDPad,CuDef*%
%ADD34C,1.500000*%
%TD*%
%TA.AperFunction,SMDPad,CuDef*%
%ADD35C,1.000000*%
%TD*%
G04 APERTURE END LIST*
D10*
%TO.P,U4,1*%
%TO.N,N/C*%
X13350000Y-10095000D03*
%TO.P,U4,2*%
X13350000Y-11365000D03*
%TO.P,U4,3*%
X13350000Y-12635000D03*
%TO.P,U4,4*%
X13350000Y-13905000D03*
%TO.P,U4,5*%
X18650000Y-13905000D03*
%TO.P,U4,6*%
X18650000Y-12635000D03*
%TO.P,U4,7*%
X18650000Y-11365000D03*
%TO.P,U4,8*%
X18650000Y-10095000D03*
D11*
%TO.P,U4,9*%
X15045000Y-10700000D03*
X15045000Y-12000000D03*
X15045000Y-13300000D03*
D12*
X16000000Y-12000000D03*
D11*
X16955000Y-10700000D03*
X16955000Y-12000000D03*
X16955000Y-13300000D03*
%TD*%
D13*
%TO.P,C_IN,1*%
%TO.N,N/C*%
X28525000Y-12000000D03*
%TO.P,C_IN,2*%
X31475000Y-12000000D03*
%TD*%
D14*
%TO.P,L1,1*%
%TO.N,N/C*%
X13600000Y-24000000D03*
%TO.P,L1,2*%
X18400000Y-24000000D03*
D15*
%TO.P,L1,MP*%
X16000000Y-21600000D03*
D16*
X16000000Y-26400000D03*
%TD*%
D13*
%TO.P,C_3V3,1*%
%TO.N,N/C*%
X28525000Y-24000000D03*
%TO.P,C_3V3,2*%
X31475000Y-24000000D03*
%TD*%
D17*
%TO.P,C_BST,1*%
%TO.N,N/C*%
X21225000Y-36000000D03*
%TO.P,C_BST,2*%
X22775000Y-36000000D03*
%TD*%
D18*
%TO.P,R_FB_TOP,1*%
%TO.N,N/C*%
X9175000Y-40000000D03*
%TO.P,R_FB_TOP,2*%
X10825000Y-40000000D03*
%TD*%
%TO.P,R_FB_BOT,1*%
%TO.N,N/C*%
X14175000Y-40000000D03*
%TO.P,R_FB_BOT,2*%
X15825000Y-40000000D03*
%TD*%
%TO.P,R_BUCK_EN,1*%
%TO.N,N/C*%
X19175000Y-40000000D03*
%TO.P,R_BUCK_EN,2*%
X20825000Y-40000000D03*
%TD*%
%TO.P,R_BUCK_RON,1*%
%TO.N,N/C*%
X24175000Y-40000000D03*
%TO.P,R_BUCK_RON,2*%
X25825000Y-40000000D03*
%TD*%
%TO.P,R_PGOOD_PU,1*%
%TO.N,N/C*%
X29175000Y-40000000D03*
%TO.P,R_PGOOD_PU,2*%
X30825000Y-40000000D03*
%TD*%
D19*
%TO.P,Q1,1*%
%TO.N,N/C*%
X7525000Y-42095000D03*
%TO.P,Q1,2*%
X7525000Y-43365000D03*
%TO.P,Q1,3*%
X7525000Y-44635000D03*
%TO.P,Q1,4*%
X7525000Y-45905000D03*
%TO.P,Q1,5*%
X12475000Y-45905000D03*
%TO.P,Q1,6*%
X12475000Y-44635000D03*
%TO.P,Q1,7*%
X12475000Y-43365000D03*
%TO.P,Q1,8*%
X12475000Y-42095000D03*
%TD*%
D20*
%TO.P,F1,1*%
%TO.N,N/C*%
X13862500Y-50000000D03*
%TO.P,F1,2*%
X18137500Y-50000000D03*
%TD*%
D21*
%TO.P,D1,1*%
%TO.N,N/C*%
X27850000Y-48000000D03*
%TO.P,D1,2*%
X32150000Y-48000000D03*
%TD*%
D22*
%TO.P,FB1,1*%
%TO.N,N/C*%
X42425000Y-48000000D03*
%TO.P,FB1,2*%
X45575000Y-48000000D03*
%TD*%
D19*
%TO.P,U2,1*%
%TO.N,N/C*%
X45525000Y-6095000D03*
%TO.P,U2,2*%
X45525000Y-7365000D03*
%TO.P,U2,3*%
X45525000Y-8635000D03*
%TO.P,U2,4*%
X45525000Y-9905000D03*
%TO.P,U2,5*%
X50475000Y-9905000D03*
%TO.P,U2,6*%
X50475000Y-8635000D03*
%TO.P,U2,7*%
X50475000Y-7365000D03*
%TO.P,U2,8*%
X50475000Y-6095000D03*
%TD*%
%TO.P,U3,1*%
%TO.N,N/C*%
X45525000Y-30095000D03*
%TO.P,U3,2*%
X45525000Y-31365000D03*
%TO.P,U3,3*%
X45525000Y-32635000D03*
%TO.P,U3,4*%
X45525000Y-33905000D03*
%TO.P,U3,5*%
X50475000Y-33905000D03*
%TO.P,U3,6*%
X50475000Y-32635000D03*
%TO.P,U3,7*%
X50475000Y-31365000D03*
%TO.P,U3,8*%
X50475000Y-30095000D03*
%TD*%
D18*
%TO.P,R_WAKE_A,1*%
%TO.N,N/C*%
X67175000Y-8000000D03*
%TO.P,R_WAKE_A,2*%
X68825000Y-8000000D03*
%TD*%
%TO.P,R_WAKE_B,1*%
%TO.N,N/C*%
X72175000Y-8000000D03*
%TO.P,R_WAKE_B,2*%
X73825000Y-8000000D03*
%TD*%
%TO.P,R_LINA_SER,1*%
%TO.N,N/C*%
X77175000Y-8000000D03*
%TO.P,R_LINA_SER,2*%
X78825000Y-8000000D03*
%TD*%
%TO.P,R_LINB_SER,1*%
%TO.N,N/C*%
X67175000Y-32000000D03*
%TO.P,R_LINB_SER,2*%
X68825000Y-32000000D03*
%TD*%
%TO.P,R_LINEN_PD,1*%
%TO.N,N/C*%
X72175000Y-32000000D03*
%TO.P,R_LINEN_PD,2*%
X73825000Y-32000000D03*
%TD*%
%TO.P,R_ARMSENSE_PD,1*%
%TO.N,N/C*%
X77175000Y-32000000D03*
%TO.P,R_ARMSENSE_PD,2*%
X78825000Y-32000000D03*
%TD*%
D23*
%TO.P,D2,1*%
%TO.N,N/C*%
X66950000Y-20000000D03*
%TO.P,D2,2*%
X69050000Y-20000000D03*
%TD*%
%TO.P,D3,1*%
%TO.N,N/C*%
X76950000Y-40000000D03*
%TO.P,D3,2*%
X79050000Y-40000000D03*
%TD*%
D24*
%TO.P,U1,1*%
%TO.N,N/C*%
X81250000Y-23590000D03*
%TO.P,U1,2*%
X81250000Y-24860000D03*
%TO.P,U1,3*%
X81250000Y-26130000D03*
%TO.P,U1,4*%
X81250000Y-27400000D03*
%TO.P,U1,5*%
X81250000Y-28670000D03*
%TO.P,U1,6*%
X81250000Y-29940000D03*
%TO.P,U1,7*%
X81250000Y-31210000D03*
%TO.P,U1,8*%
X81250000Y-32480000D03*
%TO.P,U1,9*%
X81250000Y-33750000D03*
%TO.P,U1,10*%
X81250000Y-35020000D03*
%TO.P,U1,11*%
X81250000Y-36290000D03*
%TO.P,U1,12*%
X81250000Y-37560000D03*
%TO.P,U1,13*%
X81250000Y-38830000D03*
%TO.P,U1,14*%
X81250000Y-40100000D03*
D25*
%TO.P,U1,15*%
X83015000Y-41350000D03*
%TO.P,U1,16*%
X84285000Y-41350000D03*
%TO.P,U1,17*%
X85555000Y-41350000D03*
%TO.P,U1,18*%
X86825000Y-41350000D03*
%TO.P,U1,19*%
X88095000Y-41350000D03*
%TO.P,U1,20*%
X89365000Y-41350000D03*
%TO.P,U1,21*%
X90635000Y-41350000D03*
%TO.P,U1,22*%
X91905000Y-41350000D03*
%TO.P,U1,23*%
X93175000Y-41350000D03*
%TO.P,U1,24*%
X94445000Y-41350000D03*
%TO.P,U1,25*%
X95715000Y-41350000D03*
%TO.P,U1,26*%
X96985000Y-41350000D03*
D24*
%TO.P,U1,27*%
X98750000Y-40100000D03*
%TO.P,U1,28*%
X98750000Y-38830000D03*
%TO.P,U1,29*%
X98750000Y-37560000D03*
%TO.P,U1,30*%
X98750000Y-36290000D03*
%TO.P,U1,31*%
X98750000Y-35020000D03*
%TO.P,U1,32*%
X98750000Y-33750000D03*
%TO.P,U1,33*%
X98750000Y-32480000D03*
%TO.P,U1,34*%
X98750000Y-31210000D03*
%TO.P,U1,35*%
X98750000Y-29940000D03*
%TO.P,U1,36*%
X98750000Y-28670000D03*
%TO.P,U1,37*%
X98750000Y-27400000D03*
%TO.P,U1,38*%
X98750000Y-26130000D03*
%TO.P,U1,39*%
X98750000Y-24860000D03*
%TO.P,U1,40*%
X98750000Y-23590000D03*
D26*
%TO.P,U1,41*%
X87100000Y-30610000D03*
X87100000Y-32010000D03*
X87800000Y-29910000D03*
X87800000Y-31310000D03*
X87800000Y-32710000D03*
X88500000Y-30610000D03*
D27*
X88500000Y-31310000D03*
D26*
X88500000Y-32010000D03*
X89200000Y-29910000D03*
X89200000Y-31310000D03*
X89200000Y-32710000D03*
X89900000Y-30610000D03*
X89900000Y-32010000D03*
%TD*%
D28*
%TO.P,SW1,1*%
%TO.N,N/C*%
X63500000Y-44800000D03*
%TO.P,SW1,2*%
X66000000Y-44800000D03*
%TO.P,SW1,3*%
X68500000Y-44800000D03*
%TO.P,SW1,4*%
X63500000Y-47200000D03*
%TO.P,SW1,5*%
X66000000Y-47200000D03*
%TO.P,SW1,6*%
X68500000Y-47200000D03*
%TD*%
D29*
%TO.P,J1,A1*%
%TO.N,N/C*%
X91955000Y-15250000D03*
%TO.P,J1,A4*%
X91955000Y-14450000D03*
D30*
%TO.P,J1,A5*%
X91955000Y-13250000D03*
%TO.P,J1,A6*%
X91955000Y-12250000D03*
%TO.P,J1,A7*%
X91955000Y-11750000D03*
%TO.P,J1,A8*%
X91955000Y-10750000D03*
D29*
%TO.P,J1,A9*%
X91955000Y-9550000D03*
%TO.P,J1,A12*%
X91955000Y-8750000D03*
%TO.P,J1,B1*%
X91955000Y-8750000D03*
%TO.P,J1,B4*%
X91955000Y-9550000D03*
D30*
%TO.P,J1,B5*%
X91955000Y-10250000D03*
%TO.P,J1,B6*%
X91955000Y-11250000D03*
%TO.P,J1,B7*%
X91955000Y-12750000D03*
%TO.P,J1,B8*%
X91955000Y-13750000D03*
D29*
%TO.P,J1,B9*%
X91955000Y-14450000D03*
%TO.P,J1,B12*%
X91955000Y-15250000D03*
D31*
%TO.P,J1,SH*%
X92870000Y-16320000D03*
D32*
X97050000Y-16320000D03*
D31*
X92870000Y-7680000D03*
D32*
X97050000Y-7680000D03*
%TD*%
D33*
%TO.P,D4,1*%
%TO.N,N/C*%
X82862500Y-9050000D03*
%TO.P,D4,2*%
X82862500Y-10000000D03*
%TO.P,D4,3*%
X82862500Y-10950000D03*
%TO.P,D4,4*%
X85137500Y-10950000D03*
%TO.P,D4,5*%
X85137500Y-10000000D03*
%TO.P,D4,6*%
X85137500Y-9050000D03*
%TD*%
D18*
%TO.P,R_EN,1*%
%TO.N,N/C*%
X75175000Y-46000000D03*
%TO.P,R_EN,2*%
X76825000Y-46000000D03*
%TD*%
%TO.P,R_BOOT,1*%
%TO.N,N/C*%
X80175000Y-46000000D03*
%TO.P,R_BOOT,2*%
X81825000Y-46000000D03*
%TD*%
%TO.P,R_CC1,1*%
%TO.N,N/C*%
X75175000Y-52000000D03*
%TO.P,R_CC1,2*%
X76825000Y-52000000D03*
%TD*%
%TO.P,R_CC2,1*%
%TO.N,N/C*%
X80175000Y-52000000D03*
%TO.P,R_CC2,2*%
X81825000Y-52000000D03*
%TD*%
D34*
%TO.P,TP1,1*%
%TO.N,N/C*%
X7000000Y-54000000D03*
%TD*%
%TO.P,TP2,1*%
%TO.N,N/C*%
X11500000Y-54000000D03*
%TD*%
%TO.P,TP3,1*%
%TO.N,N/C*%
X16000000Y-54000000D03*
%TD*%
%TO.P,TP4,1*%
%TO.N,N/C*%
X20500000Y-54000000D03*
%TD*%
%TO.P,TP5,1*%
%TO.N,N/C*%
X25000000Y-54000000D03*
%TD*%
%TO.P,TP6,1*%
%TO.N,N/C*%
X29500000Y-54000000D03*
%TD*%
%TO.P,TP7,1*%
%TO.N,N/C*%
X34000000Y-54000000D03*
%TD*%
%TO.P,TP8,1*%
%TO.N,N/C*%
X38500000Y-54000000D03*
%TD*%
%TO.P,TP9,1*%
%TO.N,N/C*%
X43000000Y-54000000D03*
%TD*%
%TO.P,TP10,1*%
%TO.N,N/C*%
X47500000Y-54000000D03*
%TD*%
%TO.P,TP11,1*%
%TO.N,N/C*%
X52000000Y-54000000D03*
%TD*%
%TO.P,TP12,1*%
%TO.N,N/C*%
X56500000Y-54000000D03*
%TD*%
%TO.P,TP13,1*%
%TO.N,N/C*%
X61000000Y-54000000D03*
%TD*%
%TO.P,TP14,1*%
%TO.N,N/C*%
X65500000Y-54000000D03*
%TD*%
%TO.P,TP15,1*%
%TO.N,N/C*%
X70000000Y-54000000D03*
%TD*%
%TO.P,TP16,1*%
%TO.N,N/C*%
X74500000Y-54000000D03*
%TD*%
%TO.P,TP17,1*%
%TO.N,N/C*%
X79000000Y-54000000D03*
%TD*%
%TO.P,TP18,1*%
%TO.N,N/C*%
X83500000Y-54000000D03*
%TD*%
%TO.P,TP19,1*%
%TO.N,N/C*%
X88000000Y-54000000D03*
%TD*%
%TO.P,TP20,1*%
%TO.N,N/C*%
X92500000Y-54000000D03*
%TD*%
D35*
%TO.P,FID1,*%
%TO.N,*%
X42000000Y-5000000D03*
%TD*%
%TO.P,FID2,*%
%TO.N,*%
X76000000Y-5000000D03*
%TD*%
%TO.P,FID3,*%
%TO.N,*%
X96000000Y-56000000D03*
%TD*%
M02*
